<svg xmlns="http://www.w3.org/2000/svg" xmlns:xlink="http://www.w3.org/1999/xlink" width="500" zoomAndPan="magnify" viewBox="0 0 375 374.999991" height="500" preserveAspectRatio="xMidYMid meet" version="1.0"><defs><clipPath id="f65c02b3a2"><path d="M 118.25 296.125 L 167.363281 296.125 L 167.363281 336 L 118.25 336 Z M 118.25 296.125 " clip-rule="nonzero"/></clipPath><clipPath id="4073724abc"><path d="M 156.226562 319.648438 C 146.550781 321.601562 134.550781 328.050781 131.550781 328.125 C 130.726562 328.125 130.273438 327.898438 129.898438 327.523438 C 129.449219 327.148438 129 326.550781 129 326.023438 C 129 325.273438 129.226562 324.300781 130.199219 323.398438 C 133.273438 320.699219 152.25 314.550781 156.148438 314.625 C 157.273438 314.699219 158.023438 315 158.398438 315.523438 C 158.699219 316.050781 158.851562 317.023438 158.324219 317.925781 C 156.75 320.773438 142.800781 329.851562 139.648438 330.148438 C 138.675781 330.226562 138.074219 329.851562 137.625 329.398438 C 137.25 328.800781 137.023438 327.75 137.324219 326.773438 C 138.074219 324.601562 142.949219 319.050781 144.976562 318.226562 C 146.023438 317.773438 147.148438 318.074219 147.75 318.449219 C 148.199219 318.75 148.5 319.351562 148.574219 319.875 C 148.648438 320.398438 148.726562 320.925781 148.273438 321.601562 C 146.476562 324.074219 131.324219 333.898438 127.648438 334.050781 C 126.375 334.050781 125.398438 333.449219 125.023438 332.699219 C 124.648438 332.023438 124.648438 330.898438 125.324219 329.773438 C 126.976562 327 138.75 320.101562 141.449219 319.273438 C 142.273438 318.976562 142.648438 318.976562 143.175781 319.199219 C 143.699219 319.351562 144.226562 319.800781 144.523438 320.324219 C 144.75 320.773438 144.898438 321.523438 144.75 322.050781 C 144.675781 322.574219 144.375 322.875 143.851562 323.476562 C 142.425781 325.050781 136.648438 329.851562 134.699219 330.375 C 133.875 330.601562 133.351562 330.449219 132.824219 330.148438 C 132.300781 329.773438 131.625 328.875 131.550781 328.125 C 131.476562 327.449219 131.773438 326.699219 132.449219 325.949219 C 133.800781 324.523438 139.125 321.824219 140.925781 321.523438 C 141.675781 321.449219 142.199219 321.675781 142.648438 321.976562 C 143.175781 322.273438 143.625 322.875 143.773438 323.476562 C 143.851562 324.226562 143.550781 325.273438 142.726562 326.175781 C 141.148438 328.199219 135.148438 331.125 132 332.625 C 129.824219 333.675781 128.101562 334.351562 126.148438 334.800781 C 124.351562 335.324219 121.726562 336.375 120.601562 335.625 C 119.625 335.101562 119.101562 332.925781 119.25 331.726562 C 119.398438 330.675781 120.449219 330 121.5 328.800781 C 123.375 326.625 126.898438 323.101562 129.976562 320.324219 C 133.199219 317.398438 137.476562 313.726562 140.476562 311.625 C 142.5 310.199219 144.449219 308.476562 145.800781 308.550781 C 146.625 308.550781 147.449219 309.226562 147.75 309.824219 C 147.976562 310.273438 147.976562 310.800781 147.601562 311.699219 C 145.949219 315.148438 129.675781 332.550781 126.074219 332.925781 C 125.023438 333.074219 124.050781 332.175781 123.824219 331.574219 C 123.675781 331.050781 123.898438 330.375 124.574219 329.476562 C 126.824219 326.25 143.550781 314.25 147.824219 312.226562 C 149.25 311.476562 150.226562 311.175781 150.976562 311.324219 C 151.425781 311.476562 151.800781 311.925781 151.949219 312.375 C 152.101562 312.898438 152.175781 313.574219 151.726562 314.25 C 150.375 316.425781 139.875 322.800781 137.25 323.175781 C 136.351562 323.324219 135.75 323.023438 135.375 322.648438 C 134.925781 322.199219 134.550781 321.375 134.699219 320.699219 C 135 319.5 136.875 318.300781 139.125 316.648438 C 143.925781 313.125 160.425781 302.773438 164.324219 302.023438 C 165.375 301.875 166.050781 301.949219 166.5 302.398438 C 166.949219 302.699219 167.175781 303.523438 167.101562 304.050781 C 167.023438 304.574219 166.800781 304.949219 166.050781 305.550781 C 163.351562 307.726562 145.199219 317.25 142.726562 316.050781 C 141.976562 315.675781 141.75 313.800781 142.125 313.351562 C 142.5 312.898438 144 313.800781 145.351562 313.5 C 147.824219 312.898438 153.449219 308.175781 155.476562 307.949219 C 156.226562 307.875 156.675781 308.023438 157.125 308.398438 C 157.574219 308.773438 158.101562 309.75 158.101562 310.425781 C 158.101562 310.949219 157.949219 311.699219 157.5 312 C 156.824219 312.375 155.023438 311.550781 154.199219 312 C 153.449219 312.375 153.449219 313.574219 152.550781 314.324219 C 150.675781 315.824219 146.324219 317.25 142.5 318.898438 C 137.476562 321 128.25 326.175781 125.101562 325.949219 C 123.898438 325.875 122.925781 325.199219 122.699219 324.601562 C 122.476562 323.925781 123 322.800781 123.824219 322.050781 C 125.101562 320.625 128.25 319.648438 131.550781 318.375 C 136.875 316.425781 149.25 314.324219 152.925781 312.300781 C 154.425781 311.550781 154.800781 310.199219 155.773438 309.976562 C 156.449219 309.75 157.273438 309.75 157.726562 310.125 C 158.25 310.574219 158.851562 311.773438 158.625 312.375 C 158.324219 313.125 156.976562 313.648438 155.773438 313.875 C 154.050781 314.25 151.050781 313.273438 149.101562 313.425781 C 147.601562 313.574219 146.851562 313.726562 145.050781 314.550781 C 140.324219 316.726562 124.726562 330.074219 121.5 330.074219 C 120.675781 330.074219 120.226562 329.550781 120 329.023438 C 119.699219 328.574219 119.625 327.976562 119.925781 327.148438 C 120.824219 324.824219 127.351562 318.601562 130.726562 315.226562 C 133.425781 312.523438 136.425781 308.773438 138.300781 308.175781 C 139.199219 307.875 140.175781 308.023438 140.550781 308.476562 C 141.074219 309 141.226562 310.199219 140.851562 311.175781 C 140.023438 313.199219 134.398438 317.925781 132.226562 318.601562 C 131.25 318.898438 130.273438 318.75 129.75 318.300781 C 129.226562 317.773438 128.925781 316.875 129.226562 315.824219 C 130.050781 312.601562 141.824219 300.375 145.199219 298.875 C 146.324219 298.351562 147.375 298.351562 147.898438 298.800781 C 148.425781 299.25 148.726562 300.375 148.273438 301.5 C 147.226562 304.5 135.75 313.726562 133.199219 315.074219 C 132.523438 315.449219 132.148438 315.601562 131.699219 315.523438 C 131.101562 315.375 130.273438 314.851562 129.976562 314.324219 C 129.675781 313.800781 129.601562 312.898438 129.898438 312.226562 C 130.5 311.175781 132.375 310.574219 134.476562 309.375 C 138.976562 306.824219 152.175781 298.726562 156.074219 298.648438 C 157.5 298.648438 158.699219 299.324219 159.074219 300.074219 C 159.375 300.824219 158.625 302.476562 158.175781 303.375 C 157.726562 304.125 157.273438 304.425781 156.375 305.25 C 154.574219 306.976562 149.023438 312.75 147.074219 312.976562 C 146.25 313.050781 145.574219 312.523438 145.273438 312 C 144.898438 311.476562 144.824219 310.875 144.976562 309.976562 C 145.351562 307.726562 148.949219 300.449219 150.449219 299.25 C 151.050781 298.875 151.574219 298.875 152.101562 298.949219 C 152.550781 299.023438 153.148438 299.324219 153.449219 299.773438 C 153.824219 300.375 154.050781 301.273438 153.675781 302.398438 C 152.550781 305.175781 142.875 314.023438 140.175781 315.148438 C 139.273438 315.523438 138.675781 315.523438 138.148438 315.300781 C 137.550781 314.925781 136.875 313.726562 136.875 313.125 C 136.800781 312.601562 137.023438 312.300781 137.476562 311.625 C 138.824219 309.898438 145.199219 303.523438 147.601562 303.148438 C 148.726562 302.925781 149.925781 303.601562 150.300781 304.199219 C 150.675781 304.800781 150.300781 306.601562 149.925781 306.75 C 149.398438 306.898438 146.773438 303.675781 147.074219 303.300781 C 147.226562 302.925781 149.476562 303.148438 149.925781 303.675781 C 150.375 304.273438 150.449219 305.476562 149.851562 306.601562 C 147.898438 310.351562 129.148438 324.074219 125.773438 323.925781 C 124.800781 323.925781 124.199219 323.101562 123.976562 322.5 C 123.824219 321.976562 123.898438 321.523438 124.351562 320.625 C 126.074219 317.324219 140.101562 301.726562 143.773438 299.699219 C 144.898438 299.101562 145.726562 298.949219 146.324219 299.25 C 146.851562 299.550781 147.375 300.375 147.226562 301.273438 C 146.476562 304.425781 129.824219 317.851562 126.523438 318.523438 C 125.625 318.675781 125.101562 318.375 124.648438 318 C 124.273438 317.476562 123.976562 316.648438 124.199219 315.675781 C 124.875 313.273438 131.324219 305.773438 133.875 304.800781 C 134.925781 304.351562 136.273438 304.5 136.800781 305.023438 C 137.25 305.625 137.324219 307.050781 136.800781 308.023438 C 136.050781 309.675781 132.375 310.949219 130.125 313.050781 C 127.351562 315.675781 123.675781 321.675781 121.726562 322.726562 C 120.976562 323.101562 120.300781 323.175781 119.773438 322.949219 C 119.25 322.726562 118.574219 322.050781 118.425781 321.523438 C 118.351562 320.925781 118.425781 320.476562 118.949219 319.574219 C 120.601562 316.425781 132 303.074219 135.523438 301.199219 C 136.726562 300.523438 137.773438 300.375 138.375 300.75 C 138.976562 301.199219 139.5 302.476562 139.199219 303.601562 C 138.226562 306.601562 127.125 315.898438 124.050781 316.949219 C 123 317.25 122.101562 317.101562 121.574219 316.726562 C 121.050781 316.351562 120.675781 315.601562 120.75 314.851562 C 120.75 313.875 121.574219 312.824219 122.550781 311.398438 C 124.726562 308.175781 131.851562 298.949219 134.699219 297.523438 C 135.824219 296.925781 136.949219 296.851562 137.550781 297.300781 C 138.074219 297.675781 138.449219 298.949219 138.074219 300.074219 C 137.175781 302.699219 128.398438 309.523438 125.699219 310.726562 C 124.648438 311.25 123.824219 311.324219 123.226562 311.101562 C 122.699219 310.949219 122.324219 310.425781 122.101562 309.898438 C 121.949219 309.449219 121.875 309 122.101562 308.324219 C 122.699219 306.675781 126.375 301.574219 128.25 300.824219 C 129.226562 300.375 130.5 300.601562 131.023438 301.050781 C 131.625 301.574219 131.851562 303 131.699219 303.675781 C 131.550781 304.199219 131.101562 304.574219 130.574219 304.949219 C 129.824219 305.476562 128.101562 306.074219 127.125 306.074219 C 126.523438 306.074219 125.925781 305.925781 125.476562 305.625 C 125.023438 305.324219 124.648438 304.800781 124.574219 304.199219 C 124.425781 303.601562 124.648438 302.851562 125.101562 302.101562 C 125.773438 300.898438 127.800781 298.425781 128.925781 298.351562 C 129.675781 298.351562 130.125 299.851562 130.949219 300.148438 C 131.625 300.375 133.273438 299.925781 133.351562 300.074219 C 133.351562 300.226562 131.550781 301.273438 131.101562 301.125 C 130.800781 300.976562 130.949219 299.625 130.726562 299.625 C 130.5 299.625 130.199219 301.351562 129.601562 301.726562 C 129 302.101562 127.875 302.25 127.273438 301.949219 C 126.523438 301.574219 125.625 300.074219 125.699219 299.324219 C 125.851562 298.5 127.050781 297.226562 127.875 297.074219 C 128.625 297 130.125 297.824219 130.5 298.574219 C 130.875 299.175781 130.726562 300.300781 130.351562 300.898438 C 129.976562 301.5 129 302.101562 128.324219 302.101562 C 127.648438 302.175781 126.601562 301.574219 126.226562 301.125 C 125.851562 300.675781 125.550781 300.074219 125.699219 299.550781 C 126.074219 298.574219 129.148438 296.851562 130.648438 296.476562 C 131.550781 296.25 132.601562 296.175781 133.273438 296.625 C 133.949219 297.148438 134.699219 298.574219 134.476562 299.699219 C 134.023438 301.574219 129.523438 305.476562 127.726562 305.925781 C 126.75 306.226562 125.625 305.773438 125.101562 305.25 C 124.648438 304.875 124.5 304.199219 124.5 303.675781 C 124.5 303.148438 124.648438 302.476562 125.101562 302.101562 C 125.925781 301.273438 128.925781 300.375 130.050781 300.523438 C 130.648438 300.601562 131.101562 301.050781 131.398438 301.5 C 131.699219 301.949219 132 302.398438 131.851562 303.148438 C 131.476562 304.800781 127.5 309.75 125.699219 310.726562 C 124.800781 311.25 123.824219 311.398438 123.226562 311.101562 C 122.625 310.875 122.101562 309.976562 121.949219 309.449219 C 121.875 308.925781 121.949219 308.476562 122.324219 307.875 C 123.449219 306.074219 129.148438 301.425781 131.851562 299.550781 C 133.648438 298.273438 135.449219 296.773438 136.574219 296.851562 C 137.25 296.925781 137.925781 297.523438 138.148438 298.050781 C 138.449219 298.574219 138.449219 299.175781 138.074219 300.074219 C 136.949219 303 127.648438 315 124.5 316.574219 C 123.300781 317.175781 122.175781 317.101562 121.574219 316.726562 C 121.050781 316.425781 120.75 315.449219 120.75 314.851562 C 120.75 314.324219 120.898438 314.023438 121.425781 313.425781 C 123.074219 311.175781 132.898438 301.949219 135.898438 300.824219 C 136.949219 300.375 137.851562 300.375 138.375 300.75 C 138.976562 301.199219 139.5 302.324219 139.199219 303.601562 C 138.300781 307.273438 125.398438 320.398438 122.101562 322.351562 C 121.125 322.949219 120.375 323.175781 119.773438 322.949219 C 119.175781 322.800781 118.574219 322.050781 118.425781 321.523438 C 118.351562 320.925781 118.5 320.398438 118.949219 319.574219 C 120 317.476562 124.5 312.601562 127.199219 309.976562 C 129.449219 307.800781 132.074219 305.398438 133.875 304.800781 C 134.773438 304.425781 135.824219 304.273438 136.351562 304.726562 C 136.949219 305.175781 137.398438 306.449219 137.101562 307.574219 C 136.425781 310.199219 128.851562 318 126.523438 318.523438 C 125.625 318.675781 124.726562 318.148438 124.351562 317.550781 C 124.050781 317.023438 123.976562 316.199219 124.425781 315.226562 C 125.625 312.75 133.050781 307.351562 136.875 304.5 C 139.726562 302.25 143.101562 299.175781 144.976562 299.023438 C 145.800781 298.949219 146.625 299.476562 146.925781 299.925781 C 147.226562 300.375 147.375 300.898438 147.074219 301.726562 C 145.800781 305.175781 129.75 323.25 126.226562 323.925781 C 125.324219 324.074219 124.5 323.476562 124.199219 322.949219 C 123.824219 322.425781 123.824219 321.601562 124.351562 320.625 C 126.226562 317.25 142.949219 304.351562 147.074219 303.300781 C 148.351562 302.925781 149.398438 303.226562 149.925781 303.675781 C 150.375 304.125 150.523438 305.175781 150.375 305.699219 C 150.300781 306.226562 149.851562 306.976562 149.476562 306.976562 C 148.875 306.976562 146.851562 303.824219 147.074219 303.375 C 147.375 303 149.550781 303.226562 150 303.75 C 150.449219 304.351562 150.449219 305.625 149.925781 306.75 C 148.875 309 142.351562 314.324219 140.175781 315.148438 C 139.351562 315.523438 138.675781 315.523438 138.148438 315.300781 C 137.550781 314.925781 136.726562 314.101562 136.875 313.125 C 137.175781 310.425781 148.050781 300.601562 150.449219 299.25 C 151.199219 298.875 151.574219 298.875 152.101562 298.949219 C 152.550781 299.023438 153.148438 299.324219 153.449219 299.773438 C 153.824219 300.375 153.898438 301.574219 153.601562 302.773438 C 153.074219 304.726562 149.550781 308.175781 148.875 309.976562 C 148.5 310.949219 149.023438 311.925781 148.574219 312.375 C 148.050781 312.824219 146.699219 312.976562 146.023438 312.675781 C 145.5 312.449219 144.976562 311.625 144.824219 311.023438 C 144.75 310.425781 145.050781 309.824219 145.574219 309.074219 C 146.925781 307.125 153.75 300.375 155.324219 300.601562 C 156 300.75 156.75 301.875 156.523438 302.699219 C 155.625 305.476562 135.074219 315.675781 131.699219 315.523438 C 130.726562 315.449219 130.199219 314.925781 129.976562 314.324219 C 129.675781 313.726562 129.75 312.824219 130.199219 311.773438 C 131.398438 309.449219 137.550781 304.726562 140.625 302.324219 C 142.800781 300.601562 145.125 298.425781 146.550781 298.351562 C 147.226562 298.273438 147.898438 298.648438 148.199219 299.175781 C 148.574219 299.699219 148.648438 300.449219 148.273438 301.5 C 147.074219 304.648438 135.226562 316.574219 132.675781 318.300781 C 132 318.75 131.699219 318.898438 131.25 318.824219 C 130.648438 318.824219 129.75 318.375 129.449219 317.851562 C 129.074219 317.398438 129 316.425781 129.226562 315.824219 C 129.375 315.300781 129.675781 315.074219 130.273438 314.476562 C 131.773438 313.050781 136.800781 308.324219 138.75 308.023438 C 139.648438 307.875 140.550781 308.324219 140.925781 308.851562 C 141.226562 309.375 141.226562 310.273438 140.851562 311.175781 C 140.023438 312.976562 136.050781 315.148438 133.425781 317.773438 C 130.125 321.074219 125.175781 328.5 122.925781 329.699219 C 122.175781 330.148438 121.574219 330.226562 121.050781 330 C 120.523438 329.699219 119.773438 328.726562 119.699219 328.125 C 119.699219 327.523438 119.925781 327.148438 120.523438 326.398438 C 123 323.625 138.375 312.75 143.625 310.351562 C 145.949219 309.300781 147.074219 309.148438 149.101562 309 C 151.5 308.851562 156.898438 309.300781 156.976562 309.824219 C 157.050781 310.125 154.648438 310.949219 154.648438 310.949219 C 154.648438 311.023438 156.601562 309.675781 157.273438 309.898438 C 157.949219 310.125 158.699219 311.550781 158.625 312.375 C 158.476562 313.351562 157.351562 314.476562 155.925781 315.375 C 152.773438 317.25 144.226562 318.148438 138.976562 319.949219 C 134.023438 321.675781 127.800781 326.101562 125.101562 325.949219 C 123.976562 325.875 122.925781 325.199219 122.699219 324.601562 C 122.476562 323.925781 122.925781 322.875 123.824219 322.050781 C 126 319.800781 135.375 317.476562 140.625 315.074219 C 145.425781 312.824219 151.273438 308.550781 154.125 308.101562 C 155.476562 307.875 157.125 308.476562 157.125 308.550781 C 157.050781 308.699219 153.898438 308.773438 153.898438 308.699219 C 153.898438 308.625 155.925781 307.875 156.601562 308.101562 C 157.199219 308.324219 157.875 309.226562 158.023438 309.824219 C 158.175781 310.351562 158.101562 310.949219 157.800781 311.476562 C 157.351562 312.449219 156 313.726562 154.800781 314.324219 C 153.523438 315 151.648438 314.851562 150.226562 315.375 C 148.800781 315.976562 147.675781 317.625 146.101562 317.851562 C 144.375 318.148438 140.925781 317.550781 140.175781 316.5 C 139.648438 315.601562 139.800781 313.949219 140.773438 312.675781 C 143.398438 309.226562 161.175781 301.949219 164.773438 301.875 C 165.824219 301.875 166.5 302.25 166.800781 302.699219 C 167.175781 303.148438 167.398438 303.75 167.023438 304.5 C 165.375 307.800781 142.425781 322.351562 137.773438 323.023438 C 136.425781 323.175781 135.375 322.800781 135 322.199219 C 134.625 321.601562 134.773438 320.398438 135.523438 319.351562 C 137.175781 317.023438 146.851562 311.476562 149.476562 311.25 C 150.523438 311.101562 151.273438 311.476562 151.648438 312 C 152.023438 312.449219 152.25 313.351562 151.726562 314.25 C 150 317.851562 129.898438 332.550781 126.074219 332.925781 C 125.101562 333.074219 124.351562 332.550781 124.050781 332.023438 C 123.75 331.5 123.75 330.824219 124.199219 329.773438 C 125.851562 326.175781 141.75 309.449219 145.273438 308.625 C 146.324219 308.398438 147.148438 308.851562 147.523438 309.375 C 147.898438 309.976562 147.824219 311.101562 147.226562 312.074219 C 146.023438 314.175781 140.25 316.574219 136.800781 319.574219 C 132.898438 322.949219 127.5 329.773438 125.25 331.726562 C 124.351562 332.476562 123.976562 333 123.300781 333 C 122.550781 333 120.75 331.949219 120.824219 331.425781 C 120.898438 330.375 126.675781 329.699219 129.824219 328.273438 C 133.351562 326.625 138.601562 321.824219 140.925781 321.523438 C 141.898438 321.449219 142.648438 321.824219 143.175781 322.351562 C 143.625 322.875 144 323.925781 143.773438 324.675781 C 143.398438 325.800781 141.300781 327 139.800781 327.898438 C 138.148438 328.949219 135.375 330.449219 134.023438 330.449219 C 133.273438 330.449219 132.75 330.226562 132.375 329.773438 C 131.925781 329.25 131.398438 328.351562 131.550781 327.523438 C 131.851562 326.398438 133.574219 325.050781 134.925781 323.851562 C 136.800781 322.273438 140.25 319.199219 141.976562 319.050781 C 143.023438 318.976562 144.148438 319.648438 144.523438 320.324219 C 144.898438 321 144.824219 322.050781 144.226562 323.101562 C 142.875 325.425781 134.925781 329.773438 131.699219 331.648438 C 129.824219 332.773438 128.25 334.125 127.050781 334.050781 C 126.226562 333.976562 125.398438 333.375 125.023438 332.699219 C 124.648438 332.101562 124.425781 331.199219 124.949219 330.300781 C 126.601562 327.375 142.800781 318.074219 146.101562 317.925781 C 147.148438 317.851562 147.75 318.300781 148.125 318.824219 C 148.5 319.351562 148.726562 320.175781 148.5 321.074219 C 147.898438 323.101562 142.425781 328.726562 140.699219 329.773438 C 140.023438 330.148438 139.574219 330.226562 139.125 330.148438 C 138.601562 330.074219 138 329.773438 137.625 329.398438 C 137.324219 328.949219 137.101562 328.351562 137.101562 327.824219 C 137.101562 327.300781 137.175781 326.925781 137.699219 326.25 C 139.351562 324.226562 149.773438 318.375 152.925781 316.425781 C 154.425781 315.523438 155.25 314.773438 156.148438 314.625 C 156.675781 314.550781 157.199219 314.625 157.648438 314.851562 C 158.101562 315.148438 158.699219 315.898438 158.699219 316.5 C 158.699219 317.101562 158.398438 317.851562 157.574219 318.601562 C 154.648438 321.148438 136.351562 327.976562 132.148438 327.976562 C 130.800781 328.050781 129.898438 327.75 129.449219 327.074219 C 129 326.476562 128.851562 325.125 129.375 324.226562 C 130.273438 322.726562 134.324219 321.523438 137.175781 320.324219 C 140.550781 318.898438 145.273438 317.324219 148.351562 316.425781 C 150.449219 315.824219 152.023438 315.148438 153.675781 315 C 154.949219 314.925781 156.523438 314.851562 157.351562 315.300781 C 157.875 315.523438 158.25 316.050781 158.398438 316.5 C 158.625 316.949219 158.699219 317.625 158.398438 318.148438 C 158.101562 318.75 156.226562 319.648438 156.226562 319.648438 " clip-rule="nonzero"/></clipPath><clipPath id="6f5db3c1f1"><path d="M 0.320312 0.160156 L 49.363281 0.160156 L 49.363281 40 L 0.320312 40 Z M 0.320312 0.160156 " clip-rule="nonzero"/></clipPath><clipPath id="11cd9b669d"><path d="M 38.226562 23.648438 C 28.550781 25.601562 16.550781 32.050781 13.550781 32.125 C 12.726562 32.125 12.273438 31.898438 11.898438 31.523438 C 11.449219 31.148438 11 30.550781 11 30.023438 C 11 29.273438 11.226562 28.300781 12.199219 27.398438 C 15.273438 24.699219 34.25 18.550781 38.148438 18.625 C 39.273438 18.699219 40.023438 19 40.398438 19.523438 C 40.699219 20.050781 40.851562 21.023438 40.324219 21.925781 C 38.75 24.773438 24.800781 33.851562 21.648438 34.148438 C 20.675781 34.226562 20.074219 33.851562 19.625 33.398438 C 19.25 32.800781 19.023438 31.75 19.324219 30.773438 C 20.074219 28.601562 24.949219 23.050781 26.976562 22.226562 C 28.023438 21.773438 29.148438 22.074219 29.75 22.449219 C 30.199219 22.75 30.5 23.351562 30.574219 23.875 C 30.648438 24.398438 30.726562 24.925781 30.273438 25.601562 C 28.476562 28.074219 13.324219 37.898438 9.648438 38.050781 C 8.375 38.050781 7.398438 37.449219 7.023438 36.699219 C 6.648438 36.023438 6.648438 34.898438 7.324219 33.773438 C 8.976562 31 20.75 24.101562 23.449219 23.273438 C 24.273438 22.976562 24.648438 22.976562 25.175781 23.199219 C 25.699219 23.351562 26.226562 23.800781 26.523438 24.324219 C 26.75 24.773438 26.898438 25.523438 26.75 26.050781 C 26.675781 26.574219 26.375 26.875 25.851562 27.476562 C 24.425781 29.050781 18.648438 33.851562 16.699219 34.375 C 15.875 34.601562 15.351562 34.449219 14.824219 34.148438 C 14.300781 33.773438 13.625 32.875 13.550781 32.125 C 13.476562 31.449219 13.773438 30.699219 14.449219 29.949219 C 15.800781 28.523438 21.125 25.824219 22.925781 25.523438 C 23.675781 25.449219 24.199219 25.675781 24.648438 25.976562 C 25.175781 26.273438 25.625 26.875 25.773438 27.476562 C 25.851562 28.226562 25.550781 29.273438 24.726562 30.175781 C 23.148438 32.199219 17.148438 35.125 14 36.625 C 11.824219 37.675781 10.101562 38.351562 8.148438 38.800781 C 6.351562 39.324219 3.726562 40.375 2.601562 39.625 C 1.625 39.101562 1.101562 36.925781 1.25 35.726562 C 1.398438 34.675781 2.449219 34 3.5 32.800781 C 5.375 30.625 8.898438 27.101562 11.976562 24.324219 C 15.199219 21.398438 19.476562 17.726562 22.476562 15.625 C 24.5 14.199219 26.449219 12.476562 27.800781 12.550781 C 28.625 12.550781 29.449219 13.226562 29.75 13.824219 C 29.976562 14.273438 29.976562 14.800781 29.601562 15.699219 C 27.949219 19.148438 11.675781 36.550781 8.074219 36.925781 C 7.023438 37.074219 6.050781 36.175781 5.824219 35.574219 C 5.675781 35.050781 5.898438 34.375 6.574219 33.476562 C 8.824219 30.25 25.550781 18.25 29.824219 16.226562 C 31.25 15.476562 32.226562 15.175781 32.976562 15.324219 C 33.425781 15.476562 33.800781 15.925781 33.949219 16.375 C 34.101562 16.898438 34.175781 17.574219 33.726562 18.25 C 32.375 20.425781 21.875 26.800781 19.25 27.175781 C 18.351562 27.324219 17.75 27.023438 17.375 26.648438 C 16.925781 26.199219 16.550781 25.375 16.699219 24.699219 C 17 23.5 18.875 22.300781 21.125 20.648438 C 25.925781 17.125 42.425781 6.773438 46.324219 6.023438 C 47.375 5.875 48.050781 5.949219 48.5 6.398438 C 48.949219 6.699219 49.175781 7.523438 49.101562 8.050781 C 49.023438 8.574219 48.800781 8.949219 48.050781 9.550781 C 45.351562 11.726562 27.199219 21.25 24.726562 20.050781 C 23.976562 19.675781 23.75 17.800781 24.125 17.351562 C 24.5 16.898438 26 17.800781 27.351562 17.5 C 29.824219 16.898438 35.449219 12.175781 37.476562 11.949219 C 38.226562 11.875 38.675781 12.023438 39.125 12.398438 C 39.574219 12.773438 40.101562 13.75 40.101562 14.425781 C 40.101562 14.949219 39.949219 15.699219 39.5 16 C 38.824219 16.375 37.023438 15.550781 36.199219 16 C 35.449219 16.375 35.449219 17.574219 34.550781 18.324219 C 32.675781 19.824219 28.324219 21.25 24.5 22.898438 C 19.476562 25 10.25 30.175781 7.101562 29.949219 C 5.898438 29.875 4.925781 29.199219 4.699219 28.601562 C 4.476562 27.925781 5 26.800781 5.824219 26.050781 C 7.101562 24.625 10.25 23.648438 13.550781 22.375 C 18.875 20.425781 31.25 18.324219 34.925781 16.300781 C 36.425781 15.550781 36.800781 14.199219 37.773438 13.976562 C 38.449219 13.75 39.273438 13.75 39.726562 14.125 C 40.25 14.574219 40.851562 15.773438 40.625 16.375 C 40.324219 17.125 38.976562 17.648438 37.773438 17.875 C 36.050781 18.25 33.050781 17.273438 31.101562 17.425781 C 29.601562 17.574219 28.851562 17.726562 27.050781 18.550781 C 22.324219 20.726562 6.726562 34.074219 3.5 34.074219 C 2.675781 34.074219 2.226562 33.550781 2 33.023438 C 1.699219 32.574219 1.625 31.976562 1.925781 31.148438 C 2.824219 28.824219 9.351562 22.601562 12.726562 19.226562 C 15.425781 16.523438 18.425781 12.773438 20.300781 12.175781 C 21.199219 11.875 22.175781 12.023438 22.550781 12.476562 C 23.074219 13 23.226562 14.199219 22.851562 15.175781 C 22.023438 17.199219 16.398438 21.925781 14.226562 22.601562 C 13.25 22.898438 12.273438 22.75 11.75 22.300781 C 11.226562 21.773438 10.925781 20.875 11.226562 19.824219 C 12.050781 16.601562 23.824219 4.375 27.199219 2.875 C 28.324219 2.351562 29.375 2.351562 29.898438 2.800781 C 30.425781 3.25 30.726562 4.375 30.273438 5.5 C 29.226562 8.5 17.75 17.726562 15.199219 19.074219 C 14.523438 19.449219 14.148438 19.601562 13.699219 19.523438 C 13.101562 19.375 12.273438 18.851562 11.976562 18.324219 C 11.675781 17.800781 11.601562 16.898438 11.898438 16.226562 C 12.5 15.175781 14.375 14.574219 16.476562 13.375 C 20.976562 10.824219 34.175781 2.726562 38.074219 2.648438 C 39.5 2.648438 40.699219 3.324219 41.074219 4.074219 C 41.375 4.824219 40.625 6.476562 40.175781 7.375 C 39.726562 8.125 39.273438 8.425781 38.375 9.25 C 36.574219 10.976562 31.023438 16.75 29.074219 16.976562 C 28.25 17.050781 27.574219 16.523438 27.273438 16 C 26.898438 15.476562 26.824219 14.875 26.976562 13.976562 C 27.351562 11.726562 30.949219 4.449219 32.449219 3.25 C 33.050781 2.875 33.574219 2.875 34.101562 2.949219 C 34.550781 3.023438 35.148438 3.324219 35.449219 3.773438 C 35.824219 4.375 36.050781 5.273438 35.675781 6.398438 C 34.550781 9.175781 24.875 18.023438 22.175781 19.148438 C 21.273438 19.523438 20.675781 19.523438 20.148438 19.300781 C 19.550781 18.925781 18.875 17.726562 18.875 17.125 C 18.800781 16.601562 19.023438 16.300781 19.476562 15.625 C 20.824219 13.898438 27.199219 7.523438 29.601562 7.148438 C 30.726562 6.925781 31.925781 7.601562 32.300781 8.199219 C 32.675781 8.800781 32.300781 10.601562 31.925781 10.75 C 31.398438 10.898438 28.773438 7.675781 29.074219 7.300781 C 29.226562 6.925781 31.476562 7.148438 31.925781 7.675781 C 32.375 8.273438 32.449219 9.476562 31.851562 10.601562 C 29.898438 14.351562 11.148438 28.074219 7.773438 27.925781 C 6.800781 27.925781 6.199219 27.101562 5.976562 26.5 C 5.824219 25.976562 5.898438 25.523438 6.351562 24.625 C 8.074219 21.324219 22.101562 5.726562 25.773438 3.699219 C 26.898438 3.101562 27.726562 2.949219 28.324219 3.25 C 28.851562 3.550781 29.375 4.375 29.226562 5.273438 C 28.476562 8.425781 11.824219 21.851562 8.523438 22.523438 C 7.625 22.675781 7.101562 22.375 6.648438 22 C 6.273438 21.476562 5.976562 20.648438 6.199219 19.675781 C 6.875 17.273438 13.324219 9.773438 15.875 8.800781 C 16.925781 8.351562 18.273438 8.5 18.800781 9.023438 C 19.25 9.625 19.324219 11.050781 18.800781 12.023438 C 18.050781 13.675781 14.375 14.949219 12.125 17.050781 C 9.351562 19.675781 5.675781 25.675781 3.726562 26.726562 C 2.976562 27.101562 2.300781 27.175781 1.773438 26.949219 C 1.25 26.726562 0.574219 26.050781 0.425781 25.523438 C 0.351562 24.925781 0.425781 24.476562 0.949219 23.574219 C 2.601562 20.425781 14 7.074219 17.523438 5.199219 C 18.726562 4.523438 19.773438 4.375 20.375 4.75 C 20.976562 5.199219 21.5 6.476562 21.199219 7.601562 C 20.226562 10.601562 9.125 19.898438 6.050781 20.949219 C 5 21.25 4.101562 21.101562 3.574219 20.726562 C 3.050781 20.351562 2.675781 19.601562 2.75 18.851562 C 2.75 17.875 3.574219 16.824219 4.550781 15.398438 C 6.726562 12.175781 13.851562 2.949219 16.699219 1.523438 C 17.824219 0.925781 18.949219 0.851562 19.550781 1.300781 C 20.074219 1.675781 20.449219 2.949219 20.074219 4.074219 C 19.175781 6.699219 10.398438 13.523438 7.699219 14.726562 C 6.648438 15.25 5.824219 15.324219 5.226562 15.101562 C 4.699219 14.949219 4.324219 14.425781 4.101562 13.898438 C 3.949219 13.449219 3.875 13 4.101562 12.324219 C 4.699219 10.675781 8.375 5.574219 10.25 4.824219 C 11.226562 4.375 12.5 4.601562 13.023438 5.050781 C 13.625 5.574219 13.851562 7 13.699219 7.675781 C 13.550781 8.199219 13.101562 8.574219 12.574219 8.949219 C 11.824219 9.476562 10.101562 10.074219 9.125 10.074219 C 8.523438 10.074219 7.925781 9.925781 7.476562 9.625 C 7.023438 9.324219 6.648438 8.800781 6.574219 8.199219 C 6.425781 7.601562 6.648438 6.851562 7.101562 6.101562 C 7.773438 4.898438 9.800781 2.425781 10.925781 2.351562 C 11.675781 2.351562 12.125 3.851562 12.949219 4.148438 C 13.625 4.375 15.273438 3.925781 15.351562 4.074219 C 15.351562 4.226562 13.550781 5.273438 13.101562 5.125 C 12.800781 4.976562 12.949219 3.625 12.726562 3.625 C 12.5 3.625 12.199219 5.351562 11.601562 5.726562 C 11 6.101562 9.875 6.25 9.273438 5.949219 C 8.523438 5.574219 7.625 4.074219 7.699219 3.324219 C 7.851562 2.5 9.050781 1.226562 9.875 1.074219 C 10.625 1 12.125 1.824219 12.5 2.574219 C 12.875 3.175781 12.726562 4.300781 12.351562 4.898438 C 11.976562 5.5 11 6.101562 10.324219 6.101562 C 9.648438 6.175781 8.601562 5.574219 8.226562 5.125 C 7.851562 4.675781 7.550781 4.074219 7.699219 3.550781 C 8.074219 2.574219 11.148438 0.851562 12.648438 0.476562 C 13.550781 0.25 14.601562 0.175781 15.273438 0.625 C 15.949219 1.148438 16.699219 2.574219 16.476562 3.699219 C 16.023438 5.574219 11.523438 9.476562 9.726562 9.925781 C 8.75 10.226562 7.625 9.773438 7.101562 9.25 C 6.648438 8.875 6.5 8.199219 6.5 7.675781 C 6.5 7.148438 6.648438 6.476562 7.101562 6.101562 C 7.925781 5.273438 10.925781 4.375 12.050781 4.523438 C 12.648438 4.601562 13.101562 5.050781 13.398438 5.5 C 13.699219 5.949219 14 6.398438 13.851562 7.148438 C 13.476562 8.800781 9.5 13.75 7.699219 14.726562 C 6.800781 15.25 5.824219 15.398438 5.226562 15.101562 C 4.625 14.875 4.101562 13.976562 3.949219 13.449219 C 3.875 12.925781 3.949219 12.476562 4.324219 11.875 C 5.449219 10.074219 11.148438 5.425781 13.851562 3.550781 C 15.648438 2.273438 17.449219 0.773438 18.574219 0.851562 C 19.25 0.925781 19.925781 1.523438 20.148438 2.050781 C 20.449219 2.574219 20.449219 3.175781 20.074219 4.074219 C 18.949219 7 9.648438 19 6.5 20.574219 C 5.300781 21.175781 4.175781 21.101562 3.574219 20.726562 C 3.050781 20.425781 2.75 19.449219 2.75 18.851562 C 2.75 18.324219 2.898438 18.023438 3.425781 17.425781 C 5.074219 15.175781 14.898438 5.949219 17.898438 4.824219 C 18.949219 4.375 19.851562 4.375 20.375 4.75 C 20.976562 5.199219 21.5 6.324219 21.199219 7.601562 C 20.300781 11.273438 7.398438 24.398438 4.101562 26.351562 C 3.125 26.949219 2.375 27.175781 1.773438 26.949219 C 1.175781 26.800781 0.574219 26.050781 0.425781 25.523438 C 0.351562 24.925781 0.5 24.398438 0.949219 23.574219 C 2 21.476562 6.5 16.601562 9.199219 13.976562 C 11.449219 11.800781 14.074219 9.398438 15.875 8.800781 C 16.773438 8.425781 17.824219 8.273438 18.351562 8.726562 C 18.949219 9.175781 19.398438 10.449219 19.101562 11.574219 C 18.425781 14.199219 10.851562 22 8.523438 22.523438 C 7.625 22.675781 6.726562 22.148438 6.351562 21.550781 C 6.050781 21.023438 5.976562 20.199219 6.425781 19.226562 C 7.625 16.75 15.050781 11.351562 18.875 8.5 C 21.726562 6.25 25.101562 3.175781 26.976562 3.023438 C 27.800781 2.949219 28.625 3.476562 28.925781 3.925781 C 29.226562 4.375 29.375 4.898438 29.074219 5.726562 C 27.800781 9.175781 11.75 27.25 8.226562 27.925781 C 7.324219 28.074219 6.5 27.476562 6.199219 26.949219 C 5.824219 26.425781 5.824219 25.601562 6.351562 24.625 C 8.226562 21.25 24.949219 8.351562 29.074219 7.300781 C 30.351562 6.925781 31.398438 7.226562 31.925781 7.675781 C 32.375 8.125 32.523438 9.175781 32.375 9.699219 C 32.300781 10.226562 31.851562 10.976562 31.476562 10.976562 C 30.875 10.976562 28.851562 7.824219 29.074219 7.375 C 29.375 7 31.550781 7.226562 32 7.75 C 32.449219 8.351562 32.449219 9.625 31.925781 10.75 C 30.875 13 24.351562 18.324219 22.175781 19.148438 C 21.351562 19.523438 20.675781 19.523438 20.148438 19.300781 C 19.550781 18.925781 18.726562 18.101562 18.875 17.125 C 19.175781 14.425781 30.050781 4.601562 32.449219 3.25 C 33.199219 2.875 33.574219 2.875 34.101562 2.949219 C 34.550781 3.023438 35.148438 3.324219 35.449219 3.773438 C 35.824219 4.375 35.898438 5.574219 35.601562 6.773438 C 35.074219 8.726562 31.550781 12.175781 30.875 13.976562 C 30.5 14.949219 31.023438 15.925781 30.574219 16.375 C 30.050781 16.824219 28.699219 16.976562 28.023438 16.675781 C 27.5 16.449219 26.976562 15.625 26.824219 15.023438 C 26.75 14.425781 27.050781 13.824219 27.574219 13.074219 C 28.925781 11.125 35.75 4.375 37.324219 4.601562 C 38 4.75 38.75 5.875 38.523438 6.699219 C 37.625 9.476562 17.074219 19.675781 13.699219 19.523438 C 12.726562 19.449219 12.199219 18.925781 11.976562 18.324219 C 11.675781 17.726562 11.75 16.824219 12.199219 15.773438 C 13.398438 13.449219 19.550781 8.726562 22.625 6.324219 C 24.800781 4.601562 27.125 2.425781 28.550781 2.351562 C 29.226562 2.273438 29.898438 2.648438 30.199219 3.175781 C 30.574219 3.699219 30.648438 4.449219 30.273438 5.5 C 29.074219 8.648438 17.226562 20.574219 14.675781 22.300781 C 14 22.75 13.699219 22.898438 13.25 22.824219 C 12.648438 22.824219 11.75 22.375 11.449219 21.851562 C 11.074219 21.398438 11 20.425781 11.226562 19.824219 C 11.375 19.300781 11.675781 19.074219 12.273438 18.476562 C 13.773438 17.050781 18.800781 12.324219 20.75 12.023438 C 21.648438 11.875 22.550781 12.324219 22.925781 12.851562 C 23.226562 13.375 23.226562 14.273438 22.851562 15.175781 C 22.023438 16.976562 18.050781 19.148438 15.425781 21.773438 C 12.125 25.074219 7.175781 32.5 4.925781 33.699219 C 4.175781 34.148438 3.574219 34.226562 3.050781 34 C 2.523438 33.699219 1.773438 32.726562 1.699219 32.125 C 1.699219 31.523438 1.925781 31.148438 2.523438 30.398438 C 5 27.625 20.375 16.75 25.625 14.351562 C 27.949219 13.300781 29.074219 13.148438 31.101562 13 C 33.5 12.851562 38.898438 13.300781 38.976562 13.824219 C 39.050781 14.125 36.648438 14.949219 36.648438 14.949219 C 36.648438 15.023438 38.601562 13.675781 39.273438 13.898438 C 39.949219 14.125 40.699219 15.550781 40.625 16.375 C 40.476562 17.351562 39.351562 18.476562 37.925781 19.375 C 34.773438 21.25 26.226562 22.148438 20.976562 23.949219 C 16.023438 25.675781 9.800781 30.101562 7.101562 29.949219 C 5.976562 29.875 4.925781 29.199219 4.699219 28.601562 C 4.476562 27.925781 4.925781 26.875 5.824219 26.050781 C 8 23.800781 17.375 21.476562 22.625 19.074219 C 27.425781 16.824219 33.273438 12.550781 36.125 12.101562 C 37.476562 11.875 39.125 12.476562 39.125 12.550781 C 39.050781 12.699219 35.898438 12.773438 35.898438 12.699219 C 35.898438 12.625 37.925781 11.875 38.601562 12.101562 C 39.199219 12.324219 39.875 13.226562 40.023438 13.824219 C 40.175781 14.351562 40.101562 14.949219 39.800781 15.476562 C 39.351562 16.449219 38 17.726562 36.800781 18.324219 C 35.523438 19 33.648438 18.851562 32.226562 19.375 C 30.800781 19.976562 29.675781 21.625 28.101562 21.851562 C 26.375 22.148438 22.925781 21.550781 22.175781 20.5 C 21.648438 19.601562 21.800781 17.949219 22.773438 16.675781 C 25.398438 13.226562 43.175781 5.949219 46.773438 5.875 C 47.824219 5.875 48.5 6.25 48.800781 6.699219 C 49.175781 7.148438 49.398438 7.75 49.023438 8.5 C 47.375 11.800781 24.425781 26.351562 19.773438 27.023438 C 18.425781 27.175781 17.375 26.800781 17 26.199219 C 16.625 25.601562 16.773438 24.398438 17.523438 23.351562 C 19.175781 21.023438 28.851562 15.476562 31.476562 15.25 C 32.523438 15.101562 33.273438 15.476562 33.648438 16 C 34.023438 16.449219 34.25 17.351562 33.726562 18.25 C 32 21.851562 11.898438 36.550781 8.074219 36.925781 C 7.101562 37.074219 6.351562 36.550781 6.050781 36.023438 C 5.75 35.5 5.75 34.824219 6.199219 33.773438 C 7.851562 30.175781 23.75 13.449219 27.273438 12.625 C 28.324219 12.398438 29.148438 12.851562 29.523438 13.375 C 29.898438 13.976562 29.824219 15.101562 29.226562 16.074219 C 28.023438 18.175781 22.25 20.574219 18.800781 23.574219 C 14.898438 26.949219 9.5 33.773438 7.25 35.726562 C 6.351562 36.476562 5.976562 37 5.300781 37 C 4.550781 37 2.75 35.949219 2.824219 35.425781 C 2.898438 34.375 8.675781 33.699219 11.824219 32.273438 C 15.351562 30.625 20.601562 25.824219 22.925781 25.523438 C 23.898438 25.449219 24.648438 25.824219 25.175781 26.351562 C 25.625 26.875 26 27.925781 25.773438 28.675781 C 25.398438 29.800781 23.300781 31 21.800781 31.898438 C 20.148438 32.949219 17.375 34.449219 16.023438 34.449219 C 15.273438 34.449219 14.75 34.226562 14.375 33.773438 C 13.925781 33.25 13.398438 32.351562 13.550781 31.523438 C 13.851562 30.398438 15.574219 29.050781 16.925781 27.851562 C 18.800781 26.273438 22.25 23.199219 23.976562 23.050781 C 25.023438 22.976562 26.148438 23.648438 26.523438 24.324219 C 26.898438 25 26.824219 26.050781 26.226562 27.101562 C 24.875 29.425781 16.925781 33.773438 13.699219 35.648438 C 11.824219 36.773438 10.25 38.125 9.050781 38.050781 C 8.226562 37.976562 7.398438 37.375 7.023438 36.699219 C 6.648438 36.101562 6.425781 35.199219 6.949219 34.300781 C 8.601562 31.375 24.800781 22.074219 28.101562 21.925781 C 29.148438 21.851562 29.75 22.300781 30.125 22.824219 C 30.5 23.351562 30.726562 24.175781 30.5 25.074219 C 29.898438 27.101562 24.425781 32.726562 22.699219 33.773438 C 22.023438 34.148438 21.574219 34.226562 21.125 34.148438 C 20.601562 34.074219 20 33.773438 19.625 33.398438 C 19.324219 32.949219 19.101562 32.351562 19.101562 31.824219 C 19.101562 31.300781 19.175781 30.925781 19.699219 30.25 C 21.351562 28.226562 31.773438 22.375 34.925781 20.425781 C 36.425781 19.523438 37.25 18.773438 38.148438 18.625 C 38.675781 18.550781 39.199219 18.625 39.648438 18.851562 C 40.101562 19.148438 40.699219 19.898438 40.699219 20.5 C 40.699219 21.101562 40.398438 21.851562 39.574219 22.601562 C 36.648438 25.148438 18.351562 31.976562 14.148438 31.976562 C 12.800781 32.050781 11.898438 31.75 11.449219 31.074219 C 11 30.476562 10.851562 29.125 11.375 28.226562 C 12.273438 26.726562 16.324219 25.523438 19.175781 24.324219 C 22.550781 22.898438 27.273438 21.324219 30.351562 20.425781 C 32.449219 19.824219 34.023438 19.148438 35.675781 19 C 36.949219 18.925781 38.523438 18.851562 39.351562 19.300781 C 39.875 19.523438 40.25 20.050781 40.398438 20.5 C 40.625 20.949219 40.699219 21.625 40.398438 22.148438 C 40.101562 22.75 38.226562 23.648438 38.226562 23.648438 " clip-rule="nonzero"/></clipPath><clipPath id="0486e9eab8"><rect x="0" width="50" y="0" height="40"/></clipPath><clipPath id="1f94324b9e"><path d="M 134.164062 73.75 L 138.464844 73.75 L 138.464844 77.398438 L 134.164062 77.398438 Z M 134.164062 73.75 " clip-rule="nonzero"/></clipPath><clipPath id="73a1d138a6"><path d="M 138.449219 75 C 136.5 78.074219 134.773438 77.476562 134.324219 76.875 C 133.949219 76.199219 134.324219 74.398438 134.925781 73.949219 C 135.449219 73.5 137.851562 74.101562 137.851562 74.101562 " clip-rule="nonzero"/></clipPath><clipPath id="0f063a6ad4"><path d="M 0.164062 0.75 L 4.464844 0.75 L 4.464844 4.398438 L 0.164062 4.398438 Z M 0.164062 0.75 " clip-rule="nonzero"/></clipPath><clipPath id="720ada9059"><path d="M 4.449219 2 C 2.5 5.074219 0.773438 4.476562 0.324219 3.875 C -0.0507812 3.199219 0.324219 1.398438 0.925781 0.949219 C 1.449219 0.5 3.851562 1.101562 3.851562 1.101562 " clip-rule="nonzero"/></clipPath><clipPath id="1bb83cc24c"><rect x="0" width="5" y="0" height="5"/></clipPath><clipPath id="1856c5e898"><path d="M 133.832031 71.128906 L 146.449219 71.128906 L 146.449219 79.769531 L 133.832031 79.769531 Z M 133.832031 71.128906 " clip-rule="nonzero"/></clipPath><clipPath id="14760d3228"><path d="M 138.449219 74.398438 C 146.25 76.125 146.476562 77.476562 146.25 78.148438 C 145.949219 78.898438 144.976562 79.648438 144 79.726562 C 142.125 79.875 137.175781 75.449219 135.898438 75.675781 C 135.449219 75.75 135.375 76.5 135.074219 76.5 C 134.773438 76.5 134.175781 75.675781 134.023438 75.226562 C 133.800781 74.699219 133.800781 74.023438 134.023438 73.5 C 134.324219 72.898438 135.148438 72.226562 135.75 72.074219 C 136.273438 71.925781 137.023438 72 137.476562 72.300781 C 138.074219 72.75 138.75 74.175781 138.601562 74.925781 C 138.523438 75.601562 137.773438 76.425781 137.175781 76.648438 C 136.5 76.875 135.449219 76.800781 134.925781 76.425781 C 134.324219 75.898438 133.800781 74.398438 134.023438 73.648438 C 134.175781 72.976562 135 72.226562 135.675781 72.074219 C 136.273438 71.925781 137.324219 72.148438 137.851562 72.601562 C 138.375 73.050781 138.75 74.023438 138.675781 74.699219 C 138.601562 75.375 138 76.273438 137.398438 76.574219 C 136.800781 76.875 135.675781 76.875 135.074219 76.5 C 134.476562 76.125 133.800781 74.773438 133.875 74.023438 C 133.949219 73.351562 134.625 72.523438 135.226562 72.226562 C 135.824219 71.925781 137.101562 72.601562 137.476562 72.300781 C 137.699219 72.074219 137.324219 71.324219 137.625 71.175781 C 138.449219 70.800781 144.898438 74.550781 145.949219 75.976562 C 146.398438 76.574219 146.476562 77.101562 146.398438 77.625 C 146.324219 78.148438 146.023438 78.75 145.574219 79.125 C 144.898438 79.574219 143.476562 79.726562 142.199219 79.648438 C 140.550781 79.574219 137.398438 79.199219 136.5 78.226562 C 135.898438 77.550781 135.824219 76.273438 136.199219 75.601562 C 136.5 75 138.449219 74.398438 138.449219 74.398438 " clip-rule="nonzero"/></clipPath><clipPath id="0647814f3c"><path d="M 0.832031 0.128906 L 13.449219 0.128906 L 13.449219 8.769531 L 0.832031 8.769531 Z M 0.832031 0.128906 " clip-rule="nonzero"/></clipPath><clipPath id="9de3ce9088"><path d="M 5.449219 3.398438 C 13.25 5.125 13.476562 6.476562 13.25 7.148438 C 12.949219 7.898438 11.976562 8.648438 11 8.726562 C 9.125 8.875 4.175781 4.449219 2.898438 4.675781 C 2.449219 4.75 2.375 5.5 2.074219 5.5 C 1.773438 5.5 1.175781 4.675781 1.023438 4.226562 C 0.800781 3.699219 0.800781 3.023438 1.023438 2.5 C 1.324219 1.898438 2.148438 1.226562 2.75 1.074219 C 3.273438 0.925781 4.023438 1 4.476562 1.300781 C 5.074219 1.75 5.75 3.175781 5.601562 3.925781 C 5.523438 4.601562 4.773438 5.425781 4.175781 5.648438 C 3.5 5.875 2.449219 5.800781 1.925781 5.425781 C 1.324219 4.898438 0.800781 3.398438 1.023438 2.648438 C 1.175781 1.976562 2 1.226562 2.675781 1.074219 C 3.273438 0.925781 4.324219 1.148438 4.851562 1.601562 C 5.375 2.050781 5.75 3.023438 5.675781 3.699219 C 5.601562 4.375 5 5.273438 4.398438 5.574219 C 3.800781 5.875 2.675781 5.875 2.074219 5.5 C 1.476562 5.125 0.800781 3.773438 0.875 3.023438 C 0.949219 2.351562 1.625 1.523438 2.226562 1.226562 C 2.824219 0.925781 4.101562 1.601562 4.476562 1.300781 C 4.699219 1.074219 4.324219 0.324219 4.625 0.175781 C 5.449219 -0.199219 11.898438 3.550781 12.949219 4.976562 C 13.398438 5.574219 13.476562 6.101562 13.398438 6.625 C 13.324219 7.148438 13.023438 7.75 12.574219 8.125 C 11.898438 8.574219 10.476562 8.726562 9.199219 8.648438 C 7.550781 8.574219 4.398438 8.199219 3.5 7.226562 C 2.898438 6.550781 2.824219 5.273438 3.199219 4.601562 C 3.5 4 5.449219 3.398438 5.449219 3.398438 " clip-rule="nonzero"/></clipPath><clipPath id="bdc4789f83"><rect x="0" width="14" y="0" height="9"/></clipPath><clipPath id="120930121a"><path d="M 134.5 74.726562 L 138.761719 74.726562 L 138.761719 78.371094 L 134.5 78.371094 Z M 134.5 74.726562 " clip-rule="nonzero"/></clipPath><clipPath id="887fe79059"><path d="M 138.75 75.976562 C 136.875 79.050781 135.074219 78.449219 134.699219 77.851562 C 134.324219 77.175781 134.625 75.375 135.226562 74.925781 C 135.824219 74.476562 138.226562 75.074219 138.226562 75.074219 " clip-rule="nonzero"/></clipPath><clipPath id="5675c5c3e9"><path d="M 0.5 0.726562 L 4.761719 0.726562 L 4.761719 4.371094 L 0.5 4.371094 Z M 0.5 0.726562 " clip-rule="nonzero"/></clipPath><clipPath id="1e83048472"><path d="M 4.75 1.976562 C 2.875 5.050781 1.074219 4.449219 0.699219 3.851562 C 0.324219 3.175781 0.625 1.375 1.226562 0.925781 C 1.824219 0.476562 4.226562 1.074219 4.226562 1.074219 " clip-rule="nonzero"/></clipPath><clipPath id="5f47a179b7"><rect x="0" width="5" y="0" height="5"/></clipPath><clipPath id="9b403b4096"><path d="M 135.140625 75.363281 L 139.4375 75.363281 L 139.4375 78.972656 L 135.140625 78.972656 Z M 135.140625 75.363281 " clip-rule="nonzero"/></clipPath><clipPath id="404645fd64"><path d="M 139.425781 76.648438 C 137.476562 79.648438 135.675781 79.125 135.300781 78.449219 C 134.925781 77.851562 135.300781 75.976562 135.824219 75.523438 C 136.425781 75.074219 138.824219 75.75 138.824219 75.75 " clip-rule="nonzero"/></clipPath><clipPath id="4f83cf5535"><path d="M 0.140625 0.363281 L 4.4375 0.363281 L 4.4375 3.972656 L 0.140625 3.972656 Z M 0.140625 0.363281 " clip-rule="nonzero"/></clipPath><clipPath id="43c6a64702"><path d="M 4.425781 1.648438 C 2.476562 4.648438 0.675781 4.125 0.300781 3.449219 C -0.0742188 2.851562 0.300781 0.976562 0.824219 0.523438 C 1.425781 0.0742188 3.824219 0.75 3.824219 0.75 " clip-rule="nonzero"/></clipPath><clipPath id="99322fdd42"><rect x="0" width="5" y="0" height="4"/></clipPath><clipPath id="c763de3f55"><path d="M 123.605469 46.703125 L 171.386719 46.703125 L 171.386719 75.53125 L 123.605469 75.53125 Z M 123.605469 46.703125 " clip-rule="nonzero"/></clipPath><clipPath id="21303f5ef2"><path d="M 133.199219 64.800781 C 152.023438 71.023438 153 72.226562 153.074219 73.125 C 153.148438 73.800781 152.550781 74.699219 152.023438 75 C 151.574219 75.375 150.898438 75.523438 150.375 75.375 C 149.699219 75.148438 149.175781 73.726562 148.5 73.5 C 147.75 73.351562 147.300781 74.175781 146.101562 74.25 C 142.5 74.398438 126.300781 71.699219 124.273438 69.449219 C 123.601562 68.699219 123.601562 67.648438 123.898438 67.050781 C 124.199219 66.449219 125.023438 66 126.074219 65.851562 C 128.324219 65.550781 133.199219 67.875 137.101562 68.625 C 141.449219 69.449219 148.800781 68.925781 151.050781 70.351562 C 152.101562 71.023438 152.699219 72.148438 152.625 72.824219 C 152.550781 73.5 151.875 74.324219 150.824219 74.625 C 148.125 75.449219 135.449219 72.976562 133.050781 71.023438 C 132.074219 70.199219 131.699219 68.925781 131.925781 68.25 C 132.226562 67.574219 133.273438 66.976562 134.550781 66.824219 C 137.773438 66.375 149.550781 69.375 152.023438 71.101562 C 153 71.773438 153.449219 72.523438 153.449219 73.199219 C 153.449219 73.949219 152.550781 75 151.949219 75.300781 C 151.5 75.523438 151.125 75.449219 150.375 75.226562 C 147.898438 74.625 137.25 69.449219 135.523438 67.199219 C 134.851562 66.300781 134.699219 65.324219 134.925781 64.726562 C 135.226562 64.050781 135.898438 63.523438 137.023438 63.300781 C 140.476562 62.625 155.925781 66.148438 158.925781 67.949219 C 159.976562 68.550781 160.425781 69.148438 160.5 69.75 C 160.648438 70.351562 160.273438 71.175781 159.824219 71.550781 C 159.375 71.925781 158.851562 72.074219 157.949219 72 C 154.425781 71.773438 137.398438 65.476562 134.699219 63.375 C 133.949219 62.851562 133.648438 62.398438 133.648438 61.875 C 133.574219 61.199219 133.875 60.226562 134.699219 59.851562 C 137.625 58.5 158.324219 64.5 161.398438 66.75 C 162.300781 67.425781 162.601562 68.101562 162.601562 68.699219 C 162.675781 69.148438 162.375 69.675781 162.074219 69.976562 C 161.625 70.351562 161.175781 70.648438 160.273438 70.574219 C 156.601562 70.425781 137.324219 62.023438 134.25 59.851562 C 133.425781 59.324219 133.125 59.023438 132.976562 58.5 C 132.75 58.125 132.75 57.523438 132.976562 57.148438 C 133.351562 56.625 134.101562 56.101562 135.375 55.949219 C 139.273438 55.648438 157.351562 61.125 160.574219 63.449219 C 161.625 64.125 162.074219 64.875 162.074219 65.550781 C 162.074219 66.148438 161.476562 66.824219 161.023438 67.125 C 160.648438 67.351562 160.425781 67.351562 159.675781 67.273438 C 156.226562 66.898438 134.324219 59.550781 131.324219 56.625 C 130.425781 55.726562 130.050781 54.75 130.273438 54.148438 C 130.5 53.550781 131.398438 52.949219 132.675781 52.875 C 136.125 52.5 151.574219 57.449219 154.125 59.324219 C 154.875 59.851562 155.101562 60.375 155.25 60.898438 C 155.324219 61.425781 155.175781 62.023438 154.875 62.324219 C 154.425781 62.851562 153.601562 63.226562 152.625 63.148438 C 150.675781 63.074219 147.226562 60.074219 144.226562 58.726562 C 140.925781 57.300781 135.148438 56.476562 133.726562 54.898438 C 133.050781 54.226562 132.824219 53.175781 133.050781 52.574219 C 133.273438 51.898438 133.875 51.226562 135 51.074219 C 139.425781 50.324219 166.199219 60.449219 169.875 62.773438 C 170.699219 63.300781 171.074219 63.601562 171.226562 64.125 C 171.375 64.648438 171.226562 65.550781 170.851562 65.925781 C 170.476562 66.375 169.875 66.601562 168.675781 66.601562 C 164.101562 66.523438 137.925781 57.601562 134.851562 54.824219 C 134.175781 54.226562 134.023438 53.699219 134.101562 53.175781 C 134.175781 52.574219 134.699219 51.601562 135.449219 51.375 C 136.800781 50.851562 139.273438 51.976562 142.199219 52.800781 C 147.898438 54.226562 163.949219 58.574219 166.875 60.523438 C 167.699219 61.050781 168 61.5 168.148438 62.023438 C 168.226562 62.550781 168 63.449219 167.625 63.898438 C 167.25 64.351562 166.726562 64.574219 165.824219 64.574219 C 162.976562 64.351562 153.449219 58.648438 149.175781 55.949219 C 146.25 54 143.023438 51.976562 142.050781 50.398438 C 141.601562 49.648438 141.449219 48.976562 141.601562 48.375 C 141.675781 47.925781 142.125 47.398438 142.5 47.101562 C 142.949219 46.875 143.324219 46.648438 144.074219 46.726562 C 146.398438 47.101562 153.75 52.648438 158.023438 54.75 C 161.398438 56.476562 165.898438 57.675781 167.476562 58.800781 C 168.074219 59.25 168.375 59.550781 168.601562 60 C 168.75 60.449219 168.824219 61.125 168.675781 61.574219 C 168.449219 62.101562 168.074219 62.625 167.625 62.851562 C 167.175781 63.074219 166.726562 63.300781 165.976562 63.074219 C 163.949219 62.476562 156.601562 56.398438 155.398438 54 C 154.875 53.023438 154.949219 51.976562 155.175781 51.300781 C 155.398438 50.851562 156 50.398438 156.523438 50.25 C 156.976562 50.101562 157.5 50.023438 158.175781 50.324219 C 160.050781 51 164.625 56.25 166.648438 57.226562 C 167.625 57.675781 168.523438 57.148438 169.050781 57.601562 C 169.648438 58.050781 170.023438 59.101562 170.023438 59.773438 C 170.023438 60.300781 169.875 60.898438 169.425781 61.273438 C 168.824219 61.726562 167.175781 62.175781 166.425781 61.875 C 165.75 61.574219 165.148438 60.675781 165.074219 60 C 164.925781 59.25 165.375 58.199219 165.824219 57.75 C 166.199219 57.375 166.726562 57.074219 167.324219 57.074219 C 167.925781 57.074219 169.050781 57.449219 169.5 57.976562 C 169.949219 58.648438 170.023438 60.375 169.574219 61.050781 C 169.125 61.726562 167.925781 62.175781 166.726562 61.949219 C 164.101562 61.574219 156.75 55.875 155.398438 54 C 154.949219 53.398438 154.875 52.949219 154.875 52.425781 C 154.875 51.898438 155.101562 51.226562 155.550781 50.851562 C 156 50.476562 156.898438 50.101562 157.648438 50.175781 C 158.476562 50.25 159.300781 50.773438 160.425781 51.601562 C 162.449219 53.101562 167.324219 57.75 168.300781 59.476562 C 168.675781 60.148438 168.824219 60.523438 168.75 61.050781 C 168.675781 61.648438 168.226562 62.550781 167.625 62.851562 C 166.800781 63.226562 165.449219 62.773438 163.800781 62.25 C 160.351562 61.125 152.550781 57 148.648438 54.824219 C 146.101562 53.398438 143.550781 51.898438 142.425781 50.773438 C 141.976562 50.324219 141.675781 49.949219 141.601562 49.5 C 141.449219 48.976562 141.523438 48.300781 141.824219 47.925781 C 142.199219 47.324219 143.175781 46.648438 144.148438 46.800781 C 145.949219 46.949219 148.351562 50.476562 151.273438 52.425781 C 155.476562 55.125 165.375 58.726562 167.324219 60.75 C 168 61.425781 168.148438 61.949219 168.148438 62.550781 C 168.226562 63 168 63.601562 167.625 63.898438 C 167.023438 64.351562 165.824219 64.351562 164.175781 64.125 C 159.074219 63.523438 137.550781 57.824219 134.851562 54.824219 C 134.101562 54 134.023438 52.800781 134.324219 52.273438 C 134.699219 51.675781 135.601562 51.375 136.875 51.449219 C 141.675781 51.449219 166.273438 60.523438 169.875 62.773438 C 170.699219 63.300781 171.074219 63.601562 171.226562 64.125 C 171.375 64.648438 171.226562 65.550781 170.851562 65.925781 C 170.476562 66.375 169.875 66.601562 168.675781 66.601562 C 164.023438 66.523438 136.800781 58.125 133.726562 54.898438 C 132.898438 54.074219 132.824219 53.175781 133.050781 52.574219 C 133.273438 51.898438 134.023438 51.226562 135 51.074219 C 137.175781 50.773438 142.648438 53.550781 146.023438 55.050781 C 148.949219 56.324219 152.773438 58.273438 154.125 59.324219 C 154.648438 59.773438 154.949219 60 155.101562 60.449219 C 155.25 60.976562 155.175781 61.875 154.875 62.324219 C 154.425781 62.851562 153.75 63.148438 152.625 63.148438 C 149.175781 63.300781 133.875 58.949219 131.324219 56.625 C 130.425781 55.800781 130.050781 54.75 130.273438 54.148438 C 130.5 53.550781 131.398438 52.949219 132.675781 52.875 C 136.800781 52.574219 157.949219 60.898438 161.023438 63.601562 C 161.851562 64.351562 162.148438 64.949219 162.074219 65.550781 C 162.074219 66.148438 161.476562 66.824219 161.023438 67.125 C 160.648438 67.351562 160.425781 67.351562 159.675781 67.273438 C 156.375 67.050781 136.574219 62.25 133.875 59.625 C 132.976562 58.800781 132.75 57.75 132.976562 57.148438 C 133.199219 56.550781 134.101562 56.023438 135.375 55.949219 C 139.125 55.800781 154.800781 63.523438 158.851562 65.398438 C 160.351562 66.074219 161.25 66.300781 161.851562 66.976562 C 162.300781 67.5 162.601562 68.175781 162.601562 68.699219 C 162.601562 69.148438 162.375 69.675781 162.074219 69.976562 C 161.625 70.351562 161.175781 70.574219 160.273438 70.574219 C 157.199219 70.648438 145.5 66.898438 140.773438 65.476562 C 138 64.574219 135.300781 64.125 134.324219 63.148438 C 133.800781 62.625 133.574219 61.949219 133.648438 61.351562 C 133.726562 60.824219 134.101562 60.074219 134.699219 59.851562 C 135.675781 59.398438 137.476562 60.148438 139.648438 60.75 C 144.074219 61.949219 156.976562 66.226562 159.449219 68.175781 C 160.199219 68.699219 160.425781 69.148438 160.5 69.75 C 160.574219 70.351562 160.273438 71.175781 159.824219 71.550781 C 159.375 71.925781 158.925781 72 157.949219 72 C 154.574219 72.074219 138.601562 69.601562 135.898438 67.5 C 135 66.824219 134.625 65.925781 134.773438 65.25 C 134.925781 64.5 135.898438 63.449219 137.023438 63.300781 C 139.875 63 150.523438 69.375 152.550781 71.398438 C 153.226562 72.074219 153.523438 72.601562 153.449219 73.199219 C 153.375 73.875 152.925781 74.925781 151.949219 75.300781 C 149.25 76.273438 135.523438 73.050781 133.050781 71.023438 C 132.074219 70.199219 131.699219 68.925781 131.925781 68.25 C 132.226562 67.574219 133.273438 66.976562 134.550781 66.824219 C 137.699219 66.375 149.324219 68.773438 151.574219 70.574219 C 152.398438 71.25 152.699219 72.148438 152.625 72.824219 C 152.476562 73.5 151.875 74.324219 150.824219 74.625 C 148.425781 75.523438 140.851562 73.800781 136.273438 72.824219 C 132 72 125.625 71.023438 124.273438 69.449219 C 123.601562 68.699219 123.601562 67.648438 123.898438 67.050781 C 124.199219 66.449219 124.949219 66.074219 126.074219 65.851562 C 129.449219 65.324219 143.101562 68.851562 147.375 69.75 C 149.175781 70.125 150.300781 70.199219 151.273438 70.726562 C 152.101562 71.175781 152.851562 71.925781 153.074219 72.601562 C 153.226562 73.199219 152.925781 74.175781 152.476562 74.699219 C 152.023438 75.148438 151.050781 75.523438 150.375 75.375 C 149.699219 75.226562 148.800781 73.5 148.5 73.5 C 148.351562 73.574219 148.425781 73.949219 148.199219 74.023438 C 146.925781 74.550781 133.949219 70.425781 131.773438 69.074219 C 131.101562 68.625 130.800781 68.324219 130.648438 67.875 C 130.425781 67.425781 130.425781 66.75 130.574219 66.300781 C 130.726562 65.773438 131.175781 65.25 131.625 65.023438 C 132.074219 64.800781 133.199219 64.800781 133.199219 64.800781 " clip-rule="nonzero"/></clipPath><clipPath id="5e336d87e2"><path d="M 0.605469 0.703125 L 48.386719 0.703125 L 48.386719 29.53125 L 0.605469 29.53125 Z M 0.605469 0.703125 " clip-rule="nonzero"/></clipPath><clipPath id="b5b5a6671f"><path d="M 10.199219 18.800781 C 29.023438 25.023438 30 26.226562 30.074219 27.125 C 30.148438 27.800781 29.550781 28.699219 29.023438 29 C 28.574219 29.375 27.898438 29.523438 27.375 29.375 C 26.699219 29.148438 26.175781 27.726562 25.5 27.5 C 24.75 27.351562 24.300781 28.175781 23.101562 28.25 C 19.5 28.398438 3.300781 25.699219 1.273438 23.449219 C 0.601562 22.699219 0.601562 21.648438 0.898438 21.050781 C 1.199219 20.449219 2.023438 20 3.074219 19.851562 C 5.324219 19.550781 10.199219 21.875 14.101562 22.625 C 18.449219 23.449219 25.800781 22.925781 28.050781 24.351562 C 29.101562 25.023438 29.699219 26.148438 29.625 26.824219 C 29.550781 27.5 28.875 28.324219 27.824219 28.625 C 25.125 29.449219 12.449219 26.976562 10.050781 25.023438 C 9.074219 24.199219 8.699219 22.925781 8.925781 22.25 C 9.226562 21.574219 10.273438 20.976562 11.550781 20.824219 C 14.773438 20.375 26.550781 23.375 29.023438 25.101562 C 30 25.773438 30.449219 26.523438 30.449219 27.199219 C 30.449219 27.949219 29.550781 29 28.949219 29.300781 C 28.5 29.523438 28.125 29.449219 27.375 29.226562 C 24.898438 28.625 14.25 23.449219 12.523438 21.199219 C 11.851562 20.300781 11.699219 19.324219 11.925781 18.726562 C 12.226562 18.050781 12.898438 17.523438 14.023438 17.300781 C 17.476562 16.625 32.925781 20.148438 35.925781 21.949219 C 36.976562 22.550781 37.425781 23.148438 37.5 23.75 C 37.648438 24.351562 37.273438 25.175781 36.824219 25.550781 C 36.375 25.925781 35.851562 26.074219 34.949219 26 C 31.425781 25.773438 14.398438 19.476562 11.699219 17.375 C 10.949219 16.851562 10.648438 16.398438 10.648438 15.875 C 10.574219 15.199219 10.875 14.226562 11.699219 13.851562 C 14.625 12.5 35.324219 18.5 38.398438 20.75 C 39.300781 21.425781 39.601562 22.101562 39.601562 22.699219 C 39.675781 23.148438 39.375 23.675781 39.074219 23.976562 C 38.625 24.351562 38.175781 24.648438 37.273438 24.574219 C 33.601562 24.425781 14.324219 16.023438 11.25 13.851562 C 10.425781 13.324219 10.125 13.023438 9.976562 12.5 C 9.75 12.125 9.75 11.523438 9.976562 11.148438 C 10.351562 10.625 11.101562 10.101562 12.375 9.949219 C 16.273438 9.648438 34.351562 15.125 37.574219 17.449219 C 38.625 18.125 39.074219 18.875 39.074219 19.550781 C 39.074219 20.148438 38.476562 20.824219 38.023438 21.125 C 37.648438 21.351562 37.425781 21.351562 36.675781 21.273438 C 33.226562 20.898438 11.324219 13.550781 8.324219 10.625 C 7.425781 9.726562 7.050781 8.75 7.273438 8.148438 C 7.5 7.550781 8.398438 6.949219 9.675781 6.875 C 13.125 6.5 28.574219 11.449219 31.125 13.324219 C 31.875 13.851562 32.101562 14.375 32.25 14.898438 C 32.324219 15.425781 32.175781 16.023438 31.875 16.324219 C 31.425781 16.851562 30.601562 17.226562 29.625 17.148438 C 27.675781 17.074219 24.226562 14.074219 21.226562 12.726562 C 17.925781 11.300781 12.148438 10.476562 10.726562 8.898438 C 10.050781 8.226562 9.824219 7.175781 10.050781 6.574219 C 10.273438 5.898438 10.875 5.226562 12 5.074219 C 16.425781 4.324219 43.199219 14.449219 46.875 16.773438 C 47.699219 17.300781 48.074219 17.601562 48.226562 18.125 C 48.375 18.648438 48.226562 19.550781 47.851562 19.925781 C 47.476562 20.375 46.875 20.601562 45.675781 20.601562 C 41.101562 20.523438 14.925781 11.601562 11.851562 8.824219 C 11.175781 8.226562 11.023438 7.699219 11.101562 7.175781 C 11.175781 6.574219 11.699219 5.601562 12.449219 5.375 C 13.800781 4.851562 16.273438 5.976562 19.199219 6.800781 C 24.898438 8.226562 40.949219 12.574219 43.875 14.523438 C 44.699219 15.050781 45 15.5 45.148438 16.023438 C 45.226562 16.550781 45 17.449219 44.625 17.898438 C 44.25 18.351562 43.726562 18.574219 42.824219 18.574219 C 39.976562 18.351562 30.449219 12.648438 26.175781 9.949219 C 23.25 8 20.023438 5.976562 19.050781 4.398438 C 18.601562 3.648438 18.449219 2.976562 18.601562 2.375 C 18.675781 1.925781 19.125 1.398438 19.5 1.101562 C 19.949219 0.875 20.324219 0.648438 21.074219 0.726562 C 23.398438 1.101562 30.75 6.648438 35.023438 8.75 C 38.398438 10.476562 42.898438 11.675781 44.476562 12.800781 C 45.074219 13.25 45.375 13.550781 45.601562 14 C 45.75 14.449219 45.824219 15.125 45.675781 15.574219 C 45.449219 16.101562 45.074219 16.625 44.625 16.851562 C 44.175781 17.074219 43.726562 17.300781 42.976562 17.074219 C 40.949219 16.476562 33.601562 10.398438 32.398438 8 C 31.875 7.023438 31.949219 5.976562 32.175781 5.300781 C 32.398438 4.851562 33 4.398438 33.523438 4.25 C 33.976562 4.101562 34.5 4.023438 35.175781 4.324219 C 37.050781 5 41.625 10.25 43.648438 11.226562 C 44.625 11.675781 45.523438 11.148438 46.050781 11.601562 C 46.648438 12.050781 47.023438 13.101562 47.023438 13.773438 C 47.023438 14.300781 46.875 14.898438 46.425781 15.273438 C 45.824219 15.726562 44.175781 16.175781 43.425781 15.875 C 42.75 15.574219 42.148438 14.675781 42.074219 14 C 41.925781 13.25 42.375 12.199219 42.824219 11.75 C 43.199219 11.375 43.726562 11.074219 44.324219 11.074219 C 44.925781 11.074219 46.050781 11.449219 46.5 11.976562 C 46.949219 12.648438 47.023438 14.375 46.574219 15.050781 C 46.125 15.726562 44.925781 16.175781 43.726562 15.949219 C 41.101562 15.574219 33.75 9.875 32.398438 8 C 31.949219 7.398438 31.875 6.949219 31.875 6.425781 C 31.875 5.898438 32.101562 5.226562 32.550781 4.851562 C 33 4.476562 33.898438 4.101562 34.648438 4.175781 C 35.476562 4.25 36.300781 4.773438 37.425781 5.601562 C 39.449219 7.101562 44.324219 11.75 45.300781 13.476562 C 45.675781 14.148438 45.824219 14.523438 45.75 15.050781 C 45.675781 15.648438 45.226562 16.550781 44.625 16.851562 C 43.800781 17.226562 42.449219 16.773438 40.800781 16.25 C 37.351562 15.125 29.550781 11 25.648438 8.824219 C 23.101562 7.398438 20.550781 5.898438 19.425781 4.773438 C 18.976562 4.324219 18.675781 3.949219 18.601562 3.5 C 18.449219 2.976562 18.523438 2.300781 18.824219 1.925781 C 19.199219 1.324219 20.175781 0.648438 21.148438 0.800781 C 22.949219 0.949219 25.351562 4.476562 28.273438 6.425781 C 32.476562 9.125 42.375 12.726562 44.324219 14.75 C 45 15.425781 45.148438 15.949219 45.148438 16.550781 C 45.226562 17 45 17.601562 44.625 17.898438 C 44.023438 18.351562 42.824219 18.351562 41.175781 18.125 C 36.074219 17.523438 14.550781 11.824219 11.851562 8.824219 C 11.101562 8 11.023438 6.800781 11.324219 6.273438 C 11.699219 5.675781 12.601562 5.375 13.875 5.449219 C 18.675781 5.449219 43.273438 14.523438 46.875 16.773438 C 47.699219 17.300781 48.074219 17.601562 48.226562 18.125 C 48.375 18.648438 48.226562 19.550781 47.851562 19.925781 C 47.476562 20.375 46.875 20.601562 45.675781 20.601562 C 41.023438 20.523438 13.800781 12.125 10.726562 8.898438 C 9.898438 8.074219 9.824219 7.175781 10.050781 6.574219 C 10.273438 5.898438 11.023438 5.226562 12 5.074219 C 14.175781 4.773438 19.648438 7.550781 23.023438 9.050781 C 25.949219 10.324219 29.773438 12.273438 31.125 13.324219 C 31.648438 13.773438 31.949219 14 32.101562 14.449219 C 32.25 14.976562 32.175781 15.875 31.875 16.324219 C 31.425781 16.851562 30.75 17.148438 29.625 17.148438 C 26.175781 17.300781 10.875 12.949219 8.324219 10.625 C 7.425781 9.800781 7.050781 8.75 7.273438 8.148438 C 7.5 7.550781 8.398438 6.949219 9.675781 6.875 C 13.800781 6.574219 34.949219 14.898438 38.023438 17.601562 C 38.851562 18.351562 39.148438 18.949219 39.074219 19.550781 C 39.074219 20.148438 38.476562 20.824219 38.023438 21.125 C 37.648438 21.351562 37.425781 21.351562 36.675781 21.273438 C 33.375 21.050781 13.574219 16.25 10.875 13.625 C 9.976562 12.800781 9.75 11.75 9.976562 11.148438 C 10.199219 10.550781 11.101562 10.023438 12.375 9.949219 C 16.125 9.800781 31.800781 17.523438 35.851562 19.398438 C 37.351562 20.074219 38.25 20.300781 38.851562 20.976562 C 39.300781 21.5 39.601562 22.175781 39.601562 22.699219 C 39.601562 23.148438 39.375 23.675781 39.074219 23.976562 C 38.625 24.351562 38.175781 24.574219 37.273438 24.574219 C 34.199219 24.648438 22.5 20.898438 17.773438 19.476562 C 15 18.574219 12.300781 18.125 11.324219 17.148438 C 10.800781 16.625 10.574219 15.949219 10.648438 15.351562 C 10.726562 14.824219 11.101562 14.074219 11.699219 13.851562 C 12.675781 13.398438 14.476562 14.148438 16.648438 14.75 C 21.074219 15.949219 33.976562 20.226562 36.449219 22.175781 C 37.199219 22.699219 37.425781 23.148438 37.5 23.75 C 37.574219 24.351562 37.273438 25.175781 36.824219 25.550781 C 36.375 25.925781 35.925781 26 34.949219 26 C 31.574219 26.074219 15.601562 23.601562 12.898438 21.5 C 12 20.824219 11.625 19.925781 11.773438 19.25 C 11.925781 18.5 12.898438 17.449219 14.023438 17.300781 C 16.875 17 27.523438 23.375 29.550781 25.398438 C 30.226562 26.074219 30.523438 26.601562 30.449219 27.199219 C 30.375 27.875 29.925781 28.925781 28.949219 29.300781 C 26.25 30.273438 12.523438 27.050781 10.050781 25.023438 C 9.074219 24.199219 8.699219 22.925781 8.925781 22.25 C 9.226562 21.574219 10.273438 20.976562 11.550781 20.824219 C 14.699219 20.375 26.324219 22.773438 28.574219 24.574219 C 29.398438 25.25 29.699219 26.148438 29.625 26.824219 C 29.476562 27.5 28.875 28.324219 27.824219 28.625 C 25.425781 29.523438 17.851562 27.800781 13.273438 26.824219 C 9 26 2.625 25.023438 1.273438 23.449219 C 0.601562 22.699219 0.601562 21.648438 0.898438 21.050781 C 1.199219 20.449219 1.949219 20.074219 3.074219 19.851562 C 6.449219 19.324219 20.101562 22.851562 24.375 23.75 C 26.175781 24.125 27.300781 24.199219 28.273438 24.726562 C 29.101562 25.175781 29.851562 25.925781 30.074219 26.601562 C 30.226562 27.199219 29.925781 28.175781 29.476562 28.699219 C 29.023438 29.148438 28.050781 29.523438 27.375 29.375 C 26.699219 29.226562 25.800781 27.5 25.5 27.5 C 25.351562 27.574219 25.425781 27.949219 25.199219 28.023438 C 23.925781 28.550781 10.949219 24.425781 8.773438 23.074219 C 8.101562 22.625 7.800781 22.324219 7.648438 21.875 C 7.425781 21.425781 7.425781 20.75 7.574219 20.300781 C 7.726562 19.773438 8.175781 19.25 8.625 19.023438 C 9.074219 18.800781 10.199219 18.800781 10.199219 18.800781 " clip-rule="nonzero"/></clipPath><clipPath id="32f6a68e64"><rect x="0" width="49" y="0" height="30"/></clipPath><clipPath id="201c2d0375"><path d="M 134.226562 40.558594 L 162.167969 40.558594 L 162.167969 55.816406 L 134.226562 55.816406 Z M 134.226562 40.558594 " clip-rule="nonzero"/></clipPath><clipPath id="184165ba87"><path d="M 159.601562 55.800781 C 148.648438 52.875 141.300781 49.574219 138.148438 47.324219 C 136.273438 46.050781 134.625 44.699219 134.324219 43.5 C 134.175781 42.75 134.625 41.699219 135.148438 41.25 C 135.75 40.726562 136.875 40.425781 137.550781 40.648438 C 138.226562 40.800781 139.125 41.625 139.351562 42.300781 C 139.648438 42.976562 139.5 44.101562 139.050781 44.699219 C 138.523438 45.300781 136.800781 45.824219 136.050781 45.601562 C 135.300781 45.449219 134.550781 44.476562 134.398438 43.800781 C 134.25 43.125 134.476562 41.925781 135 41.398438 C 135.449219 40.875 136.273438 40.5 137.25 40.574219 C 139.574219 40.800781 144.300781 45.375 148.199219 47.25 C 152.25 49.050781 159.226562 49.800781 161.101562 51.523438 C 161.851562 52.273438 162.148438 53.324219 162.074219 54 C 162 54.523438 161.550781 55.050781 161.175781 55.351562 C 160.726562 55.648438 159.601562 55.800781 159.601562 55.800781 " clip-rule="nonzero"/></clipPath><clipPath id="ca6be6e248"><path d="M 0.226562 0.558594 L 28.167969 0.558594 L 28.167969 15.816406 L 0.226562 15.816406 Z M 0.226562 0.558594 " clip-rule="nonzero"/></clipPath><clipPath id="c8a24d4242"><path d="M 25.601562 15.800781 C 14.648438 12.875 7.300781 9.574219 4.148438 7.324219 C 2.273438 6.050781 0.625 4.699219 0.324219 3.5 C 0.175781 2.75 0.625 1.699219 1.148438 1.25 C 1.75 0.726562 2.875 0.425781 3.550781 0.648438 C 4.226562 0.800781 5.125 1.625 5.351562 2.300781 C 5.648438 2.976562 5.5 4.101562 5.050781 4.699219 C 4.523438 5.300781 2.800781 5.824219 2.050781 5.601562 C 1.300781 5.449219 0.550781 4.476562 0.398438 3.800781 C 0.25 3.125 0.476562 1.925781 1 1.398438 C 1.449219 0.875 2.273438 0.5 3.25 0.574219 C 5.574219 0.800781 10.300781 5.375 14.199219 7.25 C 18.25 9.050781 25.226562 9.800781 27.101562 11.523438 C 27.851562 12.273438 28.148438 13.324219 28.074219 14 C 28 14.523438 27.550781 15.050781 27.175781 15.351562 C 26.726562 15.648438 25.601562 15.800781 25.601562 15.800781 " clip-rule="nonzero"/></clipPath><clipPath id="9e8eb21cf3"><rect x="0" width="29" y="0" height="16"/></clipPath><clipPath id="1044c79ed1"><path d="M 129.511719 42.804688 L 166.375 42.804688 L 166.375 66.578125 L 129.511719 66.578125 Z M 129.511719 42.804688 " clip-rule="nonzero"/></clipPath><clipPath id="9fc7794d2f"><path d="M 139.574219 51.824219 C 129.75 48.300781 129.601562 47.773438 129.523438 47.324219 C 129.523438 46.800781 129.601562 46.050781 129.976562 45.675781 C 130.5 45.148438 131.476562 44.625 132.601562 44.773438 C 134.925781 45.074219 138.824219 49.199219 143.023438 51.601562 C 149.023438 55.050781 163.425781 60.226562 165.675781 62.550781 C 166.199219 63.148438 166.273438 63.523438 166.273438 64.125 C 166.273438 64.726562 165.824219 65.699219 165.300781 66.074219 C 164.773438 66.449219 164.101562 66.601562 163.125 66.375 C 160.351562 65.851562 152.023438 60.300781 148.425781 57.976562 C 146.175781 56.476562 144.601562 55.648438 143.175781 54.074219 C 141.824219 52.574219 141.300781 50.175781 139.875 48.976562 C 138.523438 47.773438 135.824219 46.5 134.925781 46.726562 C 134.476562 46.800781 134.476562 47.699219 134.175781 47.699219 C 133.875 47.773438 133.425781 47.398438 133.199219 47.101562 C 132.898438 46.726562 132.523438 45.976562 132.523438 45.449219 C 132.523438 44.925781 132.675781 44.25 133.125 43.800781 C 133.648438 43.351562 135.074219 42.898438 135.824219 43.125 C 136.425781 43.273438 137.023438 43.875 137.25 44.398438 C 137.476562 45 137.398438 46.125 137.101562 46.726562 C 136.875 47.175781 136.425781 47.550781 135.898438 47.699219 C 135.300781 47.925781 134.175781 47.851562 133.574219 47.476562 C 133.050781 47.101562 132.449219 46.125 132.523438 45.375 C 132.601562 44.625 133.574219 43.351562 134.324219 43.050781 C 135 42.824219 136.050781 43.125 136.574219 43.574219 C 137.101562 44.023438 137.476562 45 137.398438 45.675781 C 137.324219 46.351562 136.726562 47.25 136.125 47.625 C 135.523438 47.925781 134.398438 47.925781 133.800781 47.625 C 133.199219 47.25 132.601562 46.199219 132.523438 45.449219 C 132.523438 44.773438 132.898438 43.875 133.574219 43.425781 C 134.550781 42.824219 136.949219 42.75 138.449219 43.125 C 140.023438 43.5 141.675781 44.550781 142.875 45.75 C 144.226562 47.023438 144.75 49.273438 146.101562 50.699219 C 147.375 52.125 148.648438 52.949219 150.75 54.375 C 154.199219 56.625 163.949219 60.675781 165.675781 62.550781 C 166.199219 63.148438 166.273438 63.523438 166.273438 64.125 C 166.273438 64.726562 165.824219 65.699219 165.300781 66.074219 C 164.773438 66.449219 163.648438 66.523438 163.125 66.375 C 162.75 66.300781 162.148438 65.851562 162.148438 65.773438 C 162.226562 65.625 164.625 66.148438 164.625 66.148438 C 164.625 66.148438 163.273438 66.226562 161.925781 65.851562 C 157.351562 64.5 138 54.898438 133.125 51.375 C 131.25 50.023438 130.050781 48.898438 129.675781 47.851562 C 129.449219 47.25 129.523438 46.648438 129.75 46.125 C 129.898438 45.675781 130.425781 45.148438 130.875 44.925781 C 131.324219 44.699219 131.773438 44.699219 132.601562 44.773438 C 134.324219 45 139.800781 46.648438 141.300781 47.625 C 141.898438 48 142.125 48.375 142.351562 48.824219 C 142.5 49.351562 142.5 50.023438 142.273438 50.476562 C 142.125 50.925781 141.601562 51.449219 141.148438 51.675781 C 140.699219 51.898438 139.574219 51.824219 139.574219 51.824219 " clip-rule="nonzero"/></clipPath><clipPath id="7842d7a65d"><path d="M 0.511719 0.804688 L 37.320312 0.804688 L 37.320312 24.578125 L 0.511719 24.578125 Z M 0.511719 0.804688 " clip-rule="nonzero"/></clipPath><clipPath id="056d0caee8"><path d="M 10.574219 9.824219 C 0.75 6.300781 0.601562 5.773438 0.523438 5.324219 C 0.523438 4.800781 0.601562 4.050781 0.976562 3.675781 C 1.5 3.148438 2.476562 2.625 3.601562 2.773438 C 5.925781 3.074219 9.824219 7.199219 14.023438 9.601562 C 20.023438 13.050781 34.425781 18.226562 36.675781 20.550781 C 37.199219 21.148438 37.273438 21.523438 37.273438 22.125 C 37.273438 22.726562 36.824219 23.699219 36.300781 24.074219 C 35.773438 24.449219 35.101562 24.601562 34.125 24.375 C 31.351562 23.851562 23.023438 18.300781 19.425781 15.976562 C 17.175781 14.476562 15.601562 13.648438 14.175781 12.074219 C 12.824219 10.574219 12.300781 8.175781 10.875 6.976562 C 9.523438 5.773438 6.824219 4.5 5.925781 4.726562 C 5.476562 4.800781 5.476562 5.699219 5.175781 5.699219 C 4.875 5.773438 4.425781 5.398438 4.199219 5.101562 C 3.898438 4.726562 3.523438 3.976562 3.523438 3.449219 C 3.523438 2.925781 3.675781 2.25 4.125 1.800781 C 4.648438 1.351562 6.074219 0.898438 6.824219 1.125 C 7.425781 1.273438 8.023438 1.875 8.25 2.398438 C 8.476562 3 8.398438 4.125 8.101562 4.726562 C 7.875 5.175781 7.425781 5.550781 6.898438 5.699219 C 6.300781 5.925781 5.175781 5.851562 4.574219 5.476562 C 4.050781 5.101562 3.449219 4.125 3.523438 3.375 C 3.601562 2.625 4.574219 1.351562 5.324219 1.050781 C 6 0.824219 7.050781 1.125 7.574219 1.574219 C 8.101562 2.023438 8.476562 3 8.398438 3.675781 C 8.324219 4.351562 7.726562 5.25 7.125 5.625 C 6.523438 5.925781 5.398438 5.925781 4.800781 5.625 C 4.199219 5.25 3.601562 4.199219 3.523438 3.449219 C 3.523438 2.773438 3.898438 1.875 4.574219 1.425781 C 5.550781 0.824219 7.949219 0.75 9.449219 1.125 C 11.023438 1.5 12.675781 2.550781 13.875 3.75 C 15.226562 5.023438 15.75 7.273438 17.101562 8.699219 C 18.375 10.125 19.648438 10.949219 21.75 12.375 C 25.199219 14.625 34.949219 18.675781 36.675781 20.550781 C 37.199219 21.148438 37.273438 21.523438 37.273438 22.125 C 37.273438 22.726562 36.824219 23.699219 36.300781 24.074219 C 35.773438 24.449219 34.648438 24.523438 34.125 24.375 C 33.75 24.300781 33.148438 23.851562 33.148438 23.773438 C 33.226562 23.625 35.625 24.148438 35.625 24.148438 C 35.625 24.148438 34.273438 24.226562 32.925781 23.851562 C 28.351562 22.5 9 12.898438 4.125 9.375 C 2.25 8.023438 1.050781 6.898438 0.675781 5.851562 C 0.449219 5.25 0.523438 4.648438 0.75 4.125 C 0.898438 3.675781 1.425781 3.148438 1.875 2.925781 C 2.324219 2.699219 2.773438 2.699219 3.601562 2.773438 C 5.324219 3 10.800781 4.648438 12.300781 5.625 C 12.898438 6 13.125 6.375 13.351562 6.824219 C 13.5 7.351562 13.5 8.023438 13.273438 8.476562 C 13.125 8.925781 12.601562 9.449219 12.148438 9.675781 C 11.699219 9.898438 10.574219 9.824219 10.574219 9.824219 " clip-rule="nonzero"/></clipPath><clipPath id="4bd1da1018"><rect x="0" width="38" y="0" height="25"/></clipPath></defs><path stroke-linecap="butt" transform="matrix(0, 0.75, -0.75, 0, 67.5, 37.499998)" fill="none" stroke-linejoin="miter" d="M 0.00000328333 27.500002 L 400.00003 27.500002 " stroke="#0491f3" stroke-width="55" stroke-opacity="1" stroke-miterlimit="4"/><path stroke-linecap="butt" transform="matrix(0.75, 0, 0, 0.75, 64.590667, 37.499998)" fill="none" stroke-linejoin="miter" d="M -0.00109828 27.500005 L 95.358283 27.500005 " stroke="#0491f3" stroke-width="55" stroke-opacity="1" stroke-miterlimit="4"/><path stroke-linecap="butt" transform="matrix(0.75, 0, 0, 0.75, 55.606333, 296.249981)" fill="none" stroke-linejoin="miter" d="M -0.00115213 27.500028 L 95.358229 27.500028 " stroke="#0491f3" stroke-width="55" stroke-opacity="1" stroke-miterlimit="4"/><path stroke-linecap="butt" transform="matrix(0.424571, 0.618255, -0.618255, 0.424571, 169.746029, 55.46499)" fill="none" stroke-linejoin="miter" d="M -0.0014463 27.501956 L 435.151517 27.500929 " stroke="#0491f3" stroke-width="55" stroke-opacity="1" stroke-miterlimit="4"/><path stroke-linecap="butt" transform="matrix(-0.436578, 0.609836, -0.609836, -0.436578, 354.262774, 49.509834)" fill="none" stroke-linejoin="miter" d="M 0.0000235681 27.500139 L 445.311708 27.501769 " stroke="#0491f3" stroke-width="55" stroke-opacity="1" stroke-miterlimit="4"/><path stroke-linecap="butt" transform="matrix(0.661058, 0.354264, -0.354264, 0.661058, 136.067398, 37.529694)" fill="none" stroke-linejoin="miter" d="M 0.000437978 1.999393 L 51.103488 2.001672 " stroke="#0491f3" stroke-width="4" stroke-opacity="1" stroke-miterlimit="4"/><path stroke-linecap="butt" transform="matrix(0.669975, -0.337095, 0.337095, 0.669975, 125.683957, 334.83077)" fill="none" stroke-linejoin="miter" d="M 0.000771258 2.002111 L 49.525182 2.000783 " stroke="#0491f3" stroke-width="4" stroke-opacity="1" stroke-miterlimit="4"/><g clip-path="url(#f65c02b3a2)"><g clip-path="url(#4073724abc)"><g transform="matrix(1, 0, 0, 1, 118, 296)"><g clip-path="url(#0486e9eab8)"><g clip-path="url(#6f5db3c1f1)"><g clip-path="url(#11cd9b669d)"><rect x="-200.5" width="540" fill="#0491f3" height="539.999987" y="-378.499998" fill-opacity="1"/></g></g></g></g></g></g><g clip-path="url(#1f94324b9e)"><g clip-path="url(#73a1d138a6)"><g transform="matrix(1, 0, 0, 1, 134, 73)"><g clip-path="url(#1bb83cc24c)"><g clip-path="url(#0f063a6ad4)"><g clip-path="url(#720ada9059)"><rect x="-216.5" width="540" fill="#0491f3" height="539.999987" y="-155.499998" fill-opacity="1"/></g></g></g></g></g></g><g clip-path="url(#1856c5e898)"><g clip-path="url(#14760d3228)"><g transform="matrix(1, 0, 0, 1, 133, 71)"><g clip-path="url(#bdc4789f83)"><g clip-path="url(#0647814f3c)"><g clip-path="url(#9de3ce9088)"><rect x="-215.5" width="540" fill="#0491f3" height="539.999987" y="-153.499998" fill-opacity="1"/></g></g></g></g></g></g><g clip-path="url(#120930121a)"><g clip-path="url(#887fe79059)"><g transform="matrix(1, 0, 0, 1, 134, 74)"><g clip-path="url(#5f47a179b7)"><g clip-path="url(#5675c5c3e9)"><g clip-path="url(#1e83048472)"><rect x="-216.5" width="540" fill="#0491f3" height="539.999987" y="-156.499998" fill-opacity="1"/></g></g></g></g></g></g><g clip-path="url(#9b403b4096)"><g clip-path="url(#404645fd64)"><g transform="matrix(1, 0, 0, 1, 135, 75)"><g clip-path="url(#99322fdd42)"><g clip-path="url(#4f83cf5535)"><g clip-path="url(#43c6a64702)"><rect x="-217.5" width="540" fill="#0491f3" height="539.999987" y="-157.499998" fill-opacity="1"/></g></g></g></g></g></g><g clip-path="url(#c763de3f55)"><g clip-path="url(#21303f5ef2)"><g transform="matrix(1, 0, 0, 1, 123, 46)"><g clip-path="url(#32f6a68e64)"><g clip-path="url(#5e336d87e2)"><g clip-path="url(#b5b5a6671f)"><rect x="-205.5" width="540" fill="#0491f3" height="539.999987" y="-128.499998" fill-opacity="1"/></g></g></g></g></g></g><g clip-path="url(#201c2d0375)"><g clip-path="url(#184165ba87)"><g transform="matrix(1, 0, 0, 1, 134, 40)"><g clip-path="url(#9e8eb21cf3)"><g clip-path="url(#ca6be6e248)"><g clip-path="url(#c8a24d4242)"><rect x="-216.5" width="540" fill="#0491f3" height="539.999987" y="-122.499998" fill-opacity="1"/></g></g></g></g></g></g><g clip-path="url(#1044c79ed1)"><g clip-path="url(#9fc7794d2f)"><g transform="matrix(1, 0, 0, 1, 129, 42)"><g clip-path="url(#4bd1da1018)"><g clip-path="url(#7842d7a65d)"><g clip-path="url(#056d0caee8)"><rect x="-211.5" width="540" fill="#0491f3" height="539.999987" y="-124.499998" fill-opacity="1"/></g></g></g></g></g></g></svg>