<svg xmlns="http://www.w3.org/2000/svg" xmlns:xlink="http://www.w3.org/1999/xlink" width="1500" zoomAndPan="magnify" viewBox="0 0 1125 149.999998" height="200" preserveAspectRatio="xMidYMid meet" version="1.0"><defs><g/><clipPath id="6c257de3e3"><path d="M 51 120.40625 L 70 120.40625 L 70 135.941406 L 51 135.941406 Z M 51 120.40625 " clip-rule="nonzero"/></clipPath><clipPath id="c1870b7c39"><path d="M 65.722656 129.558594 C 61.957031 130.320312 57.285156 132.828125 56.117188 132.859375 C 55.796875 132.859375 55.621094 132.769531 55.476562 132.625 C 55.300781 132.480469 55.125 132.246094 55.125 132.042969 C 55.125 131.75 55.214844 131.371094 55.59375 131.019531 C 56.789062 129.96875 64.175781 127.574219 65.691406 127.605469 C 66.128906 127.632812 66.421875 127.75 66.570312 127.953125 C 66.683594 128.160156 66.742188 128.539062 66.539062 128.890625 C 65.925781 130 60.496094 133.53125 59.269531 133.648438 C 58.890625 133.675781 58.65625 133.53125 58.484375 133.355469 C 58.335938 133.121094 58.25 132.710938 58.367188 132.332031 C 58.65625 131.488281 60.554688 129.328125 61.34375 129.003906 C 61.753906 128.832031 62.191406 128.949219 62.421875 129.09375 C 62.597656 129.210938 62.714844 129.445312 62.746094 129.648438 C 62.773438 129.851562 62.804688 130.054688 62.628906 130.320312 C 61.925781 131.28125 56.03125 135.105469 54.601562 135.164062 C 54.105469 135.164062 53.726562 134.929688 53.578125 134.640625 C 53.433594 134.375 53.433594 133.9375 53.695312 133.5 C 54.339844 132.421875 58.921875 129.734375 59.972656 129.414062 C 60.292969 129.296875 60.4375 129.296875 60.644531 129.386719 C 60.847656 129.445312 61.050781 129.617188 61.167969 129.824219 C 61.257812 130 61.3125 130.289062 61.257812 130.496094 C 61.226562 130.699219 61.109375 130.816406 60.90625 131.050781 C 60.351562 131.660156 58.105469 133.53125 57.34375 133.734375 C 57.023438 133.820312 56.820312 133.761719 56.613281 133.648438 C 56.410156 133.5 56.148438 133.152344 56.117188 132.859375 C 56.089844 132.597656 56.207031 132.304688 56.46875 132.011719 C 56.996094 131.457031 59.066406 130.40625 59.765625 130.289062 C 60.058594 130.261719 60.261719 130.347656 60.4375 130.464844 C 60.644531 130.582031 60.816406 130.816406 60.875 131.050781 C 60.90625 131.339844 60.789062 131.75 60.46875 132.101562 C 59.855469 132.886719 57.519531 134.027344 56.292969 134.609375 C 55.449219 135.019531 54.777344 135.28125 54.015625 135.457031 C 53.316406 135.660156 52.296875 136.070312 51.855469 135.777344 C 51.476562 135.574219 51.273438 134.726562 51.332031 134.257812 C 51.390625 133.851562 51.796875 133.589844 52.207031 133.121094 C 52.9375 132.273438 54.308594 130.902344 55.503906 129.824219 C 56.761719 128.683594 58.425781 127.253906 59.59375 126.4375 C 60.378906 125.882812 61.140625 125.210938 61.664062 125.242188 C 61.984375 125.242188 62.308594 125.503906 62.421875 125.738281 C 62.511719 125.910156 62.511719 126.117188 62.363281 126.464844 C 61.722656 127.808594 55.390625 134.582031 53.988281 134.726562 C 53.578125 134.785156 53.199219 134.433594 53.113281 134.203125 C 53.054688 133.996094 53.140625 133.734375 53.402344 133.382812 C 54.28125 132.128906 60.789062 127.457031 62.453125 126.671875 C 63.007812 126.378906 63.386719 126.261719 63.679688 126.320312 C 63.855469 126.378906 64 126.554688 64.058594 126.730469 C 64.117188 126.933594 64.144531 127.195312 63.96875 127.457031 C 63.445312 128.304688 59.359375 130.785156 58.335938 130.933594 C 57.988281 130.992188 57.753906 130.875 57.605469 130.726562 C 57.433594 130.550781 57.285156 130.230469 57.34375 129.96875 C 57.460938 129.5 58.191406 129.035156 59.066406 128.394531 C 60.933594 127.019531 67.355469 122.992188 68.875 122.699219 C 69.28125 122.640625 69.546875 122.671875 69.722656 122.847656 C 69.894531 122.964844 69.984375 123.285156 69.953125 123.488281 C 69.925781 123.691406 69.835938 123.839844 69.546875 124.074219 C 68.496094 124.917969 61.429688 128.625 60.46875 128.160156 C 60.175781 128.011719 60.089844 127.285156 60.234375 127.109375 C 60.378906 126.933594 60.964844 127.285156 61.488281 127.167969 C 62.453125 126.933594 64.640625 125.09375 65.429688 125.007812 C 65.722656 124.976562 65.898438 125.035156 66.070312 125.183594 C 66.246094 125.328125 66.453125 125.707031 66.453125 125.96875 C 66.453125 126.175781 66.394531 126.464844 66.21875 126.582031 C 65.957031 126.730469 65.253906 126.40625 64.933594 126.582031 C 64.640625 126.730469 64.640625 127.195312 64.292969 127.488281 C 63.5625 128.070312 61.867188 128.625 60.378906 129.269531 C 58.425781 130.085938 54.835938 132.101562 53.609375 132.011719 C 53.140625 131.984375 52.761719 131.71875 52.675781 131.488281 C 52.585938 131.222656 52.792969 130.785156 53.113281 130.496094 C 53.609375 129.941406 54.835938 129.558594 56.117188 129.0625 C 58.191406 128.304688 63.007812 127.488281 64.4375 126.699219 C 65.019531 126.40625 65.167969 125.882812 65.546875 125.792969 C 65.808594 125.707031 66.128906 125.707031 66.304688 125.851562 C 66.511719 126.027344 66.742188 126.496094 66.65625 126.730469 C 66.539062 127.019531 66.015625 127.226562 65.546875 127.3125 C 64.875 127.457031 63.707031 127.078125 62.949219 127.136719 C 62.363281 127.195312 62.074219 127.253906 61.371094 127.574219 C 59.535156 128.421875 53.460938 133.617188 52.207031 133.617188 C 51.886719 133.617188 51.710938 133.414062 51.625 133.207031 C 51.507812 133.035156 51.476562 132.800781 51.59375 132.480469 C 51.945312 131.574219 54.484375 129.152344 55.796875 127.839844 C 56.847656 126.789062 58.015625 125.328125 58.746094 125.09375 C 59.097656 124.976562 59.476562 125.035156 59.621094 125.210938 C 59.824219 125.414062 59.882812 125.882812 59.738281 126.261719 C 59.417969 127.050781 57.226562 128.890625 56.382812 129.152344 C 56.003906 129.269531 55.621094 129.210938 55.417969 129.035156 C 55.214844 128.832031 55.097656 128.480469 55.214844 128.070312 C 55.535156 126.816406 60.117188 122.058594 61.429688 121.476562 C 61.867188 121.269531 62.277344 121.269531 62.480469 121.445312 C 62.6875 121.621094 62.804688 122.058594 62.628906 122.496094 C 62.21875 123.664062 57.753906 127.253906 56.761719 127.78125 C 56.5 127.925781 56.351562 127.984375 56.175781 127.953125 C 55.945312 127.898438 55.621094 127.691406 55.503906 127.488281 C 55.390625 127.285156 55.359375 126.933594 55.476562 126.671875 C 55.710938 126.261719 56.441406 126.027344 57.257812 125.5625 C 59.007812 124.570312 64.144531 121.417969 65.664062 121.386719 C 66.21875 121.386719 66.683594 121.648438 66.832031 121.941406 C 66.949219 122.234375 66.65625 122.875 66.480469 123.226562 C 66.304688 123.519531 66.128906 123.636719 65.78125 123.957031 C 65.078125 124.628906 62.917969 126.875 62.160156 126.960938 C 61.839844 126.992188 61.578125 126.789062 61.460938 126.582031 C 61.3125 126.378906 61.285156 126.144531 61.34375 125.792969 C 61.488281 124.917969 62.890625 122.085938 63.472656 121.621094 C 63.707031 121.476562 63.914062 121.476562 64.117188 121.503906 C 64.292969 121.535156 64.523438 121.648438 64.640625 121.824219 C 64.789062 122.058594 64.875 122.410156 64.730469 122.847656 C 64.292969 123.925781 60.527344 127.371094 59.476562 127.808594 C 59.125 127.953125 58.890625 127.953125 58.6875 127.867188 C 58.453125 127.722656 58.191406 127.253906 58.191406 127.019531 C 58.160156 126.816406 58.25 126.699219 58.425781 126.4375 C 58.949219 125.765625 61.429688 123.285156 62.363281 123.136719 C 62.804688 123.050781 63.269531 123.3125 63.417969 123.546875 C 63.5625 123.78125 63.417969 124.480469 63.269531 124.539062 C 63.066406 124.597656 62.042969 123.34375 62.160156 123.195312 C 62.21875 123.050781 63.09375 123.136719 63.269531 123.34375 C 63.445312 123.578125 63.472656 124.042969 63.242188 124.480469 C 62.480469 125.941406 55.183594 131.28125 53.871094 131.222656 C 53.492188 131.222656 53.257812 130.902344 53.171875 130.667969 C 53.113281 130.464844 53.140625 130.289062 53.316406 129.941406 C 53.988281 128.65625 59.445312 122.585938 60.875 121.796875 C 61.3125 121.5625 61.636719 121.503906 61.867188 121.621094 C 62.074219 121.738281 62.277344 122.058594 62.21875 122.410156 C 61.925781 123.636719 55.449219 128.859375 54.164062 129.121094 C 53.8125 129.179688 53.609375 129.0625 53.433594 128.917969 C 53.289062 128.714844 53.171875 128.394531 53.257812 128.011719 C 53.519531 127.078125 56.03125 124.160156 57.023438 123.78125 C 57.433594 123.605469 57.957031 123.664062 58.160156 123.867188 C 58.335938 124.101562 58.367188 124.65625 58.160156 125.035156 C 57.871094 125.679688 56.441406 126.175781 55.5625 126.992188 C 54.484375 128.011719 53.054688 130.347656 52.296875 130.757812 C 52.003906 130.902344 51.742188 130.933594 51.535156 130.84375 C 51.332031 130.757812 51.070312 130.496094 51.011719 130.289062 C 50.980469 130.054688 51.011719 129.882812 51.214844 129.53125 C 51.855469 128.304688 56.292969 123.109375 57.664062 122.378906 C 58.132812 122.117188 58.542969 122.058594 58.773438 122.203125 C 59.007812 122.378906 59.210938 122.875 59.097656 123.3125 C 58.714844 124.480469 54.398438 128.101562 53.199219 128.507812 C 52.792969 128.625 52.441406 128.566406 52.238281 128.421875 C 52.03125 128.277344 51.886719 127.984375 51.914062 127.691406 C 51.914062 127.3125 52.238281 126.902344 52.617188 126.347656 C 53.460938 125.09375 56.234375 121.503906 57.34375 120.949219 C 57.78125 120.714844 58.21875 120.6875 58.453125 120.863281 C 58.65625 121.007812 58.804688 121.503906 58.65625 121.941406 C 58.308594 122.964844 54.894531 125.621094 53.84375 126.085938 C 53.433594 126.292969 53.113281 126.320312 52.878906 126.234375 C 52.675781 126.175781 52.527344 125.96875 52.441406 125.765625 C 52.382812 125.589844 52.351562 125.414062 52.441406 125.152344 C 52.675781 124.511719 54.105469 122.527344 54.835938 122.234375 C 55.214844 122.058594 55.710938 122.144531 55.914062 122.320312 C 56.148438 122.527344 56.234375 123.082031 56.175781 123.34375 C 56.117188 123.546875 55.945312 123.691406 55.738281 123.839844 C 55.449219 124.042969 54.777344 124.277344 54.398438 124.277344 C 54.164062 124.277344 53.929688 124.21875 53.753906 124.101562 C 53.578125 123.984375 53.433594 123.78125 53.402344 123.546875 C 53.347656 123.3125 53.433594 123.023438 53.609375 122.730469 C 53.871094 122.261719 54.660156 121.300781 55.097656 121.269531 C 55.390625 121.269531 55.5625 121.855469 55.886719 121.972656 C 56.148438 122.058594 56.789062 121.882812 56.820312 121.941406 C 56.820312 122 56.117188 122.410156 55.945312 122.351562 C 55.828125 122.292969 55.886719 121.765625 55.796875 121.765625 C 55.710938 121.765625 55.59375 122.4375 55.359375 122.585938 C 55.125 122.730469 54.6875 122.789062 54.453125 122.671875 C 54.164062 122.527344 53.8125 121.941406 53.84375 121.648438 C 53.898438 121.328125 54.367188 120.832031 54.6875 120.773438 C 54.980469 120.746094 55.5625 121.066406 55.710938 121.359375 C 55.855469 121.589844 55.796875 122.03125 55.652344 122.261719 C 55.503906 122.496094 55.125 122.730469 54.863281 122.730469 C 54.601562 122.757812 54.191406 122.527344 54.046875 122.351562 C 53.898438 122.175781 53.785156 121.941406 53.84375 121.738281 C 53.988281 121.359375 55.183594 120.6875 55.769531 120.539062 C 56.117188 120.453125 56.527344 120.425781 56.789062 120.597656 C 57.054688 120.804688 57.34375 121.359375 57.257812 121.796875 C 57.082031 122.527344 55.332031 124.042969 54.628906 124.21875 C 54.25 124.335938 53.8125 124.160156 53.609375 123.957031 C 53.433594 123.808594 53.375 123.546875 53.375 123.34375 C 53.375 123.136719 53.433594 122.875 53.609375 122.730469 C 53.929688 122.410156 55.097656 122.058594 55.535156 122.117188 C 55.769531 122.144531 55.945312 122.320312 56.058594 122.496094 C 56.175781 122.671875 56.292969 122.847656 56.234375 123.136719 C 56.089844 123.78125 54.542969 125.707031 53.84375 126.085938 C 53.492188 126.292969 53.113281 126.347656 52.878906 126.234375 C 52.644531 126.144531 52.441406 125.792969 52.382812 125.589844 C 52.351562 125.386719 52.382812 125.210938 52.527344 124.976562 C 52.964844 124.277344 55.183594 122.46875 56.234375 121.738281 C 56.9375 121.242188 57.636719 120.65625 58.074219 120.6875 C 58.335938 120.714844 58.601562 120.949219 58.6875 121.152344 C 58.804688 121.359375 58.804688 121.589844 58.65625 121.941406 C 58.21875 123.082031 54.601562 127.75 53.375 128.363281 C 52.90625 128.597656 52.46875 128.566406 52.238281 128.421875 C 52.03125 128.304688 51.914062 127.925781 51.914062 127.691406 C 51.914062 127.488281 51.972656 127.371094 52.179688 127.136719 C 52.820312 126.261719 56.644531 122.671875 57.8125 122.234375 C 58.21875 122.058594 58.570312 122.058594 58.773438 122.203125 C 59.007812 122.378906 59.210938 122.816406 59.097656 123.3125 C 58.746094 124.742188 53.726562 129.851562 52.441406 130.609375 C 52.0625 130.84375 51.769531 130.933594 51.535156 130.84375 C 51.300781 130.785156 51.070312 130.496094 51.011719 130.289062 C 50.980469 130.054688 51.039062 129.851562 51.214844 129.53125 C 51.625 128.714844 53.375 126.816406 54.425781 125.792969 C 55.300781 124.949219 56.324219 124.015625 57.023438 123.78125 C 57.375 123.636719 57.78125 123.578125 57.988281 123.75 C 58.21875 123.925781 58.394531 124.421875 58.277344 124.859375 C 58.015625 125.882812 55.066406 128.917969 54.164062 129.121094 C 53.8125 129.179688 53.460938 128.976562 53.316406 128.742188 C 53.199219 128.539062 53.171875 128.21875 53.347656 127.839844 C 53.8125 126.875 56.703125 124.773438 58.191406 123.664062 C 59.300781 122.789062 60.613281 121.589844 61.34375 121.535156 C 61.664062 121.503906 61.984375 121.707031 62.101562 121.882812 C 62.21875 122.058594 62.277344 122.261719 62.160156 122.585938 C 61.664062 123.925781 55.417969 130.960938 54.046875 131.222656 C 53.695312 131.28125 53.375 131.050781 53.257812 130.84375 C 53.113281 130.640625 53.113281 130.320312 53.316406 129.941406 C 54.046875 128.625 60.554688 123.605469 62.160156 123.195312 C 62.65625 123.050781 63.066406 123.167969 63.269531 123.34375 C 63.445312 123.519531 63.503906 123.925781 63.445312 124.132812 C 63.417969 124.335938 63.242188 124.628906 63.09375 124.628906 C 62.863281 124.628906 62.074219 123.402344 62.160156 123.226562 C 62.277344 123.082031 63.125 123.167969 63.300781 123.371094 C 63.472656 123.605469 63.472656 124.101562 63.269531 124.539062 C 62.863281 125.414062 60.320312 127.488281 59.476562 127.808594 C 59.15625 127.953125 58.890625 127.953125 58.6875 127.867188 C 58.453125 127.722656 58.132812 127.398438 58.191406 127.019531 C 58.308594 125.96875 62.539062 122.144531 63.472656 121.621094 C 63.765625 121.476562 63.914062 121.476562 64.117188 121.503906 C 64.292969 121.535156 64.523438 121.648438 64.640625 121.824219 C 64.789062 122.058594 64.816406 122.527344 64.699219 122.992188 C 64.496094 123.75 63.125 125.09375 62.863281 125.792969 C 62.714844 126.175781 62.917969 126.554688 62.746094 126.730469 C 62.539062 126.902344 62.015625 126.960938 61.753906 126.847656 C 61.546875 126.757812 61.34375 126.4375 61.285156 126.203125 C 61.257812 125.96875 61.371094 125.738281 61.578125 125.445312 C 62.101562 124.6875 64.757812 122.058594 65.371094 122.144531 C 65.632812 122.203125 65.925781 122.640625 65.839844 122.964844 C 65.488281 124.042969 57.492188 128.011719 56.175781 127.953125 C 55.796875 127.925781 55.59375 127.722656 55.503906 127.488281 C 55.390625 127.253906 55.417969 126.902344 55.59375 126.496094 C 56.058594 125.589844 58.453125 123.75 59.652344 122.816406 C 60.496094 122.144531 61.402344 121.300781 61.957031 121.269531 C 62.21875 121.242188 62.480469 121.386719 62.597656 121.589844 C 62.746094 121.796875 62.773438 122.085938 62.628906 122.496094 C 62.160156 123.722656 57.550781 128.363281 56.554688 129.035156 C 56.292969 129.210938 56.175781 129.269531 56.003906 129.238281 C 55.769531 129.238281 55.417969 129.0625 55.300781 128.859375 C 55.15625 128.683594 55.125 128.304688 55.214844 128.070312 C 55.273438 127.867188 55.390625 127.78125 55.621094 127.546875 C 56.207031 126.992188 58.160156 125.152344 58.921875 125.035156 C 59.269531 124.976562 59.621094 125.152344 59.765625 125.355469 C 59.882812 125.5625 59.882812 125.910156 59.738281 126.261719 C 59.417969 126.960938 57.871094 127.808594 56.847656 128.832031 C 55.5625 130.113281 53.636719 133.003906 52.761719 133.472656 C 52.46875 133.648438 52.238281 133.675781 52.03125 133.589844 C 51.828125 133.472656 51.535156 133.09375 51.507812 132.859375 C 51.507812 132.625 51.59375 132.480469 51.828125 132.1875 C 52.792969 131.105469 58.773438 126.875 60.816406 125.941406 C 61.722656 125.53125 62.160156 125.472656 62.949219 125.414062 C 63.882812 125.355469 65.984375 125.53125 66.015625 125.738281 C 66.042969 125.851562 65.109375 126.175781 65.109375 126.175781 C 65.109375 126.203125 65.867188 125.679688 66.128906 125.765625 C 66.394531 125.851562 66.683594 126.40625 66.65625 126.730469 C 66.597656 127.109375 66.160156 127.546875 65.605469 127.898438 C 64.378906 128.625 61.050781 128.976562 59.007812 129.675781 C 57.082031 130.347656 54.660156 132.070312 53.609375 132.011719 C 53.171875 131.984375 52.761719 131.71875 52.675781 131.488281 C 52.585938 131.222656 52.761719 130.816406 53.113281 130.496094 C 53.957031 129.617188 57.605469 128.714844 59.652344 127.78125 C 61.519531 126.902344 63.796875 125.242188 64.90625 125.066406 C 65.429688 124.976562 66.070312 125.210938 66.070312 125.242188 C 66.042969 125.296875 64.816406 125.328125 64.816406 125.296875 C 64.816406 125.269531 65.605469 124.976562 65.867188 125.066406 C 66.101562 125.152344 66.363281 125.503906 66.421875 125.738281 C 66.480469 125.941406 66.453125 126.175781 66.335938 126.378906 C 66.160156 126.757812 65.632812 127.253906 65.167969 127.488281 C 64.671875 127.75 63.941406 127.691406 63.386719 127.898438 C 62.832031 128.128906 62.394531 128.773438 61.78125 128.859375 C 61.109375 128.976562 59.765625 128.742188 59.476562 128.335938 C 59.269531 127.984375 59.328125 127.34375 59.710938 126.847656 C 60.730469 125.503906 67.648438 122.671875 69.050781 122.640625 C 69.457031 122.640625 69.722656 122.789062 69.835938 122.964844 C 69.984375 123.136719 70.070312 123.371094 69.925781 123.664062 C 69.28125 124.949219 60.351562 130.609375 58.542969 130.875 C 58.015625 130.933594 57.605469 130.785156 57.460938 130.550781 C 57.316406 130.320312 57.375 129.851562 57.664062 129.445312 C 58.308594 128.539062 62.074219 126.378906 63.09375 126.292969 C 63.503906 126.234375 63.796875 126.378906 63.941406 126.582031 C 64.085938 126.757812 64.175781 127.109375 63.96875 127.457031 C 63.300781 128.859375 55.476562 134.582031 53.988281 134.726562 C 53.609375 134.785156 53.316406 134.582031 53.199219 134.375 C 53.082031 134.171875 53.082031 133.910156 53.257812 133.5 C 53.898438 132.101562 60.089844 125.589844 61.460938 125.269531 C 61.867188 125.183594 62.191406 125.355469 62.335938 125.5625 C 62.480469 125.792969 62.453125 126.234375 62.21875 126.613281 C 61.753906 127.429688 59.503906 128.363281 58.160156 129.53125 C 56.644531 130.84375 54.542969 133.5 53.667969 134.257812 C 53.316406 134.550781 53.171875 134.757812 52.90625 134.757812 C 52.617188 134.757812 51.914062 134.347656 51.945312 134.144531 C 51.972656 133.734375 54.222656 133.472656 55.449219 132.917969 C 56.820312 132.273438 58.863281 130.40625 59.765625 130.289062 C 60.148438 130.261719 60.4375 130.40625 60.644531 130.609375 C 60.816406 130.816406 60.964844 131.222656 60.875 131.515625 C 60.730469 131.953125 59.914062 132.421875 59.328125 132.769531 C 58.6875 133.179688 57.605469 133.761719 57.082031 133.761719 C 56.789062 133.761719 56.585938 133.675781 56.441406 133.5 C 56.265625 133.296875 56.058594 132.945312 56.117188 132.625 C 56.234375 132.1875 56.90625 131.660156 57.433594 131.195312 C 58.160156 130.582031 59.503906 129.386719 60.175781 129.328125 C 60.585938 129.296875 61.023438 129.558594 61.167969 129.824219 C 61.3125 130.085938 61.285156 130.496094 61.050781 130.902344 C 60.527344 131.808594 57.433594 133.5 56.175781 134.230469 C 55.449219 134.667969 54.835938 135.195312 54.367188 135.164062 C 54.046875 135.136719 53.726562 134.902344 53.578125 134.640625 C 53.433594 134.40625 53.347656 134.054688 53.550781 133.707031 C 54.191406 132.566406 60.496094 128.949219 61.78125 128.890625 C 62.191406 128.859375 62.421875 129.035156 62.570312 129.238281 C 62.714844 129.445312 62.804688 129.765625 62.714844 130.113281 C 62.480469 130.902344 60.351562 133.09375 59.679688 133.5 C 59.417969 133.648438 59.242188 133.675781 59.066406 133.648438 C 58.863281 133.617188 58.628906 133.5 58.484375 133.355469 C 58.367188 133.179688 58.277344 132.945312 58.277344 132.742188 C 58.277344 132.539062 58.308594 132.390625 58.511719 132.128906 C 59.15625 131.339844 63.210938 129.0625 64.4375 128.304688 C 65.019531 127.953125 65.34375 127.664062 65.691406 127.605469 C 65.898438 127.574219 66.101562 127.605469 66.277344 127.691406 C 66.453125 127.808594 66.683594 128.101562 66.683594 128.335938 C 66.683594 128.566406 66.570312 128.859375 66.246094 129.152344 C 65.109375 130.144531 57.988281 132.800781 56.351562 132.800781 C 55.828125 132.828125 55.476562 132.710938 55.300781 132.449219 C 55.125 132.214844 55.066406 131.691406 55.273438 131.339844 C 55.621094 130.757812 57.199219 130.289062 58.308594 129.824219 C 59.621094 129.269531 61.460938 128.65625 62.65625 128.304688 C 63.472656 128.070312 64.085938 127.808594 64.730469 127.75 C 65.226562 127.722656 65.839844 127.691406 66.160156 127.867188 C 66.363281 127.953125 66.511719 128.160156 66.570312 128.335938 C 66.65625 128.507812 66.683594 128.773438 66.570312 128.976562 C 66.453125 129.210938 65.722656 129.558594 65.722656 129.558594 " clip-rule="nonzero"/></clipPath><clipPath id="a97544656c"><path d="M 0 0.40625 L 19 0.40625 L 19 15.941406 L 0 15.941406 Z M 0 0.40625 " clip-rule="nonzero"/></clipPath><clipPath id="92cf5cfe46"><path d="M 14.722656 9.558594 C 10.957031 10.320312 6.285156 12.828125 5.117188 12.859375 C 4.796875 12.859375 4.621094 12.769531 4.476562 12.625 C 4.300781 12.480469 4.125 12.246094 4.125 12.042969 C 4.125 11.75 4.214844 11.371094 4.59375 11.019531 C 5.789062 9.96875 13.175781 7.574219 14.691406 7.605469 C 15.128906 7.632812 15.421875 7.75 15.570312 7.953125 C 15.683594 8.160156 15.742188 8.539062 15.539062 8.890625 C 14.925781 10 9.496094 13.53125 8.269531 13.648438 C 7.890625 13.675781 7.65625 13.53125 7.484375 13.355469 C 7.335938 13.121094 7.25 12.710938 7.367188 12.332031 C 7.65625 11.488281 9.554688 9.328125 10.34375 9.003906 C 10.753906 8.832031 11.191406 8.949219 11.421875 9.09375 C 11.597656 9.210938 11.714844 9.445312 11.746094 9.648438 C 11.773438 9.851562 11.804688 10.054688 11.628906 10.320312 C 10.925781 11.28125 5.03125 15.105469 3.601562 15.164062 C 3.105469 15.164062 2.726562 14.929688 2.578125 14.640625 C 2.433594 14.375 2.433594 13.9375 2.695312 13.5 C 3.339844 12.421875 7.921875 9.734375 8.972656 9.414062 C 9.292969 9.296875 9.4375 9.296875 9.644531 9.386719 C 9.847656 9.445312 10.050781 9.617188 10.167969 9.824219 C 10.257812 10 10.3125 10.289062 10.257812 10.496094 C 10.226562 10.699219 10.109375 10.816406 9.90625 11.050781 C 9.351562 11.660156 7.105469 13.53125 6.34375 13.734375 C 6.023438 13.820312 5.820312 13.761719 5.613281 13.648438 C 5.410156 13.5 5.148438 13.152344 5.117188 12.859375 C 5.089844 12.597656 5.207031 12.304688 5.46875 12.011719 C 5.996094 11.457031 8.066406 10.40625 8.765625 10.289062 C 9.058594 10.261719 9.261719 10.347656 9.4375 10.464844 C 9.644531 10.582031 9.816406 10.816406 9.875 11.050781 C 9.90625 11.339844 9.789062 11.75 9.46875 12.101562 C 8.855469 12.886719 6.519531 14.027344 5.292969 14.609375 C 4.449219 15.019531 3.777344 15.28125 3.015625 15.457031 C 2.316406 15.660156 1.296875 16.070312 0.855469 15.777344 C 0.476562 15.574219 0.273438 14.726562 0.332031 14.257812 C 0.390625 13.851562 0.796875 13.589844 1.207031 13.121094 C 1.9375 12.273438 3.308594 10.902344 4.503906 9.824219 C 5.761719 8.683594 7.425781 7.253906 8.59375 6.4375 C 9.378906 5.882812 10.140625 5.210938 10.664062 5.242188 C 10.984375 5.242188 11.308594 5.503906 11.421875 5.738281 C 11.511719 5.910156 11.511719 6.117188 11.363281 6.464844 C 10.722656 7.808594 4.390625 14.582031 2.988281 14.726562 C 2.578125 14.785156 2.199219 14.433594 2.113281 14.203125 C 2.054688 13.996094 2.140625 13.734375 2.402344 13.382812 C 3.28125 12.128906 9.789062 7.457031 11.453125 6.671875 C 12.007812 6.378906 12.386719 6.261719 12.679688 6.320312 C 12.855469 6.378906 13 6.554688 13.058594 6.730469 C 13.117188 6.933594 13.144531 7.195312 12.96875 7.457031 C 12.445312 8.304688 8.359375 10.785156 7.335938 10.933594 C 6.988281 10.992188 6.753906 10.875 6.605469 10.726562 C 6.433594 10.550781 6.285156 10.230469 6.34375 9.96875 C 6.460938 9.5 7.191406 9.035156 8.066406 8.394531 C 9.933594 7.019531 16.355469 2.992188 17.875 2.699219 C 18.28125 2.640625 18.546875 2.671875 18.722656 2.847656 C 18.894531 2.964844 18.984375 3.285156 18.953125 3.488281 C 18.925781 3.691406 18.835938 3.839844 18.546875 4.074219 C 17.496094 4.917969 10.429688 8.625 9.46875 8.160156 C 9.175781 8.011719 9.089844 7.285156 9.234375 7.109375 C 9.378906 6.933594 9.964844 7.285156 10.488281 7.167969 C 11.453125 6.933594 13.640625 5.09375 14.429688 5.007812 C 14.722656 4.976562 14.898438 5.035156 15.070312 5.183594 C 15.246094 5.328125 15.453125 5.707031 15.453125 5.96875 C 15.453125 6.175781 15.394531 6.464844 15.21875 6.582031 C 14.957031 6.730469 14.253906 6.40625 13.933594 6.582031 C 13.640625 6.730469 13.640625 7.195312 13.292969 7.488281 C 12.5625 8.070312 10.867188 8.625 9.378906 9.269531 C 7.425781 10.085938 3.835938 12.101562 2.609375 12.011719 C 2.140625 11.984375 1.761719 11.71875 1.675781 11.488281 C 1.585938 11.222656 1.792969 10.785156 2.113281 10.496094 C 2.609375 9.941406 3.835938 9.558594 5.117188 9.0625 C 7.191406 8.304688 12.007812 7.488281 13.4375 6.699219 C 14.019531 6.40625 14.167969 5.882812 14.546875 5.792969 C 14.808594 5.707031 15.128906 5.707031 15.304688 5.851562 C 15.511719 6.027344 15.742188 6.496094 15.65625 6.730469 C 15.539062 7.019531 15.015625 7.226562 14.546875 7.3125 C 13.875 7.457031 12.707031 7.078125 11.949219 7.136719 C 11.363281 7.195312 11.074219 7.253906 10.371094 7.574219 C 8.535156 8.421875 2.460938 13.617188 1.207031 13.617188 C 0.886719 13.617188 0.710938 13.414062 0.625 13.207031 C 0.507812 13.035156 0.476562 12.800781 0.59375 12.480469 C 0.945312 11.574219 3.484375 9.152344 4.796875 7.839844 C 5.847656 6.789062 7.015625 5.328125 7.746094 5.09375 C 8.097656 4.976562 8.476562 5.035156 8.621094 5.210938 C 8.824219 5.414062 8.882812 5.882812 8.738281 6.261719 C 8.417969 7.050781 6.226562 8.890625 5.382812 9.152344 C 5.003906 9.269531 4.621094 9.210938 4.417969 9.035156 C 4.214844 8.832031 4.097656 8.480469 4.214844 8.070312 C 4.535156 6.816406 9.117188 2.058594 10.429688 1.476562 C 10.867188 1.269531 11.277344 1.269531 11.480469 1.445312 C 11.6875 1.621094 11.804688 2.058594 11.628906 2.496094 C 11.21875 3.664062 6.753906 7.253906 5.761719 7.78125 C 5.5 7.925781 5.351562 7.984375 5.175781 7.953125 C 4.945312 7.898438 4.621094 7.691406 4.503906 7.488281 C 4.390625 7.285156 4.359375 6.933594 4.476562 6.671875 C 4.710938 6.261719 5.441406 6.027344 6.257812 5.5625 C 8.007812 4.570312 13.144531 1.417969 14.664062 1.386719 C 15.21875 1.386719 15.683594 1.648438 15.832031 1.941406 C 15.949219 2.234375 15.65625 2.875 15.480469 3.226562 C 15.304688 3.519531 15.128906 3.636719 14.78125 3.957031 C 14.078125 4.628906 11.917969 6.875 11.160156 6.960938 C 10.839844 6.992188 10.578125 6.789062 10.460938 6.582031 C 10.3125 6.378906 10.285156 6.144531 10.34375 5.792969 C 10.488281 4.917969 11.890625 2.085938 12.472656 1.621094 C 12.707031 1.476562 12.914062 1.476562 13.117188 1.503906 C 13.292969 1.535156 13.523438 1.648438 13.640625 1.824219 C 13.789062 2.058594 13.875 2.410156 13.730469 2.847656 C 13.292969 3.925781 9.527344 7.371094 8.476562 7.808594 C 8.125 7.953125 7.890625 7.953125 7.6875 7.867188 C 7.453125 7.722656 7.191406 7.253906 7.191406 7.019531 C 7.160156 6.816406 7.25 6.699219 7.425781 6.4375 C 7.949219 5.765625 10.429688 3.285156 11.363281 3.136719 C 11.804688 3.050781 12.269531 3.3125 12.417969 3.546875 C 12.5625 3.78125 12.417969 4.480469 12.269531 4.539062 C 12.066406 4.597656 11.042969 3.34375 11.160156 3.195312 C 11.21875 3.050781 12.09375 3.136719 12.269531 3.34375 C 12.445312 3.578125 12.472656 4.042969 12.242188 4.480469 C 11.480469 5.941406 4.183594 11.28125 2.871094 11.222656 C 2.492188 11.222656 2.257812 10.902344 2.171875 10.667969 C 2.113281 10.464844 2.140625 10.289062 2.316406 9.941406 C 2.988281 8.65625 8.445312 2.585938 9.875 1.796875 C 10.3125 1.5625 10.636719 1.503906 10.867188 1.621094 C 11.074219 1.738281 11.277344 2.058594 11.21875 2.410156 C 10.925781 3.636719 4.449219 8.859375 3.164062 9.121094 C 2.8125 9.179688 2.609375 9.0625 2.433594 8.917969 C 2.289062 8.714844 2.171875 8.394531 2.257812 8.011719 C 2.519531 7.078125 5.03125 4.160156 6.023438 3.78125 C 6.433594 3.605469 6.957031 3.664062 7.160156 3.867188 C 7.335938 4.101562 7.367188 4.65625 7.160156 5.035156 C 6.871094 5.679688 5.441406 6.175781 4.5625 6.992188 C 3.484375 8.011719 2.054688 10.347656 1.296875 10.757812 C 1.003906 10.902344 0.742188 10.933594 0.535156 10.84375 C 0.332031 10.757812 0.0703125 10.496094 0.0117188 10.289062 C -0.0195312 10.054688 0.0117188 9.882812 0.214844 9.53125 C 0.855469 8.304688 5.292969 3.109375 6.664062 2.378906 C 7.132812 2.117188 7.542969 2.058594 7.773438 2.203125 C 8.007812 2.378906 8.210938 2.875 8.097656 3.3125 C 7.714844 4.480469 3.398438 8.101562 2.199219 8.507812 C 1.792969 8.625 1.441406 8.566406 1.238281 8.421875 C 1.03125 8.277344 0.886719 7.984375 0.914062 7.691406 C 0.914062 7.3125 1.238281 6.902344 1.617188 6.347656 C 2.460938 5.09375 5.234375 1.503906 6.34375 0.949219 C 6.78125 0.714844 7.21875 0.6875 7.453125 0.863281 C 7.65625 1.007812 7.804688 1.503906 7.65625 1.941406 C 7.308594 2.964844 3.894531 5.621094 2.84375 6.085938 C 2.433594 6.292969 2.113281 6.320312 1.878906 6.234375 C 1.675781 6.175781 1.527344 5.96875 1.441406 5.765625 C 1.382812 5.589844 1.351562 5.414062 1.441406 5.152344 C 1.675781 4.511719 3.105469 2.527344 3.835938 2.234375 C 4.214844 2.058594 4.710938 2.144531 4.914062 2.320312 C 5.148438 2.527344 5.234375 3.082031 5.175781 3.34375 C 5.117188 3.546875 4.945312 3.691406 4.738281 3.839844 C 4.449219 4.042969 3.777344 4.277344 3.398438 4.277344 C 3.164062 4.277344 2.929688 4.21875 2.753906 4.101562 C 2.578125 3.984375 2.433594 3.78125 2.402344 3.546875 C 2.347656 3.3125 2.433594 3.023438 2.609375 2.730469 C 2.871094 2.261719 3.660156 1.300781 4.097656 1.269531 C 4.390625 1.269531 4.5625 1.855469 4.886719 1.972656 C 5.148438 2.058594 5.789062 1.882812 5.820312 1.941406 C 5.820312 2 5.117188 2.410156 4.945312 2.351562 C 4.828125 2.292969 4.886719 1.765625 4.796875 1.765625 C 4.710938 1.765625 4.59375 2.4375 4.359375 2.585938 C 4.125 2.730469 3.6875 2.789062 3.453125 2.671875 C 3.164062 2.527344 2.8125 1.941406 2.84375 1.648438 C 2.898438 1.328125 3.367188 0.832031 3.6875 0.773438 C 3.980469 0.746094 4.5625 1.066406 4.710938 1.359375 C 4.855469 1.589844 4.796875 2.03125 4.652344 2.261719 C 4.503906 2.496094 4.125 2.730469 3.863281 2.730469 C 3.601562 2.757812 3.191406 2.527344 3.046875 2.351562 C 2.898438 2.175781 2.785156 1.941406 2.84375 1.738281 C 2.988281 1.359375 4.183594 0.6875 4.769531 0.539062 C 5.117188 0.453125 5.527344 0.425781 5.789062 0.597656 C 6.054688 0.804688 6.34375 1.359375 6.257812 1.796875 C 6.082031 2.527344 4.332031 4.042969 3.628906 4.21875 C 3.25 4.335938 2.8125 4.160156 2.609375 3.957031 C 2.433594 3.808594 2.375 3.546875 2.375 3.34375 C 2.375 3.136719 2.433594 2.875 2.609375 2.730469 C 2.929688 2.410156 4.097656 2.058594 4.535156 2.117188 C 4.769531 2.144531 4.945312 2.320312 5.058594 2.496094 C 5.175781 2.671875 5.292969 2.847656 5.234375 3.136719 C 5.089844 3.78125 3.542969 5.707031 2.84375 6.085938 C 2.492188 6.292969 2.113281 6.347656 1.878906 6.234375 C 1.644531 6.144531 1.441406 5.792969 1.382812 5.589844 C 1.351562 5.386719 1.382812 5.210938 1.527344 4.976562 C 1.964844 4.277344 4.183594 2.46875 5.234375 1.738281 C 5.9375 1.242188 6.636719 0.65625 7.074219 0.6875 C 7.335938 0.714844 7.601562 0.949219 7.6875 1.152344 C 7.804688 1.359375 7.804688 1.589844 7.65625 1.941406 C 7.21875 3.082031 3.601562 7.75 2.375 8.363281 C 1.90625 8.597656 1.46875 8.566406 1.238281 8.421875 C 1.03125 8.304688 0.914062 7.925781 0.914062 7.691406 C 0.914062 7.488281 0.972656 7.371094 1.179688 7.136719 C 1.820312 6.261719 5.644531 2.671875 6.8125 2.234375 C 7.21875 2.058594 7.570312 2.058594 7.773438 2.203125 C 8.007812 2.378906 8.210938 2.816406 8.097656 3.3125 C 7.746094 4.742188 2.726562 9.851562 1.441406 10.609375 C 1.0625 10.84375 0.769531 10.933594 0.535156 10.84375 C 0.300781 10.785156 0.0703125 10.496094 0.0117188 10.289062 C -0.0195312 10.054688 0.0390625 9.851562 0.214844 9.53125 C 0.625 8.714844 2.375 6.816406 3.425781 5.792969 C 4.300781 4.949219 5.324219 4.015625 6.023438 3.78125 C 6.375 3.636719 6.78125 3.578125 6.988281 3.75 C 7.21875 3.925781 7.394531 4.421875 7.277344 4.859375 C 7.015625 5.882812 4.066406 8.917969 3.164062 9.121094 C 2.8125 9.179688 2.460938 8.976562 2.316406 8.742188 C 2.199219 8.539062 2.171875 8.21875 2.347656 7.839844 C 2.8125 6.875 5.703125 4.773438 7.191406 3.664062 C 8.300781 2.789062 9.613281 1.589844 10.34375 1.535156 C 10.664062 1.503906 10.984375 1.707031 11.101562 1.882812 C 11.21875 2.058594 11.277344 2.261719 11.160156 2.585938 C 10.664062 3.925781 4.417969 10.960938 3.046875 11.222656 C 2.695312 11.28125 2.375 11.050781 2.257812 10.84375 C 2.113281 10.640625 2.113281 10.320312 2.316406 9.941406 C 3.046875 8.625 9.554688 3.605469 11.160156 3.195312 C 11.65625 3.050781 12.066406 3.167969 12.269531 3.34375 C 12.445312 3.519531 12.503906 3.925781 12.445312 4.132812 C 12.417969 4.335938 12.242188 4.628906 12.09375 4.628906 C 11.863281 4.628906 11.074219 3.402344 11.160156 3.226562 C 11.277344 3.082031 12.125 3.167969 12.300781 3.371094 C 12.472656 3.605469 12.472656 4.101562 12.269531 4.539062 C 11.863281 5.414062 9.320312 7.488281 8.476562 7.808594 C 8.15625 7.953125 7.890625 7.953125 7.6875 7.867188 C 7.453125 7.722656 7.132812 7.398438 7.191406 7.019531 C 7.308594 5.96875 11.539062 2.144531 12.472656 1.621094 C 12.765625 1.476562 12.914062 1.476562 13.117188 1.503906 C 13.292969 1.535156 13.523438 1.648438 13.640625 1.824219 C 13.789062 2.058594 13.816406 2.527344 13.699219 2.992188 C 13.496094 3.75 12.125 5.09375 11.863281 5.792969 C 11.714844 6.175781 11.917969 6.554688 11.746094 6.730469 C 11.539062 6.902344 11.015625 6.960938 10.753906 6.847656 C 10.546875 6.757812 10.34375 6.4375 10.285156 6.203125 C 10.257812 5.96875 10.371094 5.738281 10.578125 5.445312 C 11.101562 4.6875 13.757812 2.058594 14.371094 2.144531 C 14.632812 2.203125 14.925781 2.640625 14.839844 2.964844 C 14.488281 4.042969 6.492188 8.011719 5.175781 7.953125 C 4.796875 7.925781 4.59375 7.722656 4.503906 7.488281 C 4.390625 7.253906 4.417969 6.902344 4.59375 6.496094 C 5.058594 5.589844 7.453125 3.75 8.652344 2.816406 C 9.496094 2.144531 10.402344 1.300781 10.957031 1.269531 C 11.21875 1.242188 11.480469 1.386719 11.597656 1.589844 C 11.746094 1.796875 11.773438 2.085938 11.628906 2.496094 C 11.160156 3.722656 6.550781 8.363281 5.554688 9.035156 C 5.292969 9.210938 5.175781 9.269531 5.003906 9.238281 C 4.769531 9.238281 4.417969 9.0625 4.300781 8.859375 C 4.15625 8.683594 4.125 8.304688 4.214844 8.070312 C 4.273438 7.867188 4.390625 7.78125 4.621094 7.546875 C 5.207031 6.992188 7.160156 5.152344 7.921875 5.035156 C 8.269531 4.976562 8.621094 5.152344 8.765625 5.355469 C 8.882812 5.5625 8.882812 5.910156 8.738281 6.261719 C 8.417969 6.960938 6.871094 7.808594 5.847656 8.832031 C 4.5625 10.113281 2.636719 13.003906 1.761719 13.472656 C 1.46875 13.648438 1.238281 13.675781 1.03125 13.589844 C 0.828125 13.472656 0.535156 13.09375 0.507812 12.859375 C 0.507812 12.625 0.59375 12.480469 0.828125 12.1875 C 1.792969 11.105469 7.773438 6.875 9.816406 5.941406 C 10.722656 5.53125 11.160156 5.472656 11.949219 5.414062 C 12.882812 5.355469 14.984375 5.53125 15.015625 5.738281 C 15.042969 5.851562 14.109375 6.175781 14.109375 6.175781 C 14.109375 6.203125 14.867188 5.679688 15.128906 5.765625 C 15.394531 5.851562 15.683594 6.40625 15.65625 6.730469 C 15.597656 7.109375 15.160156 7.546875 14.605469 7.898438 C 13.378906 8.625 10.050781 8.976562 8.007812 9.675781 C 6.082031 10.347656 3.660156 12.070312 2.609375 12.011719 C 2.171875 11.984375 1.761719 11.71875 1.675781 11.488281 C 1.585938 11.222656 1.761719 10.816406 2.113281 10.496094 C 2.957031 9.617188 6.605469 8.714844 8.652344 7.78125 C 10.519531 6.902344 12.796875 5.242188 13.90625 5.066406 C 14.429688 4.976562 15.070312 5.210938 15.070312 5.242188 C 15.042969 5.296875 13.816406 5.328125 13.816406 5.296875 C 13.816406 5.269531 14.605469 4.976562 14.867188 5.066406 C 15.101562 5.152344 15.363281 5.503906 15.421875 5.738281 C 15.480469 5.941406 15.453125 6.175781 15.335938 6.378906 C 15.160156 6.757812 14.632812 7.253906 14.167969 7.488281 C 13.671875 7.75 12.941406 7.691406 12.386719 7.898438 C 11.832031 8.128906 11.394531 8.773438 10.78125 8.859375 C 10.109375 8.976562 8.765625 8.742188 8.476562 8.335938 C 8.269531 7.984375 8.328125 7.34375 8.710938 6.847656 C 9.730469 5.503906 16.648438 2.671875 18.050781 2.640625 C 18.457031 2.640625 18.722656 2.789062 18.835938 2.964844 C 18.984375 3.136719 19.070312 3.371094 18.925781 3.664062 C 18.28125 4.949219 9.351562 10.609375 7.542969 10.875 C 7.015625 10.933594 6.605469 10.785156 6.460938 10.550781 C 6.316406 10.320312 6.375 9.851562 6.664062 9.445312 C 7.308594 8.539062 11.074219 6.378906 12.09375 6.292969 C 12.503906 6.234375 12.796875 6.378906 12.941406 6.582031 C 13.085938 6.757812 13.175781 7.109375 12.96875 7.457031 C 12.300781 8.859375 4.476562 14.582031 2.988281 14.726562 C 2.609375 14.785156 2.316406 14.582031 2.199219 14.375 C 2.082031 14.171875 2.082031 13.910156 2.257812 13.5 C 2.898438 12.101562 9.089844 5.589844 10.460938 5.269531 C 10.867188 5.183594 11.191406 5.355469 11.335938 5.5625 C 11.480469 5.792969 11.453125 6.234375 11.21875 6.613281 C 10.753906 7.429688 8.503906 8.363281 7.160156 9.53125 C 5.644531 10.84375 3.542969 13.5 2.667969 14.257812 C 2.316406 14.550781 2.171875 14.757812 1.90625 14.757812 C 1.617188 14.757812 0.914062 14.347656 0.945312 14.144531 C 0.972656 13.734375 3.222656 13.472656 4.449219 12.917969 C 5.820312 12.273438 7.863281 10.40625 8.765625 10.289062 C 9.148438 10.261719 9.4375 10.40625 9.644531 10.609375 C 9.816406 10.816406 9.964844 11.222656 9.875 11.515625 C 9.730469 11.953125 8.914062 12.421875 8.328125 12.769531 C 7.6875 13.179688 6.605469 13.761719 6.082031 13.761719 C 5.789062 13.761719 5.585938 13.675781 5.441406 13.5 C 5.265625 13.296875 5.058594 12.945312 5.117188 12.625 C 5.234375 12.1875 5.90625 11.660156 6.433594 11.195312 C 7.160156 10.582031 8.503906 9.386719 9.175781 9.328125 C 9.585938 9.296875 10.023438 9.558594 10.167969 9.824219 C 10.3125 10.085938 10.285156 10.496094 10.050781 10.902344 C 9.527344 11.808594 6.433594 13.5 5.175781 14.230469 C 4.449219 14.667969 3.835938 15.195312 3.367188 15.164062 C 3.046875 15.136719 2.726562 14.902344 2.578125 14.640625 C 2.433594 14.40625 2.347656 14.054688 2.550781 13.707031 C 3.191406 12.566406 9.496094 8.949219 10.78125 8.890625 C 11.191406 8.859375 11.421875 9.035156 11.570312 9.238281 C 11.714844 9.445312 11.804688 9.765625 11.714844 10.113281 C 11.480469 10.902344 9.351562 13.09375 8.679688 13.5 C 8.417969 13.648438 8.242188 13.675781 8.066406 13.648438 C 7.863281 13.617188 7.628906 13.5 7.484375 13.355469 C 7.367188 13.179688 7.277344 12.945312 7.277344 12.742188 C 7.277344 12.539062 7.308594 12.390625 7.511719 12.128906 C 8.15625 11.339844 12.210938 9.0625 13.4375 8.304688 C 14.019531 7.953125 14.34375 7.664062 14.691406 7.605469 C 14.898438 7.574219 15.101562 7.605469 15.277344 7.691406 C 15.453125 7.808594 15.683594 8.101562 15.683594 8.335938 C 15.683594 8.566406 15.570312 8.859375 15.246094 9.152344 C 14.109375 10.144531 6.988281 12.800781 5.351562 12.800781 C 4.828125 12.828125 4.476562 12.710938 4.300781 12.449219 C 4.125 12.214844 4.066406 11.691406 4.273438 11.339844 C 4.621094 10.757812 6.199219 10.289062 7.308594 9.824219 C 8.621094 9.269531 10.460938 8.65625 11.65625 8.304688 C 12.472656 8.070312 13.085938 7.808594 13.730469 7.75 C 14.226562 7.722656 14.839844 7.691406 15.160156 7.867188 C 15.363281 7.953125 15.511719 8.160156 15.570312 8.335938 C 15.65625 8.507812 15.683594 8.773438 15.570312 8.976562 C 15.453125 9.210938 14.722656 9.558594 14.722656 9.558594 " clip-rule="nonzero"/></clipPath><clipPath id="a77c513d95"><rect x="0" width="19" y="0" height="16"/></clipPath><clipPath id="9243b24c4f"><path d="M 57.136719 33.859375 L 58.808594 33.859375 L 58.808594 35.277344 L 57.136719 35.277344 Z M 57.136719 33.859375 " clip-rule="nonzero"/></clipPath><clipPath id="fd22e3766c"><path d="M 58.804688 34.34375 C 58.046875 35.542969 57.375 35.308594 57.199219 35.074219 C 57.054688 34.8125 57.199219 34.113281 57.433594 33.9375 C 57.636719 33.761719 58.570312 33.996094 58.570312 33.996094 " clip-rule="nonzero"/></clipPath><clipPath id="0789db319f"><path d="M 0.136719 0.859375 L 1.808594 0.859375 L 1.808594 2.277344 L 0.136719 2.277344 Z M 0.136719 0.859375 " clip-rule="nonzero"/></clipPath><clipPath id="db1072d3bf"><path d="M 1.804688 1.34375 C 1.046875 2.542969 0.375 2.308594 0.199219 2.074219 C 0.0546875 1.8125 0.199219 1.113281 0.433594 0.9375 C 0.636719 0.761719 1.570312 0.996094 1.570312 0.996094 " clip-rule="nonzero"/></clipPath><clipPath id="88287b2750"><rect x="0" width="2" y="0" height="3"/></clipPath><clipPath id="727b27e6f4"><path d="M 57.007812 32.839844 L 61.917969 32.839844 L 61.917969 36.203125 L 57.007812 36.203125 Z M 57.007812 32.839844 " clip-rule="nonzero"/></clipPath><clipPath id="aacc37ddd7"><path d="M 58.804688 34.113281 C 61.839844 34.78125 61.925781 35.308594 61.839844 35.570312 C 61.722656 35.863281 61.34375 36.15625 60.964844 36.183594 C 60.234375 36.242188 58.308594 34.519531 57.8125 34.609375 C 57.636719 34.636719 57.605469 34.929688 57.492188 34.929688 C 57.375 34.929688 57.140625 34.609375 57.082031 34.433594 C 56.996094 34.226562 56.996094 33.964844 57.082031 33.761719 C 57.199219 33.527344 57.519531 33.265625 57.753906 33.207031 C 57.957031 33.148438 58.25 33.175781 58.425781 33.292969 C 58.65625 33.46875 58.921875 34.023438 58.863281 34.316406 C 58.832031 34.578125 58.542969 34.898438 58.308594 34.988281 C 58.046875 35.074219 57.636719 35.046875 57.433594 34.898438 C 57.199219 34.695312 56.996094 34.113281 57.082031 33.820312 C 57.140625 33.558594 57.460938 33.265625 57.722656 33.207031 C 57.957031 33.148438 58.367188 33.234375 58.570312 33.410156 C 58.773438 33.585938 58.921875 33.964844 58.890625 34.226562 C 58.863281 34.492188 58.628906 34.839844 58.394531 34.957031 C 58.160156 35.074219 57.722656 35.074219 57.492188 34.929688 C 57.257812 34.78125 56.996094 34.257812 57.023438 33.964844 C 57.054688 33.703125 57.316406 33.382812 57.550781 33.265625 C 57.78125 33.148438 58.277344 33.410156 58.425781 33.292969 C 58.511719 33.207031 58.367188 32.914062 58.484375 32.855469 C 58.804688 32.710938 61.3125 34.171875 61.722656 34.722656 C 61.898438 34.957031 61.925781 35.164062 61.898438 35.367188 C 61.867188 35.570312 61.753906 35.804688 61.578125 35.949219 C 61.3125 36.125 60.761719 36.183594 60.261719 36.15625 C 59.621094 36.125 58.394531 35.980469 58.046875 35.601562 C 57.8125 35.335938 57.78125 34.839844 57.929688 34.578125 C 58.046875 34.34375 58.804688 34.113281 58.804688 34.113281 " clip-rule="nonzero"/></clipPath><clipPath id="ddd1d92519"><path d="M 0.0078125 0.839844 L 4.917969 0.839844 L 4.917969 4.203125 L 0.0078125 4.203125 Z M 0.0078125 0.839844 " clip-rule="nonzero"/></clipPath><clipPath id="45cbef801e"><path d="M 1.804688 2.113281 C 4.839844 2.78125 4.925781 3.308594 4.839844 3.570312 C 4.722656 3.863281 4.34375 4.15625 3.964844 4.183594 C 3.234375 4.242188 1.308594 2.519531 0.8125 2.609375 C 0.636719 2.636719 0.605469 2.929688 0.492188 2.929688 C 0.375 2.929688 0.140625 2.609375 0.0820312 2.433594 C -0.00390625 2.226562 -0.00390625 1.964844 0.0820312 1.761719 C 0.199219 1.527344 0.519531 1.265625 0.753906 1.207031 C 0.957031 1.148438 1.25 1.175781 1.425781 1.292969 C 1.65625 1.46875 1.921875 2.023438 1.863281 2.316406 C 1.832031 2.578125 1.542969 2.898438 1.308594 2.988281 C 1.046875 3.074219 0.636719 3.046875 0.433594 2.898438 C 0.199219 2.695312 -0.00390625 2.113281 0.0820312 1.820312 C 0.140625 1.558594 0.460938 1.265625 0.722656 1.207031 C 0.957031 1.148438 1.367188 1.234375 1.570312 1.410156 C 1.773438 1.585938 1.921875 1.964844 1.890625 2.226562 C 1.863281 2.492188 1.628906 2.839844 1.394531 2.957031 C 1.160156 3.074219 0.722656 3.074219 0.492188 2.929688 C 0.257812 2.78125 -0.00390625 2.257812 0.0234375 1.964844 C 0.0546875 1.703125 0.316406 1.382812 0.550781 1.265625 C 0.78125 1.148438 1.277344 1.410156 1.425781 1.292969 C 1.511719 1.207031 1.367188 0.914062 1.484375 0.855469 C 1.804688 0.710938 4.3125 2.171875 4.722656 2.722656 C 4.898438 2.957031 4.925781 3.164062 4.898438 3.367188 C 4.867188 3.570312 4.753906 3.804688 4.578125 3.949219 C 4.3125 4.125 3.761719 4.183594 3.261719 4.15625 C 2.621094 4.125 1.394531 3.980469 1.046875 3.601562 C 0.8125 3.335938 0.78125 2.839844 0.929688 2.578125 C 1.046875 2.34375 1.804688 2.113281 1.804688 2.113281 " clip-rule="nonzero"/></clipPath><clipPath id="753013ebbd"><rect x="0" width="5" y="0" height="5"/></clipPath><clipPath id="86c621199d"><path d="M 57.265625 34.238281 L 58.925781 34.238281 L 58.925781 35.65625 L 57.265625 35.65625 Z M 57.265625 34.238281 " clip-rule="nonzero"/></clipPath><clipPath id="5a530c4be2"><path d="M 58.921875 34.722656 C 58.191406 35.921875 57.492188 35.6875 57.34375 35.453125 C 57.199219 35.191406 57.316406 34.492188 57.550781 34.316406 C 57.78125 34.140625 58.714844 34.375 58.714844 34.375 " clip-rule="nonzero"/></clipPath><clipPath id="060e96b209"><path d="M 0.265625 0.238281 L 1.925781 0.238281 L 1.925781 1.65625 L 0.265625 1.65625 Z M 0.265625 0.238281 " clip-rule="nonzero"/></clipPath><clipPath id="bff35c819d"><path d="M 1.921875 0.722656 C 1.191406 1.921875 0.492188 1.6875 0.34375 1.453125 C 0.199219 1.191406 0.316406 0.492188 0.550781 0.316406 C 0.78125 0.140625 1.714844 0.375 1.714844 0.375 " clip-rule="nonzero"/></clipPath><clipPath id="33f008604c"><rect x="0" width="2" y="0" height="2"/></clipPath><clipPath id="4d8b496254"><path d="M 57.515625 34.488281 L 59.1875 34.488281 L 59.1875 35.890625 L 57.515625 35.890625 Z M 57.515625 34.488281 " clip-rule="nonzero"/></clipPath><clipPath id="c3a3d8536f"><path d="M 59.183594 34.988281 C 58.425781 36.15625 57.722656 35.949219 57.578125 35.6875 C 57.433594 35.453125 57.578125 34.722656 57.78125 34.550781 C 58.015625 34.375 58.949219 34.636719 58.949219 34.636719 " clip-rule="nonzero"/></clipPath><clipPath id="d9a6070cd6"><path d="M 0.515625 0.488281 L 2.1875 0.488281 L 2.1875 1.890625 L 0.515625 1.890625 Z M 0.515625 0.488281 " clip-rule="nonzero"/></clipPath><clipPath id="4f20b07491"><path d="M 2.183594 0.988281 C 1.425781 2.15625 0.722656 1.949219 0.578125 1.6875 C 0.433594 1.453125 0.578125 0.722656 0.78125 0.550781 C 1.015625 0.375 1.949219 0.636719 1.949219 0.636719 " clip-rule="nonzero"/></clipPath><clipPath id="a3e3c5dd46"><rect x="0" width="3" y="0" height="2"/></clipPath><clipPath id="9e777a77d6"><path d="M 53.027344 23.332031 L 71.621094 23.332031 L 71.621094 34.550781 L 53.027344 34.550781 Z M 53.027344 23.332031 " clip-rule="nonzero"/></clipPath><clipPath id="185b59803b"><path d="M 56.761719 30.375 C 64.085938 32.796875 64.46875 33.265625 64.496094 33.617188 C 64.523438 33.878906 64.292969 34.226562 64.085938 34.34375 C 63.914062 34.492188 63.648438 34.550781 63.445312 34.492188 C 63.183594 34.402344 62.976562 33.847656 62.714844 33.761719 C 62.421875 33.703125 62.25 34.023438 61.78125 34.054688 C 60.378906 34.113281 54.074219 33.0625 53.289062 32.183594 C 53.023438 31.894531 53.023438 31.484375 53.140625 31.25 C 53.257812 31.019531 53.578125 30.84375 53.988281 30.785156 C 54.863281 30.667969 56.761719 31.570312 58.277344 31.863281 C 59.972656 32.183594 62.832031 31.980469 63.707031 32.535156 C 64.117188 32.796875 64.351562 33.234375 64.320312 33.5 C 64.292969 33.761719 64.027344 34.082031 63.621094 34.199219 C 62.570312 34.519531 57.636719 33.558594 56.703125 32.796875 C 56.324219 32.476562 56.175781 31.980469 56.265625 31.71875 C 56.382812 31.457031 56.789062 31.222656 57.285156 31.164062 C 58.542969 30.988281 63.125 32.15625 64.085938 32.828125 C 64.46875 33.089844 64.640625 33.382812 64.640625 33.644531 C 64.640625 33.9375 64.292969 34.34375 64.058594 34.460938 C 63.882812 34.550781 63.738281 34.519531 63.445312 34.433594 C 62.480469 34.199219 58.335938 32.183594 57.664062 31.308594 C 57.402344 30.960938 57.34375 30.578125 57.433594 30.347656 C 57.550781 30.082031 57.8125 29.878906 58.25 29.792969 C 59.59375 29.527344 65.605469 30.902344 66.773438 31.601562 C 67.179688 31.835938 67.355469 32.070312 67.386719 32.300781 C 67.445312 32.535156 67.296875 32.855469 67.125 33.003906 C 66.949219 33.148438 66.742188 33.207031 66.394531 33.175781 C 65.019531 33.089844 58.394531 30.636719 57.34375 29.820312 C 57.054688 29.617188 56.9375 29.441406 56.9375 29.238281 C 56.90625 28.972656 57.023438 28.59375 57.34375 28.449219 C 58.484375 27.921875 66.539062 30.257812 67.734375 31.132812 C 68.085938 31.398438 68.203125 31.660156 68.203125 31.894531 C 68.230469 32.070312 68.117188 32.273438 68 32.390625 C 67.824219 32.535156 67.648438 32.652344 67.296875 32.621094 C 65.867188 32.566406 58.367188 29.296875 57.167969 28.449219 C 56.847656 28.246094 56.730469 28.128906 56.671875 27.921875 C 56.585938 27.777344 56.585938 27.542969 56.671875 27.398438 C 56.820312 27.195312 57.109375 26.988281 57.605469 26.929688 C 59.125 26.8125 66.160156 28.945312 67.414062 29.851562 C 67.824219 30.113281 68 30.40625 68 30.667969 C 68 30.902344 67.765625 31.164062 67.589844 31.28125 C 67.445312 31.367188 67.355469 31.367188 67.066406 31.339844 C 65.722656 31.191406 57.199219 28.332031 56.03125 27.195312 C 55.679688 26.84375 55.535156 26.464844 55.621094 26.230469 C 55.710938 25.996094 56.058594 25.761719 56.554688 25.734375 C 57.898438 25.589844 63.914062 27.515625 64.90625 28.246094 C 65.195312 28.449219 65.285156 28.652344 65.34375 28.859375 C 65.371094 29.0625 65.3125 29.296875 65.195312 29.414062 C 65.019531 29.617188 64.699219 29.761719 64.320312 29.734375 C 63.5625 29.703125 62.21875 28.535156 61.050781 28.011719 C 59.765625 27.457031 57.519531 27.136719 56.964844 26.523438 C 56.703125 26.257812 56.613281 25.851562 56.703125 25.617188 C 56.789062 25.355469 57.023438 25.09375 57.460938 25.035156 C 59.183594 24.742188 69.605469 28.683594 71.035156 29.585938 C 71.355469 29.792969 71.5 29.910156 71.558594 30.113281 C 71.617188 30.316406 71.558594 30.667969 71.414062 30.8125 C 71.269531 30.988281 71.035156 31.074219 70.566406 31.074219 C 68.785156 31.046875 58.601562 27.574219 57.402344 26.492188 C 57.140625 26.257812 57.082031 26.054688 57.109375 25.851562 C 57.140625 25.617188 57.34375 25.238281 57.636719 25.152344 C 58.160156 24.945312 59.125 25.382812 60.261719 25.707031 C 62.480469 26.257812 68.726562 27.953125 69.867188 28.710938 C 70.1875 28.914062 70.304688 29.089844 70.363281 29.296875 C 70.390625 29.5 70.304688 29.851562 70.160156 30.023438 C 70.011719 30.199219 69.808594 30.289062 69.457031 30.289062 C 68.347656 30.199219 64.640625 27.980469 62.976562 26.929688 C 61.839844 26.171875 60.585938 25.382812 60.207031 24.769531 C 60.03125 24.480469 59.972656 24.214844 60.03125 23.984375 C 60.058594 23.808594 60.234375 23.605469 60.378906 23.488281 C 60.554688 23.398438 60.703125 23.3125 60.992188 23.339844 C 61.898438 23.488281 64.757812 25.648438 66.421875 26.464844 C 67.734375 27.136719 69.488281 27.601562 70.101562 28.039062 C 70.332031 28.214844 70.449219 28.332031 70.539062 28.507812 C 70.597656 28.683594 70.625 28.945312 70.566406 29.121094 C 70.480469 29.324219 70.332031 29.527344 70.160156 29.617188 C 69.984375 29.703125 69.808594 29.792969 69.515625 29.703125 C 68.726562 29.46875 65.867188 27.105469 65.402344 26.171875 C 65.195312 25.792969 65.226562 25.382812 65.3125 25.121094 C 65.402344 24.945312 65.632812 24.769531 65.839844 24.710938 C 66.015625 24.65625 66.21875 24.625 66.480469 24.742188 C 67.210938 25.003906 68.992188 27.046875 69.777344 27.425781 C 70.160156 27.601562 70.507812 27.398438 70.714844 27.574219 C 70.945312 27.75 71.09375 28.15625 71.09375 28.417969 C 71.09375 28.625 71.035156 28.859375 70.859375 29.003906 C 70.625 29.179688 69.984375 29.355469 69.691406 29.238281 C 69.429688 29.121094 69.195312 28.769531 69.167969 28.507812 C 69.109375 28.214844 69.28125 27.808594 69.457031 27.632812 C 69.605469 27.484375 69.808594 27.367188 70.042969 27.367188 C 70.277344 27.367188 70.714844 27.515625 70.886719 27.71875 C 71.0625 27.980469 71.09375 28.652344 70.917969 28.914062 C 70.742188 29.179688 70.277344 29.355469 69.808594 29.265625 C 68.785156 29.121094 65.925781 26.902344 65.402344 26.171875 C 65.226562 25.9375 65.195312 25.761719 65.195312 25.558594 C 65.195312 25.355469 65.285156 25.09375 65.460938 24.945312 C 65.632812 24.800781 65.984375 24.65625 66.277344 24.683594 C 66.597656 24.710938 66.917969 24.917969 67.355469 25.238281 C 68.144531 25.820312 70.042969 27.632812 70.421875 28.304688 C 70.566406 28.566406 70.625 28.710938 70.597656 28.914062 C 70.566406 29.148438 70.390625 29.5 70.160156 29.617188 C 69.835938 29.761719 69.3125 29.585938 68.671875 29.382812 C 67.328125 28.945312 64.292969 27.339844 62.773438 26.492188 C 61.78125 25.9375 60.789062 25.355469 60.351562 24.917969 C 60.175781 24.742188 60.058594 24.597656 60.03125 24.421875 C 59.972656 24.214844 60 23.953125 60.117188 23.808594 C 60.261719 23.574219 60.644531 23.3125 61.023438 23.371094 C 61.722656 23.429688 62.65625 24.800781 63.796875 25.558594 C 65.429688 26.609375 69.28125 28.011719 70.042969 28.800781 C 70.304688 29.0625 70.363281 29.265625 70.363281 29.5 C 70.390625 29.675781 70.304688 29.910156 70.160156 30.023438 C 69.925781 30.199219 69.457031 30.199219 68.816406 30.113281 C 66.832031 29.878906 58.453125 27.660156 57.402344 26.492188 C 57.109375 26.171875 57.082031 25.707031 57.199219 25.5 C 57.34375 25.265625 57.695312 25.152344 58.191406 25.179688 C 60.058594 25.179688 69.632812 28.710938 71.035156 29.585938 C 71.355469 29.792969 71.5 29.910156 71.558594 30.113281 C 71.617188 30.316406 71.558594 30.667969 71.414062 30.8125 C 71.269531 30.988281 71.035156 31.074219 70.566406 31.074219 C 68.757812 31.046875 58.160156 27.777344 56.964844 26.523438 C 56.644531 26.203125 56.613281 25.851562 56.703125 25.617188 C 56.789062 25.355469 57.082031 25.09375 57.460938 25.035156 C 58.308594 24.917969 60.4375 25.996094 61.753906 26.582031 C 62.890625 27.078125 64.378906 27.835938 64.90625 28.246094 C 65.109375 28.417969 65.226562 28.507812 65.285156 28.683594 C 65.34375 28.886719 65.3125 29.238281 65.195312 29.414062 C 65.019531 29.617188 64.757812 29.734375 64.320312 29.734375 C 62.976562 29.792969 57.023438 28.097656 56.03125 27.195312 C 55.679688 26.871094 55.535156 26.464844 55.621094 26.230469 C 55.710938 25.996094 56.058594 25.761719 56.554688 25.734375 C 58.160156 25.617188 66.394531 28.859375 67.589844 29.910156 C 67.910156 30.199219 68.027344 30.433594 68 30.667969 C 68 30.902344 67.765625 31.164062 67.589844 31.28125 C 67.445312 31.367188 67.355469 31.367188 67.066406 31.339844 C 65.78125 31.25 58.074219 29.382812 57.023438 28.363281 C 56.671875 28.039062 56.585938 27.632812 56.671875 27.398438 C 56.761719 27.164062 57.109375 26.960938 57.605469 26.929688 C 59.066406 26.871094 65.167969 29.878906 66.742188 30.609375 C 67.328125 30.871094 67.675781 30.960938 67.910156 31.222656 C 68.085938 31.425781 68.203125 31.6875 68.203125 31.894531 C 68.203125 32.070312 68.117188 32.273438 68 32.390625 C 67.824219 32.535156 67.648438 32.621094 67.296875 32.621094 C 66.101562 32.652344 61.546875 31.191406 59.710938 30.636719 C 58.628906 30.289062 57.578125 30.113281 57.199219 29.734375 C 56.996094 29.527344 56.90625 29.265625 56.9375 29.03125 C 56.964844 28.828125 57.109375 28.535156 57.34375 28.449219 C 57.722656 28.273438 58.425781 28.566406 59.269531 28.800781 C 60.992188 29.265625 66.015625 30.929688 66.976562 31.6875 C 67.269531 31.894531 67.355469 32.070312 67.386719 32.300781 C 67.414062 32.535156 67.296875 32.855469 67.125 33.003906 C 66.949219 33.148438 66.773438 33.175781 66.394531 33.175781 C 65.078125 33.207031 58.863281 32.242188 57.8125 31.425781 C 57.460938 31.164062 57.316406 30.8125 57.375 30.550781 C 57.433594 30.257812 57.8125 29.851562 58.25 29.792969 C 59.359375 29.675781 63.503906 32.15625 64.292969 32.945312 C 64.554688 33.207031 64.671875 33.410156 64.640625 33.644531 C 64.613281 33.90625 64.4375 34.316406 64.058594 34.460938 C 63.007812 34.839844 57.664062 33.585938 56.703125 32.796875 C 56.324219 32.476562 56.175781 31.980469 56.265625 31.71875 C 56.382812 31.457031 56.789062 31.222656 57.285156 31.164062 C 58.511719 30.988281 63.035156 31.921875 63.914062 32.621094 C 64.234375 32.886719 64.351562 33.234375 64.320312 33.5 C 64.261719 33.761719 64.027344 34.082031 63.621094 34.199219 C 62.6875 34.550781 59.738281 33.878906 57.957031 33.5 C 56.292969 33.175781 53.8125 32.796875 53.289062 32.183594 C 53.023438 31.894531 53.023438 31.484375 53.140625 31.25 C 53.257812 31.019531 53.550781 30.871094 53.988281 30.785156 C 55.300781 30.578125 60.613281 31.953125 62.277344 32.300781 C 62.976562 32.449219 63.417969 32.476562 63.796875 32.679688 C 64.117188 32.855469 64.410156 33.148438 64.496094 33.410156 C 64.554688 33.644531 64.4375 34.023438 64.261719 34.226562 C 64.085938 34.402344 63.707031 34.550781 63.445312 34.492188 C 63.183594 34.433594 62.832031 33.761719 62.714844 33.761719 C 62.65625 33.789062 62.6875 33.9375 62.597656 33.964844 C 62.101562 34.171875 57.054688 32.566406 56.207031 32.039062 C 55.945312 31.863281 55.828125 31.746094 55.769531 31.570312 C 55.679688 31.398438 55.679688 31.132812 55.738281 30.960938 C 55.796875 30.753906 55.972656 30.550781 56.148438 30.464844 C 56.324219 30.375 56.761719 30.375 56.761719 30.375 " clip-rule="nonzero"/></clipPath><clipPath id="bdd00ce98d"><path d="M 0.0273438 0.332031 L 18.621094 0.332031 L 18.621094 11.550781 L 0.0273438 11.550781 Z M 0.0273438 0.332031 " clip-rule="nonzero"/></clipPath><clipPath id="3b25d79c0e"><path d="M 3.761719 7.375 C 11.085938 9.796875 11.46875 10.265625 11.496094 10.617188 C 11.523438 10.878906 11.292969 11.226562 11.085938 11.34375 C 10.914062 11.492188 10.648438 11.550781 10.445312 11.492188 C 10.183594 11.402344 9.976562 10.847656 9.714844 10.761719 C 9.421875 10.703125 9.25 11.023438 8.78125 11.054688 C 7.378906 11.113281 1.074219 10.0625 0.289062 9.183594 C 0.0234375 8.894531 0.0234375 8.484375 0.140625 8.25 C 0.257812 8.019531 0.578125 7.84375 0.988281 7.785156 C 1.863281 7.667969 3.761719 8.570312 5.277344 8.863281 C 6.972656 9.183594 9.832031 8.980469 10.707031 9.535156 C 11.117188 9.796875 11.351562 10.234375 11.320312 10.5 C 11.292969 10.761719 11.027344 11.082031 10.621094 11.199219 C 9.570312 11.519531 4.636719 10.558594 3.703125 9.796875 C 3.324219 9.476562 3.175781 8.980469 3.265625 8.71875 C 3.382812 8.457031 3.789062 8.222656 4.285156 8.164062 C 5.542969 7.988281 10.125 9.15625 11.085938 9.828125 C 11.46875 10.089844 11.640625 10.382812 11.640625 10.644531 C 11.640625 10.9375 11.292969 11.34375 11.058594 11.460938 C 10.882812 11.550781 10.738281 11.519531 10.445312 11.433594 C 9.480469 11.199219 5.335938 9.183594 4.664062 8.308594 C 4.402344 7.960938 4.34375 7.578125 4.433594 7.347656 C 4.550781 7.082031 4.8125 6.878906 5.25 6.792969 C 6.59375 6.527344 12.605469 7.902344 13.773438 8.601562 C 14.179688 8.835938 14.355469 9.070312 14.386719 9.300781 C 14.445312 9.535156 14.296875 9.855469 14.125 10.003906 C 13.949219 10.148438 13.742188 10.207031 13.394531 10.175781 C 12.019531 10.089844 5.394531 7.636719 4.34375 6.820312 C 4.054688 6.617188 3.9375 6.441406 3.9375 6.238281 C 3.90625 5.972656 4.023438 5.59375 4.34375 5.449219 C 5.484375 4.921875 13.539062 7.257812 14.734375 8.132812 C 15.085938 8.398438 15.203125 8.660156 15.203125 8.894531 C 15.230469 9.070312 15.117188 9.273438 15 9.390625 C 14.824219 9.535156 14.648438 9.652344 14.296875 9.621094 C 12.867188 9.566406 5.367188 6.296875 4.167969 5.449219 C 3.847656 5.246094 3.730469 5.128906 3.671875 4.921875 C 3.585938 4.777344 3.585938 4.542969 3.671875 4.398438 C 3.820312 4.195312 4.109375 3.988281 4.605469 3.929688 C 6.125 3.8125 13.160156 5.945312 14.414062 6.851562 C 14.824219 7.113281 15 7.40625 15 7.667969 C 15 7.902344 14.765625 8.164062 14.589844 8.28125 C 14.445312 8.367188 14.355469 8.367188 14.066406 8.339844 C 12.722656 8.191406 4.199219 5.332031 3.03125 4.195312 C 2.679688 3.84375 2.535156 3.464844 2.621094 3.230469 C 2.710938 2.996094 3.058594 2.761719 3.554688 2.734375 C 4.898438 2.589844 10.914062 4.515625 11.90625 5.246094 C 12.195312 5.449219 12.285156 5.652344 12.34375 5.859375 C 12.371094 6.0625 12.3125 6.296875 12.195312 6.414062 C 12.019531 6.617188 11.699219 6.761719 11.320312 6.734375 C 10.5625 6.703125 9.21875 5.535156 8.050781 5.011719 C 6.765625 4.457031 4.519531 4.136719 3.964844 3.523438 C 3.703125 3.257812 3.613281 2.851562 3.703125 2.617188 C 3.789062 2.355469 4.023438 2.09375 4.460938 2.035156 C 6.183594 1.742188 16.605469 5.683594 18.035156 6.585938 C 18.355469 6.792969 18.5 6.910156 18.558594 7.113281 C 18.617188 7.316406 18.558594 7.667969 18.414062 7.8125 C 18.269531 7.988281 18.035156 8.074219 17.566406 8.074219 C 15.785156 8.046875 5.601562 4.574219 4.402344 3.492188 C 4.140625 3.257812 4.082031 3.054688 4.109375 2.851562 C 4.140625 2.617188 4.34375 2.238281 4.636719 2.152344 C 5.160156 1.945312 6.125 2.382812 7.261719 2.707031 C 9.480469 3.257812 15.726562 4.953125 16.867188 5.710938 C 17.1875 5.914062 17.304688 6.089844 17.363281 6.296875 C 17.390625 6.5 17.304688 6.851562 17.160156 7.023438 C 17.011719 7.199219 16.808594 7.289062 16.457031 7.289062 C 15.347656 7.199219 11.640625 4.980469 9.976562 3.929688 C 8.839844 3.171875 7.585938 2.382812 7.207031 1.769531 C 7.03125 1.480469 6.972656 1.214844 7.03125 0.984375 C 7.058594 0.808594 7.234375 0.605469 7.378906 0.488281 C 7.554688 0.398438 7.703125 0.3125 7.992188 0.339844 C 8.898438 0.488281 11.757812 2.648438 13.421875 3.464844 C 14.734375 4.136719 16.488281 4.601562 17.101562 5.039062 C 17.332031 5.214844 17.449219 5.332031 17.539062 5.507812 C 17.597656 5.683594 17.625 5.945312 17.566406 6.121094 C 17.480469 6.324219 17.332031 6.527344 17.160156 6.617188 C 16.984375 6.703125 16.808594 6.792969 16.515625 6.703125 C 15.726562 6.46875 12.867188 4.105469 12.402344 3.171875 C 12.195312 2.792969 12.226562 2.382812 12.3125 2.121094 C 12.402344 1.945312 12.632812 1.769531 12.839844 1.710938 C 13.015625 1.65625 13.21875 1.625 13.480469 1.742188 C 14.210938 2.003906 15.992188 4.046875 16.777344 4.425781 C 17.160156 4.601562 17.507812 4.398438 17.714844 4.574219 C 17.945312 4.75 18.09375 5.15625 18.09375 5.417969 C 18.09375 5.625 18.035156 5.859375 17.859375 6.003906 C 17.625 6.179688 16.984375 6.355469 16.691406 6.238281 C 16.429688 6.121094 16.195312 5.769531 16.167969 5.507812 C 16.109375 5.214844 16.28125 4.808594 16.457031 4.632812 C 16.605469 4.484375 16.808594 4.367188 17.042969 4.367188 C 17.277344 4.367188 17.714844 4.515625 17.886719 4.71875 C 18.0625 4.980469 18.09375 5.652344 17.917969 5.914062 C 17.742188 6.179688 17.277344 6.355469 16.808594 6.265625 C 15.785156 6.121094 12.925781 3.902344 12.402344 3.171875 C 12.226562 2.9375 12.195312 2.761719 12.195312 2.558594 C 12.195312 2.355469 12.285156 2.09375 12.460938 1.945312 C 12.632812 1.800781 12.984375 1.65625 13.277344 1.683594 C 13.597656 1.710938 13.917969 1.917969 14.355469 2.238281 C 15.144531 2.820312 17.042969 4.632812 17.421875 5.304688 C 17.566406 5.566406 17.625 5.710938 17.597656 5.914062 C 17.566406 6.148438 17.390625 6.5 17.160156 6.617188 C 16.835938 6.761719 16.3125 6.585938 15.671875 6.382812 C 14.328125 5.945312 11.292969 4.339844 9.773438 3.492188 C 8.78125 2.9375 7.789062 2.355469 7.351562 1.917969 C 7.175781 1.742188 7.058594 1.597656 7.03125 1.421875 C 6.972656 1.214844 7 0.953125 7.117188 0.808594 C 7.261719 0.574219 7.644531 0.3125 8.023438 0.371094 C 8.722656 0.429688 9.65625 1.800781 10.796875 2.558594 C 12.429688 3.609375 16.28125 5.011719 17.042969 5.800781 C 17.304688 6.0625 17.363281 6.265625 17.363281 6.5 C 17.390625 6.675781 17.304688 6.910156 17.160156 7.023438 C 16.925781 7.199219 16.457031 7.199219 15.816406 7.113281 C 13.832031 6.878906 5.453125 4.660156 4.402344 3.492188 C 4.109375 3.171875 4.082031 2.707031 4.199219 2.5 C 4.34375 2.265625 4.695312 2.152344 5.191406 2.179688 C 7.058594 2.179688 16.632812 5.710938 18.035156 6.585938 C 18.355469 6.792969 18.5 6.910156 18.558594 7.113281 C 18.617188 7.316406 18.558594 7.667969 18.414062 7.8125 C 18.269531 7.988281 18.035156 8.074219 17.566406 8.074219 C 15.757812 8.046875 5.160156 4.777344 3.964844 3.523438 C 3.644531 3.203125 3.613281 2.851562 3.703125 2.617188 C 3.789062 2.355469 4.082031 2.09375 4.460938 2.035156 C 5.308594 1.917969 7.4375 2.996094 8.753906 3.582031 C 9.890625 4.078125 11.378906 4.835938 11.90625 5.246094 C 12.109375 5.417969 12.226562 5.507812 12.285156 5.683594 C 12.34375 5.886719 12.3125 6.238281 12.195312 6.414062 C 12.019531 6.617188 11.757812 6.734375 11.320312 6.734375 C 9.976562 6.792969 4.023438 5.097656 3.03125 4.195312 C 2.679688 3.871094 2.535156 3.464844 2.621094 3.230469 C 2.710938 2.996094 3.058594 2.761719 3.554688 2.734375 C 5.160156 2.617188 13.394531 5.859375 14.589844 6.910156 C 14.910156 7.199219 15.027344 7.433594 15 7.667969 C 15 7.902344 14.765625 8.164062 14.589844 8.28125 C 14.445312 8.367188 14.355469 8.367188 14.066406 8.339844 C 12.78125 8.25 5.074219 6.382812 4.023438 5.363281 C 3.671875 5.039062 3.585938 4.632812 3.671875 4.398438 C 3.761719 4.164062 4.109375 3.960938 4.605469 3.929688 C 6.066406 3.871094 12.167969 6.878906 13.742188 7.609375 C 14.328125 7.871094 14.675781 7.960938 14.910156 8.222656 C 15.085938 8.425781 15.203125 8.6875 15.203125 8.894531 C 15.203125 9.070312 15.117188 9.273438 15 9.390625 C 14.824219 9.535156 14.648438 9.621094 14.296875 9.621094 C 13.101562 9.652344 8.546875 8.191406 6.710938 7.636719 C 5.628906 7.289062 4.578125 7.113281 4.199219 6.734375 C 3.996094 6.527344 3.90625 6.265625 3.9375 6.03125 C 3.964844 5.828125 4.109375 5.535156 4.34375 5.449219 C 4.722656 5.273438 5.425781 5.566406 6.269531 5.800781 C 7.992188 6.265625 13.015625 7.929688 13.976562 8.6875 C 14.269531 8.894531 14.355469 9.070312 14.386719 9.300781 C 14.414062 9.535156 14.296875 9.855469 14.125 10.003906 C 13.949219 10.148438 13.773438 10.175781 13.394531 10.175781 C 12.078125 10.207031 5.863281 9.242188 4.8125 8.425781 C 4.460938 8.164062 4.316406 7.8125 4.375 7.550781 C 4.433594 7.257812 4.8125 6.851562 5.25 6.792969 C 6.359375 6.675781 10.503906 9.15625 11.292969 9.945312 C 11.554688 10.207031 11.671875 10.410156 11.640625 10.644531 C 11.613281 10.90625 11.4375 11.316406 11.058594 11.460938 C 10.007812 11.839844 4.664062 10.585938 3.703125 9.796875 C 3.324219 9.476562 3.175781 8.980469 3.265625 8.71875 C 3.382812 8.457031 3.789062 8.222656 4.285156 8.164062 C 5.511719 7.988281 10.035156 8.921875 10.914062 9.621094 C 11.234375 9.886719 11.351562 10.234375 11.320312 10.5 C 11.261719 10.761719 11.027344 11.082031 10.621094 11.199219 C 9.6875 11.550781 6.738281 10.878906 4.957031 10.5 C 3.292969 10.175781 0.8125 9.796875 0.289062 9.183594 C 0.0234375 8.894531 0.0234375 8.484375 0.140625 8.25 C 0.257812 8.019531 0.550781 7.871094 0.988281 7.785156 C 2.300781 7.578125 7.613281 8.953125 9.277344 9.300781 C 9.976562 9.449219 10.417969 9.476562 10.796875 9.679688 C 11.117188 9.855469 11.410156 10.148438 11.496094 10.410156 C 11.554688 10.644531 11.4375 11.023438 11.261719 11.226562 C 11.085938 11.402344 10.707031 11.550781 10.445312 11.492188 C 10.183594 11.433594 9.832031 10.761719 9.714844 10.761719 C 9.65625 10.789062 9.6875 10.9375 9.597656 10.964844 C 9.101562 11.171875 4.054688 9.566406 3.207031 9.039062 C 2.945312 8.863281 2.828125 8.746094 2.769531 8.570312 C 2.679688 8.398438 2.679688 8.132812 2.738281 7.960938 C 2.796875 7.753906 2.972656 7.550781 3.148438 7.464844 C 3.324219 7.375 3.761719 7.375 3.761719 7.375 " clip-rule="nonzero"/></clipPath><clipPath id="8fdd1cad1e"><rect x="0" width="19" y="0" height="12"/></clipPath><clipPath id="19fad00273"><path d="M 57.160156 20.941406 L 68.035156 20.941406 L 68.035156 26.878906 L 57.160156 26.878906 Z M 57.160156 20.941406 " clip-rule="nonzero"/></clipPath><clipPath id="9e12902cbc"><path d="M 67.035156 26.871094 C 62.773438 25.734375 59.914062 24.449219 58.6875 23.574219 C 57.957031 23.078125 57.316406 22.550781 57.199219 22.085938 C 57.140625 21.792969 57.316406 21.386719 57.519531 21.210938 C 57.753906 21.003906 58.191406 20.890625 58.453125 20.976562 C 58.714844 21.035156 59.066406 21.355469 59.15625 21.617188 C 59.269531 21.882812 59.210938 22.320312 59.039062 22.550781 C 58.832031 22.785156 58.160156 22.992188 57.871094 22.902344 C 57.578125 22.84375 57.285156 22.464844 57.226562 22.203125 C 57.167969 21.941406 57.257812 21.472656 57.460938 21.269531 C 57.636719 21.0625 57.957031 20.917969 58.335938 20.949219 C 59.242188 21.035156 61.082031 22.816406 62.597656 23.546875 C 64.175781 24.246094 66.890625 24.539062 67.621094 25.207031 C 67.910156 25.5 68.027344 25.910156 68 26.171875 C 67.96875 26.375 67.792969 26.582031 67.648438 26.699219 C 67.472656 26.8125 67.035156 26.871094 67.035156 26.871094 " clip-rule="nonzero"/></clipPath><clipPath id="c6db4c5c6e"><path d="M 0.160156 0.941406 L 11.035156 0.941406 L 11.035156 6.878906 L 0.160156 6.878906 Z M 0.160156 0.941406 " clip-rule="nonzero"/></clipPath><clipPath id="f81b40b031"><path d="M 10.035156 6.871094 C 5.773438 5.734375 2.914062 4.449219 1.6875 3.574219 C 0.957031 3.078125 0.316406 2.550781 0.199219 2.085938 C 0.140625 1.792969 0.316406 1.386719 0.519531 1.210938 C 0.753906 1.003906 1.191406 0.890625 1.453125 0.976562 C 1.714844 1.035156 2.066406 1.355469 2.15625 1.617188 C 2.269531 1.882812 2.210938 2.320312 2.039062 2.550781 C 1.832031 2.785156 1.160156 2.992188 0.871094 2.902344 C 0.578125 2.84375 0.285156 2.464844 0.226562 2.203125 C 0.167969 1.941406 0.257812 1.472656 0.460938 1.269531 C 0.636719 1.0625 0.957031 0.917969 1.335938 0.949219 C 2.242188 1.035156 4.082031 2.816406 5.597656 3.546875 C 7.175781 4.246094 9.890625 4.539062 10.621094 5.207031 C 10.910156 5.5 11.027344 5.910156 11 6.171875 C 10.96875 6.375 10.792969 6.582031 10.648438 6.699219 C 10.472656 6.8125 10.035156 6.871094 10.035156 6.871094 " clip-rule="nonzero"/></clipPath><clipPath id="f7757624f6"><rect x="0" width="12" y="0" height="7"/></clipPath><clipPath id="a65cdfd8bd"><path d="M 55.324219 21.816406 L 69.671875 21.816406 L 69.671875 31.066406 L 55.324219 31.066406 Z M 55.324219 21.816406 " clip-rule="nonzero"/></clipPath><clipPath id="46716738f6"><path d="M 59.242188 25.324219 C 55.417969 23.953125 55.359375 23.75 55.332031 23.574219 C 55.332031 23.371094 55.359375 23.078125 55.503906 22.933594 C 55.710938 22.726562 56.089844 22.523438 56.527344 22.582031 C 57.433594 22.699219 58.949219 24.304688 60.585938 25.238281 C 62.917969 26.582031 68.523438 28.59375 69.398438 29.5 C 69.605469 29.734375 69.632812 29.878906 69.632812 30.113281 C 69.632812 30.347656 69.457031 30.726562 69.253906 30.871094 C 69.050781 31.019531 68.785156 31.074219 68.40625 30.988281 C 67.328125 30.785156 64.085938 28.625 62.6875 27.71875 C 61.8125 27.136719 61.199219 26.8125 60.644531 26.203125 C 60.117188 25.617188 59.914062 24.683594 59.359375 24.214844 C 58.832031 23.75 57.78125 23.253906 57.433594 23.339844 C 57.257812 23.371094 57.257812 23.71875 57.140625 23.71875 C 57.023438 23.75 56.847656 23.605469 56.761719 23.488281 C 56.644531 23.339844 56.5 23.050781 56.5 22.84375 C 56.5 22.640625 56.554688 22.378906 56.730469 22.203125 C 56.9375 22.027344 57.492188 21.851562 57.78125 21.941406 C 58.015625 22 58.25 22.230469 58.335938 22.4375 C 58.425781 22.667969 58.394531 23.105469 58.277344 23.339844 C 58.191406 23.515625 58.015625 23.660156 57.8125 23.71875 C 57.578125 23.808594 57.140625 23.777344 56.90625 23.632812 C 56.703125 23.488281 56.46875 23.105469 56.5 22.816406 C 56.527344 22.523438 56.90625 22.027344 57.199219 21.910156 C 57.460938 21.824219 57.871094 21.941406 58.074219 22.113281 C 58.277344 22.289062 58.425781 22.667969 58.394531 22.933594 C 58.367188 23.195312 58.132812 23.546875 57.898438 23.691406 C 57.664062 23.808594 57.226562 23.808594 56.996094 23.691406 C 56.761719 23.546875 56.527344 23.136719 56.5 22.84375 C 56.5 22.582031 56.644531 22.230469 56.90625 22.054688 C 57.285156 21.824219 58.21875 21.792969 58.804688 21.941406 C 59.417969 22.085938 60.058594 22.496094 60.527344 22.960938 C 61.050781 23.457031 61.257812 24.332031 61.78125 24.886719 C 62.277344 25.441406 62.773438 25.761719 63.589844 26.316406 C 64.933594 27.195312 68.726562 28.769531 69.398438 29.5 C 69.605469 29.734375 69.632812 29.878906 69.632812 30.113281 C 69.632812 30.347656 69.457031 30.726562 69.253906 30.871094 C 69.050781 31.019531 68.613281 31.046875 68.40625 30.988281 C 68.261719 30.960938 68.027344 30.785156 68.027344 30.753906 C 68.058594 30.695312 68.992188 30.902344 68.992188 30.902344 C 68.992188 30.902344 68.464844 30.929688 67.941406 30.785156 C 66.160156 30.257812 58.628906 26.523438 56.730469 25.152344 C 56.003906 24.625 55.535156 24.1875 55.390625 23.777344 C 55.300781 23.546875 55.332031 23.3125 55.417969 23.105469 C 55.476562 22.933594 55.679688 22.726562 55.855469 22.640625 C 56.03125 22.550781 56.207031 22.550781 56.527344 22.582031 C 57.199219 22.667969 59.328125 23.3125 59.914062 23.691406 C 60.148438 23.835938 60.234375 23.984375 60.320312 24.15625 C 60.378906 24.363281 60.378906 24.625 60.292969 24.800781 C 60.234375 24.976562 60.03125 25.179688 59.855469 25.265625 C 59.679688 25.355469 59.242188 25.324219 59.242188 25.324219 " clip-rule="nonzero"/></clipPath><clipPath id="15ed362a17"><path d="M 0.324219 0.816406 L 14.671875 0.816406 L 14.671875 10.066406 L 0.324219 10.066406 Z M 0.324219 0.816406 " clip-rule="nonzero"/></clipPath><clipPath id="c87e087201"><path d="M 4.242188 4.324219 C 0.417969 2.953125 0.359375 2.75 0.332031 2.574219 C 0.332031 2.371094 0.359375 2.078125 0.503906 1.933594 C 0.710938 1.726562 1.089844 1.523438 1.527344 1.582031 C 2.433594 1.699219 3.949219 3.304688 5.585938 4.238281 C 7.917969 5.582031 13.523438 7.59375 14.398438 8.5 C 14.605469 8.734375 14.632812 8.878906 14.632812 9.113281 C 14.632812 9.347656 14.457031 9.726562 14.253906 9.871094 C 14.050781 10.019531 13.785156 10.074219 13.40625 9.988281 C 12.328125 9.785156 9.085938 7.625 7.6875 6.71875 C 6.8125 6.136719 6.199219 5.8125 5.644531 5.203125 C 5.117188 4.617188 4.914062 3.683594 4.359375 3.214844 C 3.832031 2.75 2.78125 2.253906 2.433594 2.339844 C 2.257812 2.371094 2.257812 2.71875 2.140625 2.71875 C 2.023438 2.75 1.847656 2.605469 1.761719 2.488281 C 1.644531 2.339844 1.5 2.050781 1.5 1.84375 C 1.5 1.640625 1.554688 1.378906 1.730469 1.203125 C 1.9375 1.027344 2.492188 0.851562 2.78125 0.941406 C 3.015625 1 3.25 1.230469 3.335938 1.4375 C 3.425781 1.667969 3.394531 2.105469 3.277344 2.339844 C 3.191406 2.515625 3.015625 2.660156 2.8125 2.71875 C 2.578125 2.808594 2.140625 2.777344 1.90625 2.632812 C 1.703125 2.488281 1.46875 2.105469 1.5 1.816406 C 1.527344 1.523438 1.90625 1.027344 2.199219 0.910156 C 2.460938 0.824219 2.871094 0.941406 3.074219 1.113281 C 3.277344 1.289062 3.425781 1.667969 3.394531 1.933594 C 3.367188 2.195312 3.132812 2.546875 2.898438 2.691406 C 2.664062 2.808594 2.226562 2.808594 1.996094 2.691406 C 1.761719 2.546875 1.527344 2.136719 1.5 1.84375 C 1.5 1.582031 1.644531 1.230469 1.90625 1.054688 C 2.285156 0.824219 3.21875 0.792969 3.804688 0.941406 C 4.417969 1.085938 5.058594 1.496094 5.527344 1.960938 C 6.050781 2.457031 6.257812 3.332031 6.78125 3.886719 C 7.277344 4.441406 7.773438 4.761719 8.589844 5.316406 C 9.933594 6.195312 13.726562 7.769531 14.398438 8.5 C 14.605469 8.734375 14.632812 8.878906 14.632812 9.113281 C 14.632812 9.347656 14.457031 9.726562 14.253906 9.871094 C 14.050781 10.019531 13.613281 10.046875 13.40625 9.988281 C 13.261719 9.960938 13.027344 9.785156 13.027344 9.753906 C 13.058594 9.695312 13.992188 9.902344 13.992188 9.902344 C 13.992188 9.902344 13.464844 9.929688 12.941406 9.785156 C 11.160156 9.257812 3.628906 5.523438 1.730469 4.152344 C 1.003906 3.625 0.535156 3.1875 0.390625 2.777344 C 0.300781 2.546875 0.332031 2.3125 0.417969 2.105469 C 0.476562 1.933594 0.679688 1.726562 0.855469 1.640625 C 1.03125 1.550781 1.207031 1.550781 1.527344 1.582031 C 2.199219 1.667969 4.328125 2.3125 4.914062 2.691406 C 5.148438 2.835938 5.234375 2.984375 5.320312 3.15625 C 5.378906 3.363281 5.378906 3.625 5.292969 3.800781 C 5.234375 3.976562 5.03125 4.179688 4.855469 4.265625 C 4.679688 4.355469 4.242188 4.324219 4.242188 4.324219 " clip-rule="nonzero"/></clipPath><clipPath id="9369231dbd"><rect x="0" width="15" y="0" height="11"/></clipPath><clipPath id="06a74b3e50"><rect x="0" width="956" y="0" height="150"/></clipPath></defs><path stroke-linecap="butt" transform="matrix(0, 0.75, -0.75, 0, 31.412699, 19.751989)" fill="none" stroke-linejoin="miter" d="M 0.00255654 10.998183 L 155.674441 10.998183 " stroke="#0491f3" stroke-width="22" stroke-opacity="1" stroke-miterlimit="4"/><path stroke-linecap="butt" transform="matrix(0.75, 0, 0, 0.75, 30.058885, 19.52758)" fill="none" stroke-linejoin="miter" d="M -0.000388522 10.999685 L 37.114197 10.999685 " stroke="#0491f3" stroke-width="22" stroke-opacity="1" stroke-miterlimit="4"/><path stroke-linecap="butt" transform="matrix(0.75, 0, 0, 0.75, 26.56228, 120.230297)" fill="none" stroke-linejoin="miter" d="M 0.000293993 11.00023 L 37.114879 11.00023 " stroke="#0491f3" stroke-width="22" stroke-opacity="1" stroke-miterlimit="4"/><path stroke-linecap="butt" transform="matrix(0.424571, 0.618255, -0.618255, 0.424571, 71.166677, 26.618683)" fill="none" stroke-linejoin="miter" d="M 0.00110403 10.998627 L 169.358115 11.001392 " stroke="#0491f3" stroke-width="22" stroke-opacity="1" stroke-miterlimit="4"/><path stroke-linecap="butt" transform="matrix(-0.436578, 0.609836, -0.609836, -0.436578, 142.972794, 24.55685)" fill="none" stroke-linejoin="miter" d="M -0.00143846 10.999345 L 173.309973 10.999667 " stroke="#0491f3" stroke-width="22" stroke-opacity="1" stroke-miterlimit="4"/><path stroke-linecap="butt" transform="matrix(0.661058, 0.354264, -0.354264, 0.661058, 57.954923, 19.617401)" fill="none" stroke-linejoin="miter" d="M 0.000359921 0.998121 L 19.89072 0.998787 " stroke="#0491f3" stroke-width="2" stroke-opacity="1" stroke-miterlimit="4"/><path stroke-linecap="butt" transform="matrix(0.669975, -0.337095, 0.337095, 0.669975, 53.76082, 135.319125)" fill="none" stroke-linejoin="miter" d="M 0.000182789 0.99887 L 19.27468 1.000721 " stroke="#0491f3" stroke-width="2" stroke-opacity="1" stroke-miterlimit="4"/><g clip-path="url(#6c257de3e3)"><g clip-path="url(#c1870b7c39)"><g transform="matrix(1, 0, 0, 1, 51, 120)"><g clip-path="url(#a77c513d95)"><g clip-path="url(#a97544656c)"><g clip-path="url(#92cf5cfe46)"><rect x="-298.5" width="1620" fill="#0491f3" height="215.999996" y="-152.999999" fill-opacity="1"/></g></g></g></g></g></g><g clip-path="url(#9243b24c4f)"><g clip-path="url(#fd22e3766c)"><g transform="matrix(1, 0, 0, 1, 57, 33)"><g clip-path="url(#88287b2750)"><g clip-path="url(#0789db319f)"><g clip-path="url(#db1072d3bf)"><rect x="-304.5" width="1620" fill="#0491f3" height="215.999996" y="-65.999999" fill-opacity="1"/></g></g></g></g></g></g><g clip-path="url(#727b27e6f4)"><g clip-path="url(#aacc37ddd7)"><g transform="matrix(1, 0, 0, 1, 57, 32)"><g clip-path="url(#753013ebbd)"><g clip-path="url(#ddd1d92519)"><g clip-path="url(#45cbef801e)"><rect x="-304.5" width="1620" fill="#0491f3" height="215.999996" y="-64.999999" fill-opacity="1"/></g></g></g></g></g></g><g clip-path="url(#86c621199d)"><g clip-path="url(#5a530c4be2)"><g transform="matrix(1, 0, 0, 1, 57, 34)"><g clip-path="url(#33f008604c)"><g clip-path="url(#060e96b209)"><g clip-path="url(#bff35c819d)"><rect x="-304.5" width="1620" fill="#0491f3" height="215.999996" y="-66.999999" fill-opacity="1"/></g></g></g></g></g></g><g clip-path="url(#4d8b496254)"><g clip-path="url(#c3a3d8536f)"><g transform="matrix(1, 0, 0, 1, 57, 34)"><g clip-path="url(#a3e3c5dd46)"><g clip-path="url(#d9a6070cd6)"><g clip-path="url(#4f20b07491)"><rect x="-304.5" width="1620" fill="#0491f3" height="215.999996" y="-66.999999" fill-opacity="1"/></g></g></g></g></g></g><g clip-path="url(#9e777a77d6)"><g clip-path="url(#185b59803b)"><g transform="matrix(1, 0, 0, 1, 53, 23)"><g clip-path="url(#8fdd1cad1e)"><g clip-path="url(#bdd00ce98d)"><g clip-path="url(#3b25d79c0e)"><rect x="-300.5" width="1620" fill="#0491f3" height="215.999996" y="-55.999999" fill-opacity="1"/></g></g></g></g></g></g><g clip-path="url(#19fad00273)"><g clip-path="url(#9e12902cbc)"><g transform="matrix(1, 0, 0, 1, 57, 20)"><g clip-path="url(#f7757624f6)"><g clip-path="url(#c6db4c5c6e)"><g clip-path="url(#f81b40b031)"><rect x="-304.5" width="1620" fill="#0491f3" height="215.999996" y="-52.999999" fill-opacity="1"/></g></g></g></g></g></g><g clip-path="url(#a65cdfd8bd)"><g clip-path="url(#46716738f6)"><g transform="matrix(1, 0, 0, 1, 55, 21)"><g clip-path="url(#9369231dbd)"><g clip-path="url(#15ed362a17)"><g clip-path="url(#c87e087201)"><rect x="-302.5" width="1620" fill="#0491f3" height="215.999996" y="-53.999999" fill-opacity="1"/></g></g></g></g></g></g><g transform="matrix(1, 0, 0, 1, 162, -0.000000000000007527)"><g clip-path="url(#06a74b3e50)"><g fill="#0491f3" fill-opacity="1"><g transform="translate(0.26061, 122.302103)"><g><path d="M 4.4375 0 L 4.4375 -100.328125 L 24.53125 -100.328125 L 24.53125 -17.046875 L 45.203125 -17.046875 L 45.203125 0 Z M 4.4375 0 "/></g></g></g><g fill="#0491f3" fill-opacity="1"><g transform="translate(46.628369, 122.302103)"><g><path d="M 20.5625 0.9375 C 14.175781 0.9375 9.796875 -0.96875 7.421875 -4.78125 C 5.046875 -8.601562 3.859375 -14.289062 3.859375 -21.84375 L 3.859375 -85.5 L 24.40625 -85.5 L 24.40625 -25.921875 C 24.40625 -25.378906 24.40625 -23.921875 24.40625 -21.546875 C 24.40625 -19.171875 24.773438 -17.492188 25.515625 -16.515625 C 26.253906 -15.546875 27.40625 -15.0625 28.96875 -15.0625 C 31.070312 -15.0625 32.394531 -15.9375 32.9375 -17.6875 C 33.476562 -19.445312 33.75 -21.960938 33.75 -25.234375 L 33.75 -25.921875 L 33.875 -85.5 L 54.1875 -85.5 L 54.1875 0 L 33.75 0 L 33.75 -9.109375 C 32.351562 -5.523438 30.71875 -2.953125 28.84375 -1.390625 C 26.976562 0.160156 24.21875 0.9375 20.5625 0.9375 Z M 20.5625 0.9375 "/></g></g></g><g fill="#0491f3" fill-opacity="1"><g transform="translate(104.909247, 122.302103)"><g><path d="M 4.09375 -85.5 L 24.0625 -85.5 L 24.0625 -75.5625 C 25 -79.226562 26.59375 -81.957031 28.84375 -83.75 C 31.101562 -85.539062 34.296875 -86.4375 38.421875 -86.4375 C 41.773438 -86.4375 44.675781 -85.675781 47.125 -84.15625 C 49.582031 -82.632812 51.316406 -80.550781 52.328125 -77.90625 C 54.035156 -80.863281 55.941406 -83.023438 58.046875 -84.390625 C 60.148438 -85.753906 63.070312 -86.4375 66.8125 -86.4375 C 73.507812 -86.4375 78.160156 -84.390625 80.765625 -80.296875 C 83.367188 -76.210938 84.671875 -70.273438 84.671875 -62.484375 L 84.4375 0 L 63.890625 0 L 63.890625 -62.84375 C 63.890625 -68.363281 62.488281 -71.125 59.6875 -71.125 C 57.738281 -71.125 56.332031 -70.171875 55.46875 -68.265625 C 54.613281 -66.359375 54.1875 -64.082031 54.1875 -61.4375 L 54.1875 0 L 33.75 0 L 33.75 -62.84375 C 33.75 -65.25 33.492188 -67.191406 32.984375 -68.671875 C 32.484375 -70.148438 31.414062 -70.890625 29.78125 -70.890625 C 27.675781 -70.890625 26.195312 -69.859375 25.34375 -67.796875 C 24.488281 -65.734375 24.0625 -63.265625 24.0625 -60.390625 L 24.0625 0 L 4.09375 0 Z M 4.09375 -85.5 "/></g></g></g><g fill="#0491f3" fill-opacity="1"><g transform="translate(193.440126, 122.302103)"><g><path d="M 28.96875 0.9375 C 11.914062 0.9375 3.390625 -7.898438 3.390625 -25.578125 L 3.390625 -59.921875 C 3.390625 -68.015625 5.664062 -74.457031 10.21875 -79.25 C 14.769531 -84.039062 21.019531 -86.4375 28.96875 -86.4375 C 36.90625 -86.4375 43.148438 -84.039062 47.703125 -79.25 C 52.265625 -74.457031 54.546875 -68.015625 54.546875 -59.921875 L 54.546875 -25.578125 C 54.546875 -7.898438 46.019531 0.9375 28.96875 0.9375 Z M 28.96875 -14.828125 C 30.601562 -14.828125 31.804688 -15.410156 32.578125 -16.578125 C 33.359375 -17.753906 33.75 -19.351562 33.75 -21.375 L 33.75 -63.1875 C 33.75 -68.164062 32.15625 -70.65625 28.96875 -70.65625 C 25.769531 -70.65625 24.171875 -68.164062 24.171875 -63.1875 L 24.171875 -21.375 C 24.171875 -19.351562 24.5625 -17.753906 25.34375 -16.578125 C 26.125 -15.410156 27.332031 -14.828125 28.96875 -14.828125 Z M 28.96875 -14.828125 "/></g></g></g><g fill="#0491f3" fill-opacity="1"><g transform="translate(251.487417, 122.302103)"><g><path d="M 53.140625 0 L 32.703125 0 L 24.0625 -24.0625 L 15.890625 0 L 0.46875 0 L 16.125 -45.90625 L 1.875 -85.609375 L 22.65625 -85.609375 L 30.015625 -64.828125 L 37.265625 -85.609375 L 52.4375 -85.609375 L 37.71875 -43.328125 Z M 53.140625 0 "/></g></g></g><g fill="#0491f3" fill-opacity="1"><g transform="translate(305.096482, 122.302103)"><g/></g></g><g fill="#0491f3" fill-opacity="1"><g transform="translate(332.426617, 122.302103)"><g><path d="M 13.078125 0 L 13.078125 -81.0625 L 1.171875 -81.0625 L 1.171875 -100.328125 L 45.078125 -100.328125 L 45.078125 -81.0625 L 33.171875 -81.0625 L 33.171875 0 Z M 13.078125 0 "/></g></g></g><g fill="#0491f3" fill-opacity="1"><g transform="translate(378.677537, 122.302103)"><g><path d="M 28.03125 0.9375 C 19.226562 0.9375 12.921875 -1.472656 9.109375 -6.296875 C 5.296875 -11.128906 3.390625 -18.335938 3.390625 -27.921875 L 3.390625 -62.25 C 3.390625 -70.113281 5.644531 -76.109375 10.15625 -80.234375 C 14.675781 -84.367188 20.984375 -86.4375 29.078125 -86.4375 C 45.515625 -86.4375 53.734375 -78.375 53.734375 -62.25 L 53.734375 -56.0625 C 53.734375 -49.832031 53.65625 -44.769531 53.5 -40.875 L 23.828125 -40.875 L 23.828125 -24.296875 C 23.828125 -21.335938 24.140625 -19.019531 24.765625 -17.34375 C 25.390625 -15.664062 26.710938 -14.828125 28.734375 -14.828125 C 30.285156 -14.828125 31.390625 -15.296875 32.046875 -16.234375 C 32.710938 -17.171875 33.101562 -18.238281 33.21875 -19.4375 C 33.34375 -20.644531 33.40625 -22.421875 33.40625 -24.765625 L 33.40625 -33.046875 L 53.734375 -33.046875 L 53.734375 -28.140625 C 53.734375 -18.179688 51.800781 -10.84375 47.9375 -6.125 C 44.082031 -1.414062 37.445312 0.9375 28.03125 0.9375 Z M 33.40625 -51.046875 L 33.40625 -62.015625 C 33.40625 -68.171875 31.882812 -71.25 28.84375 -71.25 C 25.414062 -71.25 23.703125 -68.171875 23.703125 -62.015625 L 23.703125 -51.046875 Z M 33.40625 -51.046875 "/></g></g></g><g fill="#0491f3" fill-opacity="1"><g transform="translate(435.673678, 122.302103)"><g><path d="M 29.78125 0.9375 C 20.4375 0.9375 13.703125 -1.4375 9.578125 -6.1875 C 5.453125 -10.9375 3.390625 -18.21875 3.390625 -28.03125 L 3.390625 -54.421875 C 3.390625 -61.816406 4.1875 -67.832031 5.78125 -72.46875 C 7.375 -77.101562 10.054688 -80.585938 13.828125 -82.921875 C 17.609375 -85.265625 22.847656 -86.4375 29.546875 -86.4375 C 36.867188 -86.4375 42.828125 -84.523438 47.421875 -80.703125 C 52.015625 -76.890625 54.3125 -71.554688 54.3125 -64.703125 L 54.3125 -51.625 L 33.515625 -51.625 L 33.515625 -63.65625 C 33.515625 -65.914062 33.203125 -67.644531 32.578125 -68.84375 C 31.960938 -70.050781 30.757812 -70.65625 28.96875 -70.65625 C 25.613281 -70.65625 23.9375 -68.28125 23.9375 -63.53125 L 23.9375 -22.078125 C 23.9375 -20.128906 24.34375 -18.472656 25.15625 -17.109375 C 25.976562 -15.742188 27.207031 -15.0625 28.84375 -15.0625 C 30.476562 -15.0625 31.703125 -15.722656 32.515625 -17.046875 C 33.335938 -18.367188 33.710938 -20.082031 33.640625 -22.1875 L 33.515625 -36.5625 L 54.3125 -36.5625 L 54.3125 -21.609375 C 54.3125 -14.597656 52.03125 -9.085938 47.46875 -5.078125 C 42.914062 -1.066406 37.019531 0.9375 29.78125 0.9375 Z M 29.78125 0.9375 "/></g></g></g><g fill="#0491f3" fill-opacity="1"><g transform="translate(493.02019, 122.302103)"><g><path d="M 4.09375 -100.90625 L 25.109375 -100.90625 L 25.109375 -77.09375 C 27.285156 -83.320312 31.453125 -86.4375 37.609375 -86.4375 C 43.367188 -86.4375 47.726562 -84.601562 50.6875 -80.9375 C 53.644531 -77.28125 55.125 -72.257812 55.125 -65.875 L 55.125 0 L 34.6875 0 L 34.6875 -64.59375 C 34.6875 -66.457031 34.257812 -67.972656 33.40625 -69.140625 C 32.550781 -70.304688 31.304688 -70.890625 29.671875 -70.890625 C 28.265625 -70.890625 27.148438 -70.285156 26.328125 -69.078125 C 25.515625 -67.878906 25.109375 -66.421875 25.109375 -64.703125 L 25.109375 0 L 4.09375 0 Z M 4.09375 -100.90625 "/></g></g></g><g fill="#0491f3" fill-opacity="1"><g transform="translate(552.001865, 122.302103)"><g><path d="M 4.09375 -85.5 L 24.53125 -85.5 L 24.53125 -74.640625 C 25.382812 -78.140625 26.863281 -80.976562 28.96875 -83.15625 C 31.070312 -85.34375 33.875 -86.4375 37.375 -86.4375 C 43.132812 -86.4375 47.394531 -84.660156 50.15625 -81.109375 C 52.925781 -77.566406 54.3125 -72.523438 54.3125 -65.984375 L 54.3125 0 L 34.21875 0 L 34.21875 -63.890625 C 34.21875 -65.753906 33.847656 -67.347656 33.109375 -68.671875 C 32.367188 -69.992188 31.222656 -70.65625 29.671875 -70.65625 C 27.566406 -70.65625 26.179688 -69.703125 25.515625 -67.796875 C 24.859375 -65.890625 24.53125 -63.34375 24.53125 -60.15625 L 24.53125 0 L 4.09375 0 Z M 4.09375 -85.5 "/></g></g></g><g fill="#0491f3" fill-opacity="1"><g transform="translate(610.282726, 122.302103)"><g><path d="M 28.96875 0.9375 C 11.914062 0.9375 3.390625 -7.898438 3.390625 -25.578125 L 3.390625 -59.921875 C 3.390625 -68.015625 5.664062 -74.457031 10.21875 -79.25 C 14.769531 -84.039062 21.019531 -86.4375 28.96875 -86.4375 C 36.90625 -86.4375 43.148438 -84.039062 47.703125 -79.25 C 52.265625 -74.457031 54.546875 -68.015625 54.546875 -59.921875 L 54.546875 -25.578125 C 54.546875 -7.898438 46.019531 0.9375 28.96875 0.9375 Z M 28.96875 -14.828125 C 30.601562 -14.828125 31.804688 -15.410156 32.578125 -16.578125 C 33.359375 -17.753906 33.75 -19.351562 33.75 -21.375 L 33.75 -63.1875 C 33.75 -68.164062 32.15625 -70.65625 28.96875 -70.65625 C 25.769531 -70.65625 24.171875 -68.164062 24.171875 -63.1875 L 24.171875 -21.375 C 24.171875 -19.351562 24.5625 -17.753906 25.34375 -16.578125 C 26.125 -15.410156 27.332031 -14.828125 28.96875 -14.828125 Z M 28.96875 -14.828125 "/></g></g></g><g fill="#0491f3" fill-opacity="1"><g transform="translate(668.330017, 122.302103)"><g><path d="M 4.09375 0 L 4.09375 -100.90625 L 24.875 -100.90625 L 24.875 0 Z M 4.09375 0 "/></g></g></g><g fill="#0491f3" fill-opacity="1"><g transform="translate(697.295315, 122.302103)"><g><path d="M 28.96875 0.9375 C 11.914062 0.9375 3.390625 -7.898438 3.390625 -25.578125 L 3.390625 -59.921875 C 3.390625 -68.015625 5.664062 -74.457031 10.21875 -79.25 C 14.769531 -84.039062 21.019531 -86.4375 28.96875 -86.4375 C 36.90625 -86.4375 43.148438 -84.039062 47.703125 -79.25 C 52.265625 -74.457031 54.546875 -68.015625 54.546875 -59.921875 L 54.546875 -25.578125 C 54.546875 -7.898438 46.019531 0.9375 28.96875 0.9375 Z M 28.96875 -14.828125 C 30.601562 -14.828125 31.804688 -15.410156 32.578125 -16.578125 C 33.359375 -17.753906 33.75 -19.351562 33.75 -21.375 L 33.75 -63.1875 C 33.75 -68.164062 32.15625 -70.65625 28.96875 -70.65625 C 25.769531 -70.65625 24.171875 -68.164062 24.171875 -63.1875 L 24.171875 -21.375 C 24.171875 -19.351562 24.5625 -17.753906 25.34375 -16.578125 C 26.125 -15.410156 27.332031 -14.828125 28.96875 -14.828125 Z M 28.96875 -14.828125 "/></g></g></g><g fill="#0491f3" fill-opacity="1"><g transform="translate(755.342535, 122.302103)"><g><path d="M 27.09375 12.5 C 21.019531 12.5 16.25 12.007812 12.78125 11.03125 C 9.320312 10.0625 5.914062 8.210938 2.5625 5.484375 L 9.578125 -6.3125 C 14.554688 -3.351562 19.5 -1.875 24.40625 -1.875 C 27.601562 -1.875 30.019531 -2.882812 31.65625 -4.90625 C 33.289062 -6.925781 34.109375 -9.691406 34.109375 -13.203125 L 34.109375 -17.875 C 32.472656 -12.03125 28.148438 -9.109375 21.140625 -9.109375 C 15.296875 -9.109375 10.992188 -11.09375 8.234375 -15.0625 C 5.472656 -19.039062 4.09375 -24.335938 4.09375 -30.953125 L 4.09375 -63.078125 C 4.09375 -70.628906 5.359375 -76.410156 7.890625 -80.421875 C 10.421875 -84.429688 14.835938 -86.4375 21.140625 -86.4375 C 24.796875 -86.4375 27.691406 -85.519531 29.828125 -83.6875 C 31.972656 -81.851562 33.398438 -79.265625 34.109375 -75.921875 L 34.109375 -85.5 L 55.015625 -85.5 L 55.015625 -14.484375 C 55.015625 -4.898438 52.796875 1.988281 48.359375 6.1875 C 43.921875 10.394531 36.832031 12.5 27.09375 12.5 Z M 29.3125 -24.53125 C 32.507812 -24.53125 34.109375 -27.410156 34.109375 -33.171875 L 34.109375 -63.65625 C 34.109375 -65.363281 33.640625 -66.992188 32.703125 -68.546875 C 31.765625 -70.109375 30.597656 -70.890625 29.203125 -70.890625 C 27.410156 -70.890625 26.203125 -70.25 25.578125 -68.96875 C 24.953125 -67.6875 24.640625 -65.914062 24.640625 -63.65625 L 24.640625 -33.171875 C 24.640625 -30.597656 24.953125 -28.515625 25.578125 -26.921875 C 26.203125 -25.328125 27.445312 -24.53125 29.3125 -24.53125 Z M 29.3125 -24.53125 "/></g></g></g><g fill="#0491f3" fill-opacity="1"><g transform="translate(814.207408, 122.302103)"><g><path d="M 3.96875 -91.21875 L 3.96875 -105.46875 L 24.40625 -105.46875 L 24.40625 -91.21875 Z M 3.96875 0 L 3.96875 -85.5 L 24.40625 -85.5 L 24.40625 0 Z M 3.96875 0 "/></g></g></g><g fill="#0491f3" fill-opacity="1"><g transform="translate(842.588729, 122.302103)"><g><path d="M 28.03125 0.9375 C 19.226562 0.9375 12.921875 -1.472656 9.109375 -6.296875 C 5.296875 -11.128906 3.390625 -18.335938 3.390625 -27.921875 L 3.390625 -62.25 C 3.390625 -70.113281 5.644531 -76.109375 10.15625 -80.234375 C 14.675781 -84.367188 20.984375 -86.4375 29.078125 -86.4375 C 45.515625 -86.4375 53.734375 -78.375 53.734375 -62.25 L 53.734375 -56.0625 C 53.734375 -49.832031 53.65625 -44.769531 53.5 -40.875 L 23.828125 -40.875 L 23.828125 -24.296875 C 23.828125 -21.335938 24.140625 -19.019531 24.765625 -17.34375 C 25.390625 -15.664062 26.710938 -14.828125 28.734375 -14.828125 C 30.285156 -14.828125 31.390625 -15.296875 32.046875 -16.234375 C 32.710938 -17.171875 33.101562 -18.238281 33.21875 -19.4375 C 33.34375 -20.644531 33.40625 -22.421875 33.40625 -24.765625 L 33.40625 -33.046875 L 53.734375 -33.046875 L 53.734375 -28.140625 C 53.734375 -18.179688 51.800781 -10.84375 47.9375 -6.125 C 44.082031 -1.414062 37.445312 0.9375 28.03125 0.9375 Z M 33.40625 -51.046875 L 33.40625 -62.015625 C 33.40625 -68.171875 31.882812 -71.25 28.84375 -71.25 C 25.414062 -71.25 23.703125 -68.171875 23.703125 -62.015625 L 23.703125 -51.046875 Z M 33.40625 -51.046875 "/></g></g></g><g fill="#0491f3" fill-opacity="1"><g transform="translate(899.584834, 122.302103)"><g><path d="M 27.5625 0.9375 C 10.664062 0.9375 2.21875 -7.628906 2.21875 -24.765625 L 2.34375 -31.53125 L 22.78125 -31.53125 L 22.890625 -21.484375 C 22.890625 -19.460938 23.28125 -17.925781 24.0625 -16.875 C 24.84375 -15.820312 26.128906 -15.296875 27.921875 -15.296875 C 30.640625 -15.296875 32 -17.515625 32 -21.953125 C 32 -25.222656 31.351562 -27.789062 30.0625 -29.65625 C 28.78125 -31.53125 26.738281 -33.519531 23.9375 -35.625 L 13.078125 -44.03125 C 9.335938 -46.914062 6.648438 -49.894531 5.015625 -52.96875 C 3.378906 -56.039062 2.5625 -60.378906 2.5625 -65.984375 C 2.5625 -70.347656 3.707031 -74.066406 6 -77.140625 C 8.300781 -80.222656 11.359375 -82.539062 15.171875 -84.09375 C 18.992188 -85.65625 23.242188 -86.4375 27.921875 -86.4375 C 44.503906 -86.4375 52.796875 -78.179688 52.796875 -61.671875 L 52.796875 -60.03125 L 31.65625 -60.03125 L 31.65625 -63.296875 C 31.65625 -65.328125 31.320312 -67.0625 30.65625 -68.5 C 30 -69.9375 28.890625 -70.65625 27.328125 -70.65625 C 25.929688 -70.65625 24.863281 -70.242188 24.125 -69.421875 C 23.382812 -68.609375 23.015625 -67.503906 23.015625 -66.109375 C 23.015625 -62.992188 24.21875 -60.578125 26.625 -58.859375 L 39.25 -49.640625 C 43.757812 -46.285156 47.222656 -42.640625 49.640625 -38.703125 C 52.054688 -34.773438 53.265625 -29.816406 53.265625 -23.828125 C 53.265625 -15.878906 51.003906 -9.765625 46.484375 -5.484375 C 41.972656 -1.203125 35.664062 0.9375 27.5625 0.9375 Z M 27.5625 0.9375 "/></g></g></g></g></g></svg>